%TF.GenerationSoftware,KiCad,Pcbnew,(5.1.8)-1*%
%TF.CreationDate,2021-04-05T19:23:32-04:00*%
%TF.ProjectId,BuckLinReg_5V,4275636b-4c69-46e5-9265-675f35562e6b,rev?*%
%TF.SameCoordinates,Original*%
%TF.FileFunction,Soldermask,Top*%
%TF.FilePolarity,Negative*%
%FSLAX46Y46*%
G04 Gerber Fmt 4.6, Leading zero omitted, Abs format (unit mm)*
G04 Created by KiCad (PCBNEW (5.1.8)-1) date 2021-04-05 19:23:32*
%MOMM*%
%LPD*%
G01*
G04 APERTURE LIST*
%ADD10C,4.500000*%
%ADD11R,3.251000X3.124000*%
%ADD12R,2.600000X2.600000*%
%ADD13C,2.600000*%
%ADD14R,1.600000X1.600000*%
%ADD15C,1.600000*%
%ADD16R,0.800000X0.900000*%
%ADD17O,1.700000X1.700000*%
%ADD18R,1.700000X1.700000*%
%ADD19R,1.900000X0.800000*%
%ADD20C,2.000000*%
%ADD21R,0.800000X1.900000*%
%ADD22R,0.650000X1.060000*%
%ADD23R,1.100000X4.600000*%
%ADD24R,10.800000X9.400000*%
%ADD25C,2.540000*%
%ADD26R,0.650000X1.560000*%
G04 APERTURE END LIST*
D10*
%TO.C,H4*%
X150250000Y-55750000D03*
%TD*%
%TO.C,H3*%
X150250000Y-104250000D03*
%TD*%
%TO.C,H2*%
X61750000Y-104250000D03*
%TD*%
%TO.C,H1*%
X61750000Y-55750000D03*
%TD*%
D11*
%TO.C,L1*%
X107800000Y-59200000D03*
X107800000Y-68141000D03*
%TD*%
D12*
%TO.C,J1*%
X73500000Y-71250000D03*
D13*
X67500000Y-71250000D03*
X70500000Y-75950000D03*
%TD*%
D14*
%TO.C,C1*%
X91800000Y-71550000D03*
D15*
X91800000Y-74050000D03*
%TD*%
%TO.C,C2*%
G36*
G01*
X99849997Y-73850000D02*
X101150003Y-73850000D01*
G75*
G02*
X101400000Y-74099997I0J-249997D01*
G01*
X101400000Y-74925003D01*
G75*
G02*
X101150003Y-75175000I-249997J0D01*
G01*
X99849997Y-75175000D01*
G75*
G02*
X99600000Y-74925003I0J249997D01*
G01*
X99600000Y-74099997D01*
G75*
G02*
X99849997Y-73850000I249997J0D01*
G01*
G37*
G36*
G01*
X99849997Y-70725000D02*
X101150003Y-70725000D01*
G75*
G02*
X101400000Y-70974997I0J-249997D01*
G01*
X101400000Y-71800003D01*
G75*
G02*
X101150003Y-72050000I-249997J0D01*
G01*
X99849997Y-72050000D01*
G75*
G02*
X99600000Y-71800003I0J249997D01*
G01*
X99600000Y-70974997D01*
G75*
G02*
X99849997Y-70725000I249997J0D01*
G01*
G37*
%TD*%
%TO.C,C3*%
G36*
G01*
X114149997Y-62275000D02*
X115450003Y-62275000D01*
G75*
G02*
X115700000Y-62524997I0J-249997D01*
G01*
X115700000Y-63350003D01*
G75*
G02*
X115450003Y-63600000I-249997J0D01*
G01*
X114149997Y-63600000D01*
G75*
G02*
X113900000Y-63350003I0J249997D01*
G01*
X113900000Y-62524997D01*
G75*
G02*
X114149997Y-62275000I249997J0D01*
G01*
G37*
G36*
G01*
X114149997Y-65400000D02*
X115450003Y-65400000D01*
G75*
G02*
X115700000Y-65649997I0J-249997D01*
G01*
X115700000Y-66475003D01*
G75*
G02*
X115450003Y-66725000I-249997J0D01*
G01*
X114149997Y-66725000D01*
G75*
G02*
X113900000Y-66475003I0J249997D01*
G01*
X113900000Y-65649997D01*
G75*
G02*
X114149997Y-65400000I249997J0D01*
G01*
G37*
%TD*%
%TO.C,C4*%
G36*
G01*
X113237500Y-102400000D02*
X112762500Y-102400000D01*
G75*
G02*
X112525000Y-102162500I0J237500D01*
G01*
X112525000Y-101562500D01*
G75*
G02*
X112762500Y-101325000I237500J0D01*
G01*
X113237500Y-101325000D01*
G75*
G02*
X113475000Y-101562500I0J-237500D01*
G01*
X113475000Y-102162500D01*
G75*
G02*
X113237500Y-102400000I-237500J0D01*
G01*
G37*
G36*
G01*
X113237500Y-100675000D02*
X112762500Y-100675000D01*
G75*
G02*
X112525000Y-100437500I0J237500D01*
G01*
X112525000Y-99837500D01*
G75*
G02*
X112762500Y-99600000I237500J0D01*
G01*
X113237500Y-99600000D01*
G75*
G02*
X113475000Y-99837500I0J-237500D01*
G01*
X113475000Y-100437500D01*
G75*
G02*
X113237500Y-100675000I-237500J0D01*
G01*
G37*
%TD*%
%TO.C,C5*%
G36*
G01*
X102525000Y-73200000D02*
X103475000Y-73200000D01*
G75*
G02*
X103725000Y-73450000I0J-250000D01*
G01*
X103725000Y-74125000D01*
G75*
G02*
X103475000Y-74375000I-250000J0D01*
G01*
X102525000Y-74375000D01*
G75*
G02*
X102275000Y-74125000I0J250000D01*
G01*
X102275000Y-73450000D01*
G75*
G02*
X102525000Y-73200000I250000J0D01*
G01*
G37*
G36*
G01*
X102525000Y-71125000D02*
X103475000Y-71125000D01*
G75*
G02*
X103725000Y-71375000I0J-250000D01*
G01*
X103725000Y-72050000D01*
G75*
G02*
X103475000Y-72300000I-250000J0D01*
G01*
X102525000Y-72300000D01*
G75*
G02*
X102275000Y-72050000I0J250000D01*
G01*
X102275000Y-71375000D01*
G75*
G02*
X102525000Y-71125000I250000J0D01*
G01*
G37*
%TD*%
%TO.C,C6*%
G36*
G01*
X105062500Y-73075000D02*
X105537500Y-73075000D01*
G75*
G02*
X105775000Y-73312500I0J-237500D01*
G01*
X105775000Y-73912500D01*
G75*
G02*
X105537500Y-74150000I-237500J0D01*
G01*
X105062500Y-74150000D01*
G75*
G02*
X104825000Y-73912500I0J237500D01*
G01*
X104825000Y-73312500D01*
G75*
G02*
X105062500Y-73075000I237500J0D01*
G01*
G37*
G36*
G01*
X105062500Y-71350000D02*
X105537500Y-71350000D01*
G75*
G02*
X105775000Y-71587500I0J-237500D01*
G01*
X105775000Y-72187500D01*
G75*
G02*
X105537500Y-72425000I-237500J0D01*
G01*
X105062500Y-72425000D01*
G75*
G02*
X104825000Y-72187500I0J237500D01*
G01*
X104825000Y-71587500D01*
G75*
G02*
X105062500Y-71350000I237500J0D01*
G01*
G37*
%TD*%
%TO.C,C7*%
G36*
G01*
X109162500Y-77375000D02*
X109637500Y-77375000D01*
G75*
G02*
X109875000Y-77612500I0J-237500D01*
G01*
X109875000Y-78212500D01*
G75*
G02*
X109637500Y-78450000I-237500J0D01*
G01*
X109162500Y-78450000D01*
G75*
G02*
X108925000Y-78212500I0J237500D01*
G01*
X108925000Y-77612500D01*
G75*
G02*
X109162500Y-77375000I237500J0D01*
G01*
G37*
G36*
G01*
X109162500Y-75650000D02*
X109637500Y-75650000D01*
G75*
G02*
X109875000Y-75887500I0J-237500D01*
G01*
X109875000Y-76487500D01*
G75*
G02*
X109637500Y-76725000I-237500J0D01*
G01*
X109162500Y-76725000D01*
G75*
G02*
X108925000Y-76487500I0J237500D01*
G01*
X108925000Y-75887500D01*
G75*
G02*
X109162500Y-75650000I237500J0D01*
G01*
G37*
%TD*%
%TO.C,C8*%
G36*
G01*
X116999997Y-65400000D02*
X119200003Y-65400000D01*
G75*
G02*
X119450000Y-65649997I0J-249997D01*
G01*
X119450000Y-66475003D01*
G75*
G02*
X119200003Y-66725000I-249997J0D01*
G01*
X116999997Y-66725000D01*
G75*
G02*
X116750000Y-66475003I0J249997D01*
G01*
X116750000Y-65649997D01*
G75*
G02*
X116999997Y-65400000I249997J0D01*
G01*
G37*
G36*
G01*
X116999997Y-62275000D02*
X119200003Y-62275000D01*
G75*
G02*
X119450000Y-62524997I0J-249997D01*
G01*
X119450000Y-63350003D01*
G75*
G02*
X119200003Y-63600000I-249997J0D01*
G01*
X116999997Y-63600000D01*
G75*
G02*
X116750000Y-63350003I0J249997D01*
G01*
X116750000Y-62524997D01*
G75*
G02*
X116999997Y-62275000I249997J0D01*
G01*
G37*
%TD*%
%TO.C,C9*%
G36*
G01*
X96149997Y-70775000D02*
X98350003Y-70775000D01*
G75*
G02*
X98600000Y-71024997I0J-249997D01*
G01*
X98600000Y-71850003D01*
G75*
G02*
X98350003Y-72100000I-249997J0D01*
G01*
X96149997Y-72100000D01*
G75*
G02*
X95900000Y-71850003I0J249997D01*
G01*
X95900000Y-71024997D01*
G75*
G02*
X96149997Y-70775000I249997J0D01*
G01*
G37*
G36*
G01*
X96149997Y-73900000D02*
X98350003Y-73900000D01*
G75*
G02*
X98600000Y-74149997I0J-249997D01*
G01*
X98600000Y-74975003D01*
G75*
G02*
X98350003Y-75225000I-249997J0D01*
G01*
X96149997Y-75225000D01*
G75*
G02*
X95900000Y-74975003I0J249997D01*
G01*
X95900000Y-74149997D01*
G75*
G02*
X96149997Y-73900000I249997J0D01*
G01*
G37*
%TD*%
%TO.C,C10*%
G36*
G01*
X122575000Y-61025000D02*
X122575000Y-60075000D01*
G75*
G02*
X122825000Y-59825000I250000J0D01*
G01*
X123500000Y-59825000D01*
G75*
G02*
X123750000Y-60075000I0J-250000D01*
G01*
X123750000Y-61025000D01*
G75*
G02*
X123500000Y-61275000I-250000J0D01*
G01*
X122825000Y-61275000D01*
G75*
G02*
X122575000Y-61025000I0J250000D01*
G01*
G37*
G36*
G01*
X124650000Y-61025000D02*
X124650000Y-60075000D01*
G75*
G02*
X124900000Y-59825000I250000J0D01*
G01*
X125575000Y-59825000D01*
G75*
G02*
X125825000Y-60075000I0J-250000D01*
G01*
X125825000Y-61025000D01*
G75*
G02*
X125575000Y-61275000I-250000J0D01*
G01*
X124900000Y-61275000D01*
G75*
G02*
X124650000Y-61025000I0J250000D01*
G01*
G37*
%TD*%
%TO.C,C11*%
G36*
G01*
X122900000Y-58687500D02*
X122900000Y-58212500D01*
G75*
G02*
X123137500Y-57975000I237500J0D01*
G01*
X123737500Y-57975000D01*
G75*
G02*
X123975000Y-58212500I0J-237500D01*
G01*
X123975000Y-58687500D01*
G75*
G02*
X123737500Y-58925000I-237500J0D01*
G01*
X123137500Y-58925000D01*
G75*
G02*
X122900000Y-58687500I0J237500D01*
G01*
G37*
G36*
G01*
X124625000Y-58687500D02*
X124625000Y-58212500D01*
G75*
G02*
X124862500Y-57975000I237500J0D01*
G01*
X125462500Y-57975000D01*
G75*
G02*
X125700000Y-58212500I0J-237500D01*
G01*
X125700000Y-58687500D01*
G75*
G02*
X125462500Y-58925000I-237500J0D01*
G01*
X124862500Y-58925000D01*
G75*
G02*
X124625000Y-58687500I0J237500D01*
G01*
G37*
%TD*%
%TO.C,C12*%
G36*
G01*
X94600000Y-103737500D02*
X94600000Y-103262500D01*
G75*
G02*
X94837500Y-103025000I237500J0D01*
G01*
X95437500Y-103025000D01*
G75*
G02*
X95675000Y-103262500I0J-237500D01*
G01*
X95675000Y-103737500D01*
G75*
G02*
X95437500Y-103975000I-237500J0D01*
G01*
X94837500Y-103975000D01*
G75*
G02*
X94600000Y-103737500I0J237500D01*
G01*
G37*
G36*
G01*
X96325000Y-103737500D02*
X96325000Y-103262500D01*
G75*
G02*
X96562500Y-103025000I237500J0D01*
G01*
X97162500Y-103025000D01*
G75*
G02*
X97400000Y-103262500I0J-237500D01*
G01*
X97400000Y-103737500D01*
G75*
G02*
X97162500Y-103975000I-237500J0D01*
G01*
X96562500Y-103975000D01*
G75*
G02*
X96325000Y-103737500I0J237500D01*
G01*
G37*
%TD*%
%TO.C,C13*%
G36*
G01*
X115562500Y-85225000D02*
X116037500Y-85225000D01*
G75*
G02*
X116275000Y-85462500I0J-237500D01*
G01*
X116275000Y-86062500D01*
G75*
G02*
X116037500Y-86300000I-237500J0D01*
G01*
X115562500Y-86300000D01*
G75*
G02*
X115325000Y-86062500I0J237500D01*
G01*
X115325000Y-85462500D01*
G75*
G02*
X115562500Y-85225000I237500J0D01*
G01*
G37*
G36*
G01*
X115562500Y-83500000D02*
X116037500Y-83500000D01*
G75*
G02*
X116275000Y-83737500I0J-237500D01*
G01*
X116275000Y-84337500D01*
G75*
G02*
X116037500Y-84575000I-237500J0D01*
G01*
X115562500Y-84575000D01*
G75*
G02*
X115325000Y-84337500I0J237500D01*
G01*
X115325000Y-83737500D01*
G75*
G02*
X115562500Y-83500000I237500J0D01*
G01*
G37*
%TD*%
%TO.C,C14*%
G36*
G01*
X95762500Y-88100000D02*
X96237500Y-88100000D01*
G75*
G02*
X96475000Y-88337500I0J-237500D01*
G01*
X96475000Y-88937500D01*
G75*
G02*
X96237500Y-89175000I-237500J0D01*
G01*
X95762500Y-89175000D01*
G75*
G02*
X95525000Y-88937500I0J237500D01*
G01*
X95525000Y-88337500D01*
G75*
G02*
X95762500Y-88100000I237500J0D01*
G01*
G37*
G36*
G01*
X95762500Y-89825000D02*
X96237500Y-89825000D01*
G75*
G02*
X96475000Y-90062500I0J-237500D01*
G01*
X96475000Y-90662500D01*
G75*
G02*
X96237500Y-90900000I-237500J0D01*
G01*
X95762500Y-90900000D01*
G75*
G02*
X95525000Y-90662500I0J237500D01*
G01*
X95525000Y-90062500D01*
G75*
G02*
X95762500Y-89825000I237500J0D01*
G01*
G37*
%TD*%
%TO.C,D1*%
G36*
G01*
X77300000Y-62625000D02*
X77300000Y-61375000D01*
G75*
G02*
X77550000Y-61125000I250000J0D01*
G01*
X78475000Y-61125000D01*
G75*
G02*
X78725000Y-61375000I0J-250000D01*
G01*
X78725000Y-62625000D01*
G75*
G02*
X78475000Y-62875000I-250000J0D01*
G01*
X77550000Y-62875000D01*
G75*
G02*
X77300000Y-62625000I0J250000D01*
G01*
G37*
G36*
G01*
X80275000Y-62625000D02*
X80275000Y-61375000D01*
G75*
G02*
X80525000Y-61125000I250000J0D01*
G01*
X81450000Y-61125000D01*
G75*
G02*
X81700000Y-61375000I0J-250000D01*
G01*
X81700000Y-62625000D01*
G75*
G02*
X81450000Y-62875000I-250000J0D01*
G01*
X80525000Y-62875000D01*
G75*
G02*
X80275000Y-62625000I0J250000D01*
G01*
G37*
%TD*%
%TO.C,D2*%
G36*
G01*
X75475000Y-81425000D02*
X76725000Y-81425000D01*
G75*
G02*
X76975000Y-81675000I0J-250000D01*
G01*
X76975000Y-82600000D01*
G75*
G02*
X76725000Y-82850000I-250000J0D01*
G01*
X75475000Y-82850000D01*
G75*
G02*
X75225000Y-82600000I0J250000D01*
G01*
X75225000Y-81675000D01*
G75*
G02*
X75475000Y-81425000I250000J0D01*
G01*
G37*
G36*
G01*
X75475000Y-78450000D02*
X76725000Y-78450000D01*
G75*
G02*
X76975000Y-78700000I0J-250000D01*
G01*
X76975000Y-79625000D01*
G75*
G02*
X76725000Y-79875000I-250000J0D01*
G01*
X75475000Y-79875000D01*
G75*
G02*
X75225000Y-79625000I0J250000D01*
G01*
X75225000Y-78700000D01*
G75*
G02*
X75475000Y-78450000I250000J0D01*
G01*
G37*
%TD*%
D16*
%TO.C,D3*%
X83900000Y-80650000D03*
X85800000Y-80650000D03*
X84850000Y-78650000D03*
%TD*%
D17*
%TO.C,J3*%
X130600000Y-62860000D03*
D18*
X130600000Y-65400000D03*
%TD*%
D19*
%TO.C,Q1*%
X106000000Y-88950000D03*
X106000000Y-87050000D03*
X103000000Y-88000000D03*
%TD*%
%TO.C,R1*%
G36*
G01*
X83300000Y-62625001D02*
X83300000Y-61374999D01*
G75*
G02*
X83549999Y-61125000I249999J0D01*
G01*
X84350001Y-61125000D01*
G75*
G02*
X84600000Y-61374999I0J-249999D01*
G01*
X84600000Y-62625001D01*
G75*
G02*
X84350001Y-62875000I-249999J0D01*
G01*
X83549999Y-62875000D01*
G75*
G02*
X83300000Y-62625001I0J249999D01*
G01*
G37*
G36*
G01*
X86400000Y-62625001D02*
X86400000Y-61374999D01*
G75*
G02*
X86649999Y-61125000I249999J0D01*
G01*
X87450001Y-61125000D01*
G75*
G02*
X87700000Y-61374999I0J-249999D01*
G01*
X87700000Y-62625001D01*
G75*
G02*
X87450001Y-62875000I-249999J0D01*
G01*
X86649999Y-62875000D01*
G75*
G02*
X86400000Y-62625001I0J249999D01*
G01*
G37*
%TD*%
%TO.C,R2*%
G36*
G01*
X106150000Y-91374999D02*
X106150000Y-92625001D01*
G75*
G02*
X105900001Y-92875000I-249999J0D01*
G01*
X105099999Y-92875000D01*
G75*
G02*
X104850000Y-92625001I0J249999D01*
G01*
X104850000Y-91374999D01*
G75*
G02*
X105099999Y-91125000I249999J0D01*
G01*
X105900001Y-91125000D01*
G75*
G02*
X106150000Y-91374999I0J-249999D01*
G01*
G37*
G36*
G01*
X103050000Y-91374999D02*
X103050000Y-92625001D01*
G75*
G02*
X102800001Y-92875000I-249999J0D01*
G01*
X101999999Y-92875000D01*
G75*
G02*
X101750000Y-92625001I0J249999D01*
G01*
X101750000Y-91374999D01*
G75*
G02*
X101999999Y-91125000I249999J0D01*
G01*
X102800001Y-91125000D01*
G75*
G02*
X103050000Y-91374999I0J-249999D01*
G01*
G37*
%TD*%
%TO.C,R3*%
G36*
G01*
X97100000Y-82975001D02*
X97100000Y-81724999D01*
G75*
G02*
X97349999Y-81475000I249999J0D01*
G01*
X98150001Y-81475000D01*
G75*
G02*
X98400000Y-81724999I0J-249999D01*
G01*
X98400000Y-82975001D01*
G75*
G02*
X98150001Y-83225000I-249999J0D01*
G01*
X97349999Y-83225000D01*
G75*
G02*
X97100000Y-82975001I0J249999D01*
G01*
G37*
G36*
G01*
X100200000Y-82975001D02*
X100200000Y-81724999D01*
G75*
G02*
X100449999Y-81475000I249999J0D01*
G01*
X101250001Y-81475000D01*
G75*
G02*
X101500000Y-81724999I0J-249999D01*
G01*
X101500000Y-82975001D01*
G75*
G02*
X101250001Y-83225000I-249999J0D01*
G01*
X100449999Y-83225000D01*
G75*
G02*
X100200000Y-82975001I0J249999D01*
G01*
G37*
%TD*%
%TO.C,R4*%
G36*
G01*
X110600000Y-81075001D02*
X110600000Y-79824999D01*
G75*
G02*
X110849999Y-79575000I249999J0D01*
G01*
X111650001Y-79575000D01*
G75*
G02*
X111900000Y-79824999I0J-249999D01*
G01*
X111900000Y-81075001D01*
G75*
G02*
X111650001Y-81325000I-249999J0D01*
G01*
X110849999Y-81325000D01*
G75*
G02*
X110600000Y-81075001I0J249999D01*
G01*
G37*
G36*
G01*
X107500000Y-81075001D02*
X107500000Y-79824999D01*
G75*
G02*
X107749999Y-79575000I249999J0D01*
G01*
X108550001Y-79575000D01*
G75*
G02*
X108800000Y-79824999I0J-249999D01*
G01*
X108800000Y-81075001D01*
G75*
G02*
X108550001Y-81325000I-249999J0D01*
G01*
X107749999Y-81325000D01*
G75*
G02*
X107500000Y-81075001I0J249999D01*
G01*
G37*
%TD*%
%TO.C,R5*%
G36*
G01*
X78300000Y-80125001D02*
X78300000Y-78874999D01*
G75*
G02*
X78549999Y-78625000I249999J0D01*
G01*
X79350001Y-78625000D01*
G75*
G02*
X79600000Y-78874999I0J-249999D01*
G01*
X79600000Y-80125001D01*
G75*
G02*
X79350001Y-80375000I-249999J0D01*
G01*
X78549999Y-80375000D01*
G75*
G02*
X78300000Y-80125001I0J249999D01*
G01*
G37*
G36*
G01*
X81400000Y-80125001D02*
X81400000Y-78874999D01*
G75*
G02*
X81649999Y-78625000I249999J0D01*
G01*
X82450001Y-78625000D01*
G75*
G02*
X82700000Y-78874999I0J-249999D01*
G01*
X82700000Y-80125001D01*
G75*
G02*
X82450001Y-80375000I-249999J0D01*
G01*
X81649999Y-80375000D01*
G75*
G02*
X81400000Y-80125001I0J249999D01*
G01*
G37*
%TD*%
%TO.C,R6*%
G36*
G01*
X79600000Y-81374999D02*
X79600000Y-82625001D01*
G75*
G02*
X79350001Y-82875000I-249999J0D01*
G01*
X78549999Y-82875000D01*
G75*
G02*
X78300000Y-82625001I0J249999D01*
G01*
X78300000Y-81374999D01*
G75*
G02*
X78549999Y-81125000I249999J0D01*
G01*
X79350001Y-81125000D01*
G75*
G02*
X79600000Y-81374999I0J-249999D01*
G01*
G37*
G36*
G01*
X82700000Y-81374999D02*
X82700000Y-82625001D01*
G75*
G02*
X82450001Y-82875000I-249999J0D01*
G01*
X81649999Y-82875000D01*
G75*
G02*
X81400000Y-82625001I0J249999D01*
G01*
X81400000Y-81374999D01*
G75*
G02*
X81649999Y-81125000I249999J0D01*
G01*
X82450001Y-81125000D01*
G75*
G02*
X82700000Y-81374999I0J-249999D01*
G01*
G37*
%TD*%
%TO.C,R7*%
G36*
G01*
X99424999Y-59900000D02*
X101575001Y-59900000D01*
G75*
G02*
X101825000Y-60149999I0J-249999D01*
G01*
X101825000Y-61050001D01*
G75*
G02*
X101575001Y-61300000I-249999J0D01*
G01*
X99424999Y-61300000D01*
G75*
G02*
X99175000Y-61050001I0J249999D01*
G01*
X99175000Y-60149999D01*
G75*
G02*
X99424999Y-59900000I249999J0D01*
G01*
G37*
G36*
G01*
X99424999Y-64700000D02*
X101575001Y-64700000D01*
G75*
G02*
X101825000Y-64949999I0J-249999D01*
G01*
X101825000Y-65850001D01*
G75*
G02*
X101575001Y-66100000I-249999J0D01*
G01*
X99424999Y-66100000D01*
G75*
G02*
X99175000Y-65850001I0J249999D01*
G01*
X99175000Y-64949999D01*
G75*
G02*
X99424999Y-64700000I249999J0D01*
G01*
G37*
%TD*%
%TO.C,R8*%
G36*
G01*
X100200000Y-79875001D02*
X100200000Y-78624999D01*
G75*
G02*
X100449999Y-78375000I249999J0D01*
G01*
X101250001Y-78375000D01*
G75*
G02*
X101500000Y-78624999I0J-249999D01*
G01*
X101500000Y-79875001D01*
G75*
G02*
X101250001Y-80125000I-249999J0D01*
G01*
X100449999Y-80125000D01*
G75*
G02*
X100200000Y-79875001I0J249999D01*
G01*
G37*
G36*
G01*
X97100000Y-79875001D02*
X97100000Y-78624999D01*
G75*
G02*
X97349999Y-78375000I249999J0D01*
G01*
X98150001Y-78375000D01*
G75*
G02*
X98400000Y-78624999I0J-249999D01*
G01*
X98400000Y-79875001D01*
G75*
G02*
X98150001Y-80125000I-249999J0D01*
G01*
X97349999Y-80125000D01*
G75*
G02*
X97100000Y-79875001I0J249999D01*
G01*
G37*
%TD*%
%TO.C,R9*%
G36*
G01*
X102774999Y-79150000D02*
X104025001Y-79150000D01*
G75*
G02*
X104275000Y-79399999I0J-249999D01*
G01*
X104275000Y-80200001D01*
G75*
G02*
X104025001Y-80450000I-249999J0D01*
G01*
X102774999Y-80450000D01*
G75*
G02*
X102525000Y-80200001I0J249999D01*
G01*
X102525000Y-79399999D01*
G75*
G02*
X102774999Y-79150000I249999J0D01*
G01*
G37*
G36*
G01*
X102774999Y-82250000D02*
X104025001Y-82250000D01*
G75*
G02*
X104275000Y-82499999I0J-249999D01*
G01*
X104275000Y-83300001D01*
G75*
G02*
X104025001Y-83550000I-249999J0D01*
G01*
X102774999Y-83550000D01*
G75*
G02*
X102525000Y-83300001I0J249999D01*
G01*
X102525000Y-82499999D01*
G75*
G02*
X102774999Y-82250000I249999J0D01*
G01*
G37*
%TD*%
%TO.C,R10*%
G36*
G01*
X88200000Y-100374999D02*
X88200000Y-101625001D01*
G75*
G02*
X87950001Y-101875000I-249999J0D01*
G01*
X87149999Y-101875000D01*
G75*
G02*
X86900000Y-101625001I0J249999D01*
G01*
X86900000Y-100374999D01*
G75*
G02*
X87149999Y-100125000I249999J0D01*
G01*
X87950001Y-100125000D01*
G75*
G02*
X88200000Y-100374999I0J-249999D01*
G01*
G37*
G36*
G01*
X85100000Y-100374999D02*
X85100000Y-101625001D01*
G75*
G02*
X84850001Y-101875000I-249999J0D01*
G01*
X84049999Y-101875000D01*
G75*
G02*
X83800000Y-101625001I0J249999D01*
G01*
X83800000Y-100374999D01*
G75*
G02*
X84049999Y-100125000I249999J0D01*
G01*
X84850001Y-100125000D01*
G75*
G02*
X85100000Y-100374999I0J-249999D01*
G01*
G37*
%TD*%
%TO.C,R15*%
G36*
G01*
X123625001Y-66650000D02*
X122374999Y-66650000D01*
G75*
G02*
X122125000Y-66400001I0J249999D01*
G01*
X122125000Y-65599999D01*
G75*
G02*
X122374999Y-65350000I249999J0D01*
G01*
X123625001Y-65350000D01*
G75*
G02*
X123875000Y-65599999I0J-249999D01*
G01*
X123875000Y-66400001D01*
G75*
G02*
X123625001Y-66650000I-249999J0D01*
G01*
G37*
G36*
G01*
X123625001Y-63550000D02*
X122374999Y-63550000D01*
G75*
G02*
X122125000Y-63300001I0J249999D01*
G01*
X122125000Y-62499999D01*
G75*
G02*
X122374999Y-62250000I249999J0D01*
G01*
X123625001Y-62250000D01*
G75*
G02*
X123875000Y-62499999I0J-249999D01*
G01*
X123875000Y-63300001D01*
G75*
G02*
X123625001Y-63550000I-249999J0D01*
G01*
G37*
%TD*%
%TO.C,R16*%
G36*
G01*
X121525001Y-98700000D02*
X120274999Y-98700000D01*
G75*
G02*
X120025000Y-98450001I0J249999D01*
G01*
X120025000Y-97649999D01*
G75*
G02*
X120274999Y-97400000I249999J0D01*
G01*
X121525001Y-97400000D01*
G75*
G02*
X121775000Y-97649999I0J-249999D01*
G01*
X121775000Y-98450001D01*
G75*
G02*
X121525001Y-98700000I-249999J0D01*
G01*
G37*
G36*
G01*
X121525001Y-101800000D02*
X120274999Y-101800000D01*
G75*
G02*
X120025000Y-101550001I0J249999D01*
G01*
X120025000Y-100749999D01*
G75*
G02*
X120274999Y-100500000I249999J0D01*
G01*
X121525001Y-100500000D01*
G75*
G02*
X121775000Y-100749999I0J-249999D01*
G01*
X121775000Y-101550001D01*
G75*
G02*
X121525001Y-101800000I-249999J0D01*
G01*
G37*
%TD*%
%TO.C,R17*%
G36*
G01*
X105174999Y-82250000D02*
X106425001Y-82250000D01*
G75*
G02*
X106675000Y-82499999I0J-249999D01*
G01*
X106675000Y-83300001D01*
G75*
G02*
X106425001Y-83550000I-249999J0D01*
G01*
X105174999Y-83550000D01*
G75*
G02*
X104925000Y-83300001I0J249999D01*
G01*
X104925000Y-82499999D01*
G75*
G02*
X105174999Y-82250000I249999J0D01*
G01*
G37*
G36*
G01*
X105174999Y-79150000D02*
X106425001Y-79150000D01*
G75*
G02*
X106675000Y-79399999I0J-249999D01*
G01*
X106675000Y-80200001D01*
G75*
G02*
X106425001Y-80450000I-249999J0D01*
G01*
X105174999Y-80450000D01*
G75*
G02*
X104925000Y-80200001I0J249999D01*
G01*
X104925000Y-79399999D01*
G75*
G02*
X105174999Y-79150000I249999J0D01*
G01*
G37*
%TD*%
D17*
%TO.C,SW1*%
X84420000Y-104500000D03*
X86960000Y-104500000D03*
D18*
X89500000Y-104500000D03*
%TD*%
D20*
%TO.C,TP1*%
X90250000Y-62750000D03*
%TD*%
%TO.C,TP3*%
X72000000Y-81000000D03*
%TD*%
%TO.C,TP4*%
X93250000Y-85750000D03*
%TD*%
%TO.C,TP6*%
X95800000Y-62400000D03*
%TD*%
%TO.C,TP7*%
X135100000Y-65400000D03*
%TD*%
D21*
%TO.C,U1*%
X99000000Y-90000000D03*
X98050000Y-87000000D03*
X99950000Y-87000000D03*
%TD*%
%TO.C,U3*%
G36*
G01*
X95000000Y-101160000D02*
X95000000Y-101460000D01*
G75*
G02*
X94850000Y-101610000I-150000J0D01*
G01*
X93200000Y-101610000D01*
G75*
G02*
X93050000Y-101460000I0J150000D01*
G01*
X93050000Y-101160000D01*
G75*
G02*
X93200000Y-101010000I150000J0D01*
G01*
X94850000Y-101010000D01*
G75*
G02*
X95000000Y-101160000I0J-150000D01*
G01*
G37*
G36*
G01*
X95000000Y-99890000D02*
X95000000Y-100190000D01*
G75*
G02*
X94850000Y-100340000I-150000J0D01*
G01*
X93200000Y-100340000D01*
G75*
G02*
X93050000Y-100190000I0J150000D01*
G01*
X93050000Y-99890000D01*
G75*
G02*
X93200000Y-99740000I150000J0D01*
G01*
X94850000Y-99740000D01*
G75*
G02*
X95000000Y-99890000I0J-150000D01*
G01*
G37*
G36*
G01*
X95000000Y-98620000D02*
X95000000Y-98920000D01*
G75*
G02*
X94850000Y-99070000I-150000J0D01*
G01*
X93200000Y-99070000D01*
G75*
G02*
X93050000Y-98920000I0J150000D01*
G01*
X93050000Y-98620000D01*
G75*
G02*
X93200000Y-98470000I150000J0D01*
G01*
X94850000Y-98470000D01*
G75*
G02*
X95000000Y-98620000I0J-150000D01*
G01*
G37*
G36*
G01*
X95000000Y-97350000D02*
X95000000Y-97650000D01*
G75*
G02*
X94850000Y-97800000I-150000J0D01*
G01*
X93200000Y-97800000D01*
G75*
G02*
X93050000Y-97650000I0J150000D01*
G01*
X93050000Y-97350000D01*
G75*
G02*
X93200000Y-97200000I150000J0D01*
G01*
X94850000Y-97200000D01*
G75*
G02*
X95000000Y-97350000I0J-150000D01*
G01*
G37*
G36*
G01*
X95000000Y-96080000D02*
X95000000Y-96380000D01*
G75*
G02*
X94850000Y-96530000I-150000J0D01*
G01*
X93200000Y-96530000D01*
G75*
G02*
X93050000Y-96380000I0J150000D01*
G01*
X93050000Y-96080000D01*
G75*
G02*
X93200000Y-95930000I150000J0D01*
G01*
X94850000Y-95930000D01*
G75*
G02*
X95000000Y-96080000I0J-150000D01*
G01*
G37*
G36*
G01*
X95000000Y-94810000D02*
X95000000Y-95110000D01*
G75*
G02*
X94850000Y-95260000I-150000J0D01*
G01*
X93200000Y-95260000D01*
G75*
G02*
X93050000Y-95110000I0J150000D01*
G01*
X93050000Y-94810000D01*
G75*
G02*
X93200000Y-94660000I150000J0D01*
G01*
X94850000Y-94660000D01*
G75*
G02*
X95000000Y-94810000I0J-150000D01*
G01*
G37*
G36*
G01*
X95000000Y-93540000D02*
X95000000Y-93840000D01*
G75*
G02*
X94850000Y-93990000I-150000J0D01*
G01*
X93200000Y-93990000D01*
G75*
G02*
X93050000Y-93840000I0J150000D01*
G01*
X93050000Y-93540000D01*
G75*
G02*
X93200000Y-93390000I150000J0D01*
G01*
X94850000Y-93390000D01*
G75*
G02*
X95000000Y-93540000I0J-150000D01*
G01*
G37*
G36*
G01*
X99950000Y-93540000D02*
X99950000Y-93840000D01*
G75*
G02*
X99800000Y-93990000I-150000J0D01*
G01*
X98150000Y-93990000D01*
G75*
G02*
X98000000Y-93840000I0J150000D01*
G01*
X98000000Y-93540000D01*
G75*
G02*
X98150000Y-93390000I150000J0D01*
G01*
X99800000Y-93390000D01*
G75*
G02*
X99950000Y-93540000I0J-150000D01*
G01*
G37*
G36*
G01*
X99950000Y-94810000D02*
X99950000Y-95110000D01*
G75*
G02*
X99800000Y-95260000I-150000J0D01*
G01*
X98150000Y-95260000D01*
G75*
G02*
X98000000Y-95110000I0J150000D01*
G01*
X98000000Y-94810000D01*
G75*
G02*
X98150000Y-94660000I150000J0D01*
G01*
X99800000Y-94660000D01*
G75*
G02*
X99950000Y-94810000I0J-150000D01*
G01*
G37*
G36*
G01*
X99950000Y-96080000D02*
X99950000Y-96380000D01*
G75*
G02*
X99800000Y-96530000I-150000J0D01*
G01*
X98150000Y-96530000D01*
G75*
G02*
X98000000Y-96380000I0J150000D01*
G01*
X98000000Y-96080000D01*
G75*
G02*
X98150000Y-95930000I150000J0D01*
G01*
X99800000Y-95930000D01*
G75*
G02*
X99950000Y-96080000I0J-150000D01*
G01*
G37*
G36*
G01*
X99950000Y-97350000D02*
X99950000Y-97650000D01*
G75*
G02*
X99800000Y-97800000I-150000J0D01*
G01*
X98150000Y-97800000D01*
G75*
G02*
X98000000Y-97650000I0J150000D01*
G01*
X98000000Y-97350000D01*
G75*
G02*
X98150000Y-97200000I150000J0D01*
G01*
X99800000Y-97200000D01*
G75*
G02*
X99950000Y-97350000I0J-150000D01*
G01*
G37*
G36*
G01*
X99950000Y-98620000D02*
X99950000Y-98920000D01*
G75*
G02*
X99800000Y-99070000I-150000J0D01*
G01*
X98150000Y-99070000D01*
G75*
G02*
X98000000Y-98920000I0J150000D01*
G01*
X98000000Y-98620000D01*
G75*
G02*
X98150000Y-98470000I150000J0D01*
G01*
X99800000Y-98470000D01*
G75*
G02*
X99950000Y-98620000I0J-150000D01*
G01*
G37*
G36*
G01*
X99950000Y-99890000D02*
X99950000Y-100190000D01*
G75*
G02*
X99800000Y-100340000I-150000J0D01*
G01*
X98150000Y-100340000D01*
G75*
G02*
X98000000Y-100190000I0J150000D01*
G01*
X98000000Y-99890000D01*
G75*
G02*
X98150000Y-99740000I150000J0D01*
G01*
X99800000Y-99740000D01*
G75*
G02*
X99950000Y-99890000I0J-150000D01*
G01*
G37*
G36*
G01*
X99950000Y-101160000D02*
X99950000Y-101460000D01*
G75*
G02*
X99800000Y-101610000I-150000J0D01*
G01*
X98150000Y-101610000D01*
G75*
G02*
X98000000Y-101460000I0J150000D01*
G01*
X98000000Y-101160000D01*
G75*
G02*
X98150000Y-101010000I150000J0D01*
G01*
X99800000Y-101010000D01*
G75*
G02*
X99950000Y-101160000I0J-150000D01*
G01*
G37*
%TD*%
%TO.C,U4*%
G36*
G01*
X110660000Y-97050000D02*
X110960000Y-97050000D01*
G75*
G02*
X111110000Y-97200000I0J-150000D01*
G01*
X111110000Y-98850000D01*
G75*
G02*
X110960000Y-99000000I-150000J0D01*
G01*
X110660000Y-99000000D01*
G75*
G02*
X110510000Y-98850000I0J150000D01*
G01*
X110510000Y-97200000D01*
G75*
G02*
X110660000Y-97050000I150000J0D01*
G01*
G37*
G36*
G01*
X109390000Y-97050000D02*
X109690000Y-97050000D01*
G75*
G02*
X109840000Y-97200000I0J-150000D01*
G01*
X109840000Y-98850000D01*
G75*
G02*
X109690000Y-99000000I-150000J0D01*
G01*
X109390000Y-99000000D01*
G75*
G02*
X109240000Y-98850000I0J150000D01*
G01*
X109240000Y-97200000D01*
G75*
G02*
X109390000Y-97050000I150000J0D01*
G01*
G37*
G36*
G01*
X108120000Y-97050000D02*
X108420000Y-97050000D01*
G75*
G02*
X108570000Y-97200000I0J-150000D01*
G01*
X108570000Y-98850000D01*
G75*
G02*
X108420000Y-99000000I-150000J0D01*
G01*
X108120000Y-99000000D01*
G75*
G02*
X107970000Y-98850000I0J150000D01*
G01*
X107970000Y-97200000D01*
G75*
G02*
X108120000Y-97050000I150000J0D01*
G01*
G37*
G36*
G01*
X106850000Y-97050000D02*
X107150000Y-97050000D01*
G75*
G02*
X107300000Y-97200000I0J-150000D01*
G01*
X107300000Y-98850000D01*
G75*
G02*
X107150000Y-99000000I-150000J0D01*
G01*
X106850000Y-99000000D01*
G75*
G02*
X106700000Y-98850000I0J150000D01*
G01*
X106700000Y-97200000D01*
G75*
G02*
X106850000Y-97050000I150000J0D01*
G01*
G37*
G36*
G01*
X105580000Y-97050000D02*
X105880000Y-97050000D01*
G75*
G02*
X106030000Y-97200000I0J-150000D01*
G01*
X106030000Y-98850000D01*
G75*
G02*
X105880000Y-99000000I-150000J0D01*
G01*
X105580000Y-99000000D01*
G75*
G02*
X105430000Y-98850000I0J150000D01*
G01*
X105430000Y-97200000D01*
G75*
G02*
X105580000Y-97050000I150000J0D01*
G01*
G37*
G36*
G01*
X104310000Y-97050000D02*
X104610000Y-97050000D01*
G75*
G02*
X104760000Y-97200000I0J-150000D01*
G01*
X104760000Y-98850000D01*
G75*
G02*
X104610000Y-99000000I-150000J0D01*
G01*
X104310000Y-99000000D01*
G75*
G02*
X104160000Y-98850000I0J150000D01*
G01*
X104160000Y-97200000D01*
G75*
G02*
X104310000Y-97050000I150000J0D01*
G01*
G37*
G36*
G01*
X103040000Y-97050000D02*
X103340000Y-97050000D01*
G75*
G02*
X103490000Y-97200000I0J-150000D01*
G01*
X103490000Y-98850000D01*
G75*
G02*
X103340000Y-99000000I-150000J0D01*
G01*
X103040000Y-99000000D01*
G75*
G02*
X102890000Y-98850000I0J150000D01*
G01*
X102890000Y-97200000D01*
G75*
G02*
X103040000Y-97050000I150000J0D01*
G01*
G37*
G36*
G01*
X103040000Y-102000000D02*
X103340000Y-102000000D01*
G75*
G02*
X103490000Y-102150000I0J-150000D01*
G01*
X103490000Y-103800000D01*
G75*
G02*
X103340000Y-103950000I-150000J0D01*
G01*
X103040000Y-103950000D01*
G75*
G02*
X102890000Y-103800000I0J150000D01*
G01*
X102890000Y-102150000D01*
G75*
G02*
X103040000Y-102000000I150000J0D01*
G01*
G37*
G36*
G01*
X104310000Y-102000000D02*
X104610000Y-102000000D01*
G75*
G02*
X104760000Y-102150000I0J-150000D01*
G01*
X104760000Y-103800000D01*
G75*
G02*
X104610000Y-103950000I-150000J0D01*
G01*
X104310000Y-103950000D01*
G75*
G02*
X104160000Y-103800000I0J150000D01*
G01*
X104160000Y-102150000D01*
G75*
G02*
X104310000Y-102000000I150000J0D01*
G01*
G37*
G36*
G01*
X105580000Y-102000000D02*
X105880000Y-102000000D01*
G75*
G02*
X106030000Y-102150000I0J-150000D01*
G01*
X106030000Y-103800000D01*
G75*
G02*
X105880000Y-103950000I-150000J0D01*
G01*
X105580000Y-103950000D01*
G75*
G02*
X105430000Y-103800000I0J150000D01*
G01*
X105430000Y-102150000D01*
G75*
G02*
X105580000Y-102000000I150000J0D01*
G01*
G37*
G36*
G01*
X106850000Y-102000000D02*
X107150000Y-102000000D01*
G75*
G02*
X107300000Y-102150000I0J-150000D01*
G01*
X107300000Y-103800000D01*
G75*
G02*
X107150000Y-103950000I-150000J0D01*
G01*
X106850000Y-103950000D01*
G75*
G02*
X106700000Y-103800000I0J150000D01*
G01*
X106700000Y-102150000D01*
G75*
G02*
X106850000Y-102000000I150000J0D01*
G01*
G37*
G36*
G01*
X108120000Y-102000000D02*
X108420000Y-102000000D01*
G75*
G02*
X108570000Y-102150000I0J-150000D01*
G01*
X108570000Y-103800000D01*
G75*
G02*
X108420000Y-103950000I-150000J0D01*
G01*
X108120000Y-103950000D01*
G75*
G02*
X107970000Y-103800000I0J150000D01*
G01*
X107970000Y-102150000D01*
G75*
G02*
X108120000Y-102000000I150000J0D01*
G01*
G37*
G36*
G01*
X109390000Y-102000000D02*
X109690000Y-102000000D01*
G75*
G02*
X109840000Y-102150000I0J-150000D01*
G01*
X109840000Y-103800000D01*
G75*
G02*
X109690000Y-103950000I-150000J0D01*
G01*
X109390000Y-103950000D01*
G75*
G02*
X109240000Y-103800000I0J150000D01*
G01*
X109240000Y-102150000D01*
G75*
G02*
X109390000Y-102000000I150000J0D01*
G01*
G37*
G36*
G01*
X110660000Y-102000000D02*
X110960000Y-102000000D01*
G75*
G02*
X111110000Y-102150000I0J-150000D01*
G01*
X111110000Y-103800000D01*
G75*
G02*
X110960000Y-103950000I-150000J0D01*
G01*
X110660000Y-103950000D01*
G75*
G02*
X110510000Y-103800000I0J150000D01*
G01*
X110510000Y-102150000D01*
G75*
G02*
X110660000Y-102000000I150000J0D01*
G01*
G37*
%TD*%
D19*
%TO.C,U5*%
X108500000Y-93550000D03*
X108500000Y-95450000D03*
X111500000Y-94500000D03*
%TD*%
D22*
%TO.C,U6*%
X109350000Y-72050000D03*
X108400000Y-72050000D03*
X107450000Y-72050000D03*
X107450000Y-74250000D03*
X109350000Y-74250000D03*
X108400000Y-74250000D03*
%TD*%
D23*
%TO.C,U7*%
X131190000Y-74675000D03*
X128650000Y-74675000D03*
X126110000Y-74675000D03*
D24*
X128650000Y-83825000D03*
%TD*%
%TO.C,R18*%
G36*
G01*
X76625001Y-103200000D02*
X75374999Y-103200000D01*
G75*
G02*
X75125000Y-102950001I0J249999D01*
G01*
X75125000Y-102149999D01*
G75*
G02*
X75374999Y-101900000I249999J0D01*
G01*
X76625001Y-101900000D01*
G75*
G02*
X76875000Y-102149999I0J-249999D01*
G01*
X76875000Y-102950001D01*
G75*
G02*
X76625001Y-103200000I-249999J0D01*
G01*
G37*
G36*
G01*
X76625001Y-100100000D02*
X75374999Y-100100000D01*
G75*
G02*
X75125000Y-99850001I0J249999D01*
G01*
X75125000Y-99049999D01*
G75*
G02*
X75374999Y-98800000I249999J0D01*
G01*
X76625001Y-98800000D01*
G75*
G02*
X76875000Y-99049999I0J-249999D01*
G01*
X76875000Y-99850001D01*
G75*
G02*
X76625001Y-100100000I-249999J0D01*
G01*
G37*
%TD*%
%TO.C,D5*%
G36*
G01*
X79275000Y-105625000D02*
X79275000Y-104375000D01*
G75*
G02*
X79525000Y-104125000I250000J0D01*
G01*
X80450000Y-104125000D01*
G75*
G02*
X80700000Y-104375000I0J-250000D01*
G01*
X80700000Y-105625000D01*
G75*
G02*
X80450000Y-105875000I-250000J0D01*
G01*
X79525000Y-105875000D01*
G75*
G02*
X79275000Y-105625000I0J250000D01*
G01*
G37*
G36*
G01*
X76300000Y-105625000D02*
X76300000Y-104375000D01*
G75*
G02*
X76550000Y-104125000I250000J0D01*
G01*
X77475000Y-104125000D01*
G75*
G02*
X77725000Y-104375000I0J-250000D01*
G01*
X77725000Y-105625000D01*
G75*
G02*
X77475000Y-105875000I-250000J0D01*
G01*
X76550000Y-105875000D01*
G75*
G02*
X76300000Y-105625000I0J250000D01*
G01*
G37*
%TD*%
D20*
%TO.C,TP9*%
X120100000Y-104400000D03*
%TD*%
%TO.C,TP12*%
X125200000Y-104750000D03*
%TD*%
%TO.C,TP13*%
X125200000Y-98250000D03*
%TD*%
%TO.C,TP15*%
X125200000Y-101500000D03*
%TD*%
%TO.C,TP16*%
X138250000Y-67250000D03*
%TD*%
%TO.C,TP17*%
X88750000Y-97750000D03*
%TD*%
%TO.C,TP10*%
X135000000Y-60750000D03*
%TD*%
D25*
%TO.C,J2*%
X148000000Y-71380000D03*
X148000000Y-76460000D03*
X148000000Y-81540000D03*
X148000000Y-86620000D03*
%TD*%
%TO.C,Q2*%
G36*
G01*
X83450000Y-70755000D02*
X83450000Y-71055000D01*
G75*
G02*
X83300000Y-71205000I-150000J0D01*
G01*
X81850000Y-71205000D01*
G75*
G02*
X81700000Y-71055000I0J150000D01*
G01*
X81700000Y-70755000D01*
G75*
G02*
X81850000Y-70605000I150000J0D01*
G01*
X83300000Y-70605000D01*
G75*
G02*
X83450000Y-70755000I0J-150000D01*
G01*
G37*
G36*
G01*
X83450000Y-69485000D02*
X83450000Y-69785000D01*
G75*
G02*
X83300000Y-69935000I-150000J0D01*
G01*
X81850000Y-69935000D01*
G75*
G02*
X81700000Y-69785000I0J150000D01*
G01*
X81700000Y-69485000D01*
G75*
G02*
X81850000Y-69335000I150000J0D01*
G01*
X83300000Y-69335000D01*
G75*
G02*
X83450000Y-69485000I0J-150000D01*
G01*
G37*
G36*
G01*
X83450000Y-68215000D02*
X83450000Y-68515000D01*
G75*
G02*
X83300000Y-68665000I-150000J0D01*
G01*
X81850000Y-68665000D01*
G75*
G02*
X81700000Y-68515000I0J150000D01*
G01*
X81700000Y-68215000D01*
G75*
G02*
X81850000Y-68065000I150000J0D01*
G01*
X83300000Y-68065000D01*
G75*
G02*
X83450000Y-68215000I0J-150000D01*
G01*
G37*
G36*
G01*
X83450000Y-66945000D02*
X83450000Y-67245000D01*
G75*
G02*
X83300000Y-67395000I-150000J0D01*
G01*
X81850000Y-67395000D01*
G75*
G02*
X81700000Y-67245000I0J150000D01*
G01*
X81700000Y-66945000D01*
G75*
G02*
X81850000Y-66795000I150000J0D01*
G01*
X83300000Y-66795000D01*
G75*
G02*
X83450000Y-66945000I0J-150000D01*
G01*
G37*
G36*
G01*
X78300000Y-66945000D02*
X78300000Y-67245000D01*
G75*
G02*
X78150000Y-67395000I-150000J0D01*
G01*
X76700000Y-67395000D01*
G75*
G02*
X76550000Y-67245000I0J150000D01*
G01*
X76550000Y-66945000D01*
G75*
G02*
X76700000Y-66795000I150000J0D01*
G01*
X78150000Y-66795000D01*
G75*
G02*
X78300000Y-66945000I0J-150000D01*
G01*
G37*
G36*
G01*
X78300000Y-68215000D02*
X78300000Y-68515000D01*
G75*
G02*
X78150000Y-68665000I-150000J0D01*
G01*
X76700000Y-68665000D01*
G75*
G02*
X76550000Y-68515000I0J150000D01*
G01*
X76550000Y-68215000D01*
G75*
G02*
X76700000Y-68065000I150000J0D01*
G01*
X78150000Y-68065000D01*
G75*
G02*
X78300000Y-68215000I0J-150000D01*
G01*
G37*
G36*
G01*
X78300000Y-69485000D02*
X78300000Y-69785000D01*
G75*
G02*
X78150000Y-69935000I-150000J0D01*
G01*
X76700000Y-69935000D01*
G75*
G02*
X76550000Y-69785000I0J150000D01*
G01*
X76550000Y-69485000D01*
G75*
G02*
X76700000Y-69335000I150000J0D01*
G01*
X78150000Y-69335000D01*
G75*
G02*
X78300000Y-69485000I0J-150000D01*
G01*
G37*
G36*
G01*
X78300000Y-70755000D02*
X78300000Y-71055000D01*
G75*
G02*
X78150000Y-71205000I-150000J0D01*
G01*
X76700000Y-71205000D01*
G75*
G02*
X76550000Y-71055000I0J150000D01*
G01*
X76550000Y-70755000D01*
G75*
G02*
X76700000Y-70605000I150000J0D01*
G01*
X78150000Y-70605000D01*
G75*
G02*
X78300000Y-70755000I0J-150000D01*
G01*
G37*
%TD*%
%TO.C,C101*%
G36*
G01*
X116400000Y-90437500D02*
X116400000Y-89962500D01*
G75*
G02*
X116637500Y-89725000I237500J0D01*
G01*
X117237500Y-89725000D01*
G75*
G02*
X117475000Y-89962500I0J-237500D01*
G01*
X117475000Y-90437500D01*
G75*
G02*
X117237500Y-90675000I-237500J0D01*
G01*
X116637500Y-90675000D01*
G75*
G02*
X116400000Y-90437500I0J237500D01*
G01*
G37*
G36*
G01*
X118125000Y-90437500D02*
X118125000Y-89962500D01*
G75*
G02*
X118362500Y-89725000I237500J0D01*
G01*
X118962500Y-89725000D01*
G75*
G02*
X119200000Y-89962500I0J-237500D01*
G01*
X119200000Y-90437500D01*
G75*
G02*
X118962500Y-90675000I-237500J0D01*
G01*
X118362500Y-90675000D01*
G75*
G02*
X118125000Y-90437500I0J237500D01*
G01*
G37*
%TD*%
%TO.C,R101*%
G36*
G01*
X112775000Y-86400000D02*
X114025000Y-86400000D01*
G75*
G02*
X114275000Y-86650000I0J-250000D01*
G01*
X114275000Y-87450000D01*
G75*
G02*
X114025000Y-87700000I-250000J0D01*
G01*
X112775000Y-87700000D01*
G75*
G02*
X112525000Y-87450000I0J250000D01*
G01*
X112525000Y-86650000D01*
G75*
G02*
X112775000Y-86400000I250000J0D01*
G01*
G37*
G36*
G01*
X112775000Y-89500000D02*
X114025000Y-89500000D01*
G75*
G02*
X114275000Y-89750000I0J-250000D01*
G01*
X114275000Y-90550000D01*
G75*
G02*
X114025000Y-90800000I-250000J0D01*
G01*
X112775000Y-90800000D01*
G75*
G02*
X112525000Y-90550000I0J250000D01*
G01*
X112525000Y-89750000D01*
G75*
G02*
X112775000Y-89500000I250000J0D01*
G01*
G37*
%TD*%
D26*
%TO.C,U101*%
X117850000Y-86650000D03*
X118800000Y-86650000D03*
X119750000Y-86650000D03*
X119750000Y-83950000D03*
X117850000Y-83950000D03*
%TD*%
%TO.C,U102*%
X116450000Y-96050000D03*
X117400000Y-96050000D03*
X118350000Y-96050000D03*
X118350000Y-93350000D03*
X116450000Y-93350000D03*
%TD*%
D21*
%TO.C,D4*%
X117200000Y-98750000D03*
X115300000Y-98750000D03*
X116250000Y-101750000D03*
%TD*%
M02*
