%TF.GenerationSoftware,KiCad,Pcbnew,(5.1.8)-1*%
%TF.CreationDate,2021-03-05T14:15:40-05:00*%
%TF.ProjectId,BuckLinReg_5V,4275636b-4c69-46e5-9265-675f35562e6b,rev?*%
%TF.SameCoordinates,Original*%
%TF.FileFunction,Copper,L2,Bot*%
%TF.FilePolarity,Positive*%
%FSLAX46Y46*%
G04 Gerber Fmt 4.6, Leading zero omitted, Abs format (unit mm)*
G04 Created by KiCad (PCBNEW (5.1.8)-1) date 2021-03-05 14:15:40*
%MOMM*%
%LPD*%
G01*
G04 APERTURE LIST*
%TA.AperFunction,ComponentPad*%
%ADD10R,2.600000X2.600000*%
%TD*%
%TA.AperFunction,ComponentPad*%
%ADD11C,2.600000*%
%TD*%
%TA.AperFunction,ComponentPad*%
%ADD12C,6.000000*%
%TD*%
%TA.AperFunction,ComponentPad*%
%ADD13R,1.600000X1.600000*%
%TD*%
%TA.AperFunction,ComponentPad*%
%ADD14C,1.600000*%
%TD*%
%TA.AperFunction,ComponentPad*%
%ADD15O,1.700000X1.700000*%
%TD*%
%TA.AperFunction,ComponentPad*%
%ADD16R,1.700000X1.700000*%
%TD*%
%TA.AperFunction,ComponentPad*%
%ADD17C,2.000000*%
%TD*%
%TA.AperFunction,ComponentPad*%
%ADD18C,2.540000*%
%TD*%
%TA.AperFunction,ViaPad*%
%ADD19C,0.500000*%
%TD*%
%TA.AperFunction,ViaPad*%
%ADD20C,0.450000*%
%TD*%
%TA.AperFunction,Conductor*%
%ADD21C,0.500000*%
%TD*%
%TA.AperFunction,Conductor*%
%ADD22C,0.250000*%
%TD*%
%TA.AperFunction,Conductor*%
%ADD23C,0.150000*%
%TD*%
%TA.AperFunction,Conductor*%
%ADD24C,0.254000*%
%TD*%
G04 APERTURE END LIST*
D10*
%TO.P,J1,1*%
%TO.N,/Vin*%
X72500000Y-71250000D03*
D11*
%TO.P,J1,2*%
%TO.N,GNDPWR*%
X66500000Y-71250000D03*
%TO.P,J1,3*%
%TO.N,N/C*%
X69500000Y-75950000D03*
%TD*%
D12*
%TO.P,H1,1*%
%TO.N,GNDPWR*%
X61500000Y-55500000D03*
%TD*%
%TO.P,H2,1*%
%TO.N,GNDPWR*%
X61500000Y-104500000D03*
%TD*%
%TO.P,H3,1*%
%TO.N,GNDPWR*%
X150500000Y-104500000D03*
%TD*%
%TO.P,H4,1*%
%TO.N,GNDPWR*%
X150500000Y-55500000D03*
%TD*%
D13*
%TO.P,C1,1*%
%TO.N,/+Vin*%
X91800000Y-71550000D03*
D14*
%TO.P,C1,2*%
%TO.N,GNDPWR*%
X91800000Y-74050000D03*
%TD*%
D15*
%TO.P,J3,2*%
%TO.N,/SR+*%
X131460000Y-60000000D03*
D16*
%TO.P,J3,1*%
%TO.N,/SR-*%
X134000000Y-60000000D03*
%TD*%
%TO.P,SW1,1*%
%TO.N,/5V0_LOGIC*%
X89500000Y-105000000D03*
D15*
%TO.P,SW1,2*%
%TO.N,/SW_SIG*%
X86960000Y-105000000D03*
%TO.P,SW1,3*%
%TO.N,GNDA*%
X84420000Y-105000000D03*
%TD*%
D17*
%TO.P,TP1,1*%
%TO.N,/+Vin*%
X90250000Y-62750000D03*
%TD*%
%TO.P,TP3,1*%
%TO.N,/Vin*%
X72000000Y-81000000D03*
%TD*%
%TO.P,TP4,1*%
%TO.N,/FB*%
X93250000Y-85750000D03*
%TD*%
%TO.P,TP6,1*%
%TO.N,/SW*%
X95800000Y-62400000D03*
%TD*%
%TO.P,TP7,1*%
%TO.N,/SR-*%
X139750000Y-62500000D03*
%TD*%
%TO.P,TP9,1*%
%TO.N,/5V0_LOGIC*%
X118250000Y-104250000D03*
%TD*%
%TO.P,TP12,1*%
%TO.N,/Q*%
X124250000Y-106500000D03*
%TD*%
%TO.P,TP13,1*%
%TO.N,/Vo*%
X124250000Y-100000000D03*
%TD*%
%TO.P,TP15,1*%
%TO.N,/OCP_TRIGGER*%
X124250000Y-103250000D03*
%TD*%
%TO.P,TP16,1*%
%TO.N,GNDPWR*%
X138200000Y-68000000D03*
%TD*%
%TO.P,TP17,1*%
%TO.N,GNDA*%
X88750000Y-97750000D03*
%TD*%
%TO.P,TP10,1*%
%TO.N,/SR+*%
X97650000Y-57150000D03*
%TD*%
D18*
%TO.P,J2,4*%
%TO.N,GNDPWR*%
X149000000Y-71130000D03*
%TO.P,J2,3*%
X149000000Y-76210000D03*
%TO.P,J2,2*%
%TO.N,/5V0_Out*%
X149000000Y-81290000D03*
%TO.P,J2,1*%
X149000000Y-86370000D03*
%TD*%
D19*
%TO.N,/SR+*%
X62700000Y-96800000D03*
X93250000Y-82750000D03*
%TO.N,/5V0_LOGIC*%
X111400000Y-93400000D03*
X112000000Y-103250000D03*
X113250000Y-103250000D03*
X113250000Y-104250000D03*
X112000000Y-104250000D03*
X92750000Y-102750000D03*
X93750000Y-102750000D03*
X92750000Y-103750000D03*
X93750000Y-103750000D03*
X92750000Y-104750000D03*
X93750000Y-104750000D03*
X95000000Y-104750000D03*
X112000000Y-105250000D03*
X113250000Y-105250000D03*
X110750000Y-105250000D03*
X120750000Y-91250000D03*
X120750000Y-92500000D03*
X120750000Y-93750000D03*
X119500000Y-93750000D03*
X119750000Y-90000000D03*
X99500000Y-84500000D03*
X100500000Y-85250000D03*
X101250000Y-86250000D03*
X101250000Y-87500000D03*
D20*
%TO.N,Net-(C7-Pad2)*%
X111000000Y-70000000D03*
D19*
X110691098Y-76621408D03*
%TO.N,/5V0_Out*%
X125000000Y-89750000D03*
X126250000Y-89750000D03*
X127500000Y-89750000D03*
X128750000Y-89750000D03*
X130000000Y-89750000D03*
X131250000Y-89750000D03*
X132500000Y-89750000D03*
X125000000Y-91000000D03*
X126250000Y-91000000D03*
X127500000Y-91000000D03*
X128750000Y-91000000D03*
X130000000Y-91000000D03*
X131250000Y-91000000D03*
X132500000Y-91000000D03*
X125000000Y-92250000D03*
X126250000Y-92250000D03*
X127500000Y-92250000D03*
X128750000Y-92250000D03*
X130000000Y-92250000D03*
X131250000Y-92250000D03*
X132500000Y-92250000D03*
X133750000Y-89750000D03*
X133750000Y-91000000D03*
X133750000Y-92250000D03*
X135000000Y-89750000D03*
X135000000Y-91000000D03*
X135000000Y-92250000D03*
X136250000Y-89750000D03*
X136250000Y-91000000D03*
X136250000Y-92250000D03*
D20*
%TO.N,/~PWR_EN*%
X101700000Y-99300000D03*
X105500000Y-93800002D03*
D19*
%TO.N,/FB*%
X102500000Y-78250000D03*
D20*
%TO.N,/Vo*%
X114000000Y-88000000D03*
X114000000Y-91750000D03*
X117750000Y-88500000D03*
%TO.N,/OCP_TRIGGER*%
X115750000Y-98250000D03*
X111600000Y-96550000D03*
%TO.N,/~SW_SIG*%
X102850000Y-100450000D03*
X100700000Y-98550000D03*
%TO.N,/~Q*%
X105460000Y-101000000D03*
X100660000Y-100040000D03*
%TO.N,/S*%
X106500000Y-96250000D03*
X107499990Y-101510010D03*
%TO.N,/Q*%
X107000000Y-107250000D03*
X107250000Y-104750000D03*
D19*
%TO.N,GNDPWR*%
X133250000Y-69750000D03*
X133250000Y-71000000D03*
X134500000Y-71000000D03*
X134500000Y-69750000D03*
X135750000Y-69750000D03*
X135750000Y-71000000D03*
X137000000Y-69750000D03*
X138250000Y-69750000D03*
X138250000Y-71000000D03*
X138250000Y-72250000D03*
X138250000Y-73500000D03*
X138250000Y-74750000D03*
X138250000Y-76000000D03*
X138250000Y-77250000D03*
X133250000Y-72250000D03*
X133250000Y-73500000D03*
X134500000Y-73500000D03*
X135750000Y-73500000D03*
X137000000Y-73500000D03*
X133250000Y-74750000D03*
X133250000Y-76000000D03*
X133250000Y-77250000D03*
X134500000Y-77250000D03*
X135750000Y-77250000D03*
X137000000Y-77250000D03*
X137000000Y-76000000D03*
X137000000Y-74750000D03*
X135750000Y-74750000D03*
X134500000Y-74750000D03*
X134500000Y-76000000D03*
X135750000Y-76000000D03*
X134500000Y-72250000D03*
X135750000Y-72250000D03*
X137000000Y-71000000D03*
X137000000Y-72250000D03*
X132000000Y-71000000D03*
X132000000Y-69750000D03*
X130750000Y-69750000D03*
X130750000Y-71000000D03*
X129500000Y-71000000D03*
X129500000Y-69750000D03*
X128250000Y-69750000D03*
X128250000Y-71000000D03*
X130750000Y-78000000D03*
X132250000Y-78000000D03*
X66000000Y-88500000D03*
X69500000Y-86250000D03*
X72000000Y-89250000D03*
X70750000Y-92250000D03*
X66500000Y-91750000D03*
X76000000Y-91500000D03*
X80250000Y-87500000D03*
X84500000Y-84500000D03*
X73250000Y-99500000D03*
X73250000Y-105250000D03*
X68750000Y-104500000D03*
X68500000Y-100250000D03*
X59500000Y-92250000D03*
X60750000Y-83750000D03*
X60500000Y-88000000D03*
X60500000Y-79500000D03*
X60750000Y-72000000D03*
X60500000Y-74750000D03*
X60000000Y-67250000D03*
X71500000Y-55250000D03*
X78500000Y-55500000D03*
X85000000Y-55500000D03*
X83500000Y-64000000D03*
X76250000Y-62500000D03*
X67750000Y-62250000D03*
X67250000Y-66750000D03*
X68250000Y-70500000D03*
X90250000Y-65500000D03*
X92250000Y-54500000D03*
X95500000Y-56750000D03*
X105500000Y-53750000D03*
X111000000Y-53500000D03*
X118000000Y-54250000D03*
X122250000Y-54000000D03*
X126250000Y-54250000D03*
X131750000Y-55000000D03*
X136000000Y-55500000D03*
X129250000Y-57000000D03*
X139750000Y-57500000D03*
X141750000Y-54000000D03*
X144000000Y-59500000D03*
X143250000Y-63000000D03*
X149750000Y-62000000D03*
X145000000Y-56250000D03*
X124750000Y-62250000D03*
X126000000Y-62250000D03*
X127250000Y-62250000D03*
X127250000Y-61000000D03*
X127250000Y-59750000D03*
X127250000Y-58500000D03*
X127250000Y-57250000D03*
X126000000Y-57250000D03*
X124750000Y-57250000D03*
X114500000Y-64500000D03*
X115750000Y-64500000D03*
X117000000Y-64500000D03*
X118250000Y-64500000D03*
X119500000Y-64500000D03*
X120750000Y-64500000D03*
X119750000Y-68000000D03*
X119750000Y-69250000D03*
X119750000Y-70500000D03*
X119750000Y-71750000D03*
X119750000Y-73000000D03*
X119750000Y-74250000D03*
X119750000Y-75500000D03*
X119750000Y-76750000D03*
X119750000Y-78000000D03*
X119750000Y-79250000D03*
X119750000Y-80500000D03*
X121250000Y-80500000D03*
X121250000Y-79250000D03*
X121250000Y-78000000D03*
X121250000Y-76750000D03*
X121250000Y-75500000D03*
X121250000Y-74250000D03*
X121250000Y-73000000D03*
X121250000Y-71750000D03*
X94750000Y-75750000D03*
X96000000Y-76000000D03*
X97500000Y-76000000D03*
X98500000Y-76000000D03*
X99750000Y-76000000D03*
X99750000Y-77000000D03*
X101000000Y-76000000D03*
X102250000Y-75750000D03*
X103500000Y-75750000D03*
X70000000Y-61000000D03*
X63750000Y-63000000D03*
X74250000Y-61000000D03*
X90500000Y-56500000D03*
X69250000Y-57250000D03*
X67500000Y-54000000D03*
X60500000Y-62500000D03*
X64500000Y-67250000D03*
X85500000Y-88000000D03*
X134000000Y-56500000D03*
X88750000Y-78250000D03*
X90250000Y-79250000D03*
X94000000Y-77500000D03*
X94250000Y-79250000D03*
X90750000Y-76500000D03*
X87250000Y-75750000D03*
X85250000Y-74500000D03*
X89250000Y-75250000D03*
X91750000Y-79750000D03*
D20*
%TO.N,GNDA*%
X120100000Y-86100000D03*
X120100000Y-83800000D03*
D19*
%TO.N,/DFA-*%
X148500000Y-65855000D03*
X130250000Y-99750000D03*
%TO.N,/DFA+*%
X148500000Y-65145000D03*
X131750000Y-99750000D03*
%TD*%
D21*
%TO.N,/SR+*%
X62700000Y-96800000D02*
X79200000Y-96800000D01*
X79200000Y-96800000D02*
X93250000Y-82750000D01*
D22*
%TO.N,Net-(C7-Pad2)*%
X111000000Y-70000000D02*
X110691098Y-70308902D01*
X110691098Y-70308902D02*
X110691098Y-76621408D01*
D23*
%TO.N,/~PWR_EN*%
X105500000Y-98900000D02*
X105500000Y-93800002D01*
X105100000Y-99300000D02*
X105500000Y-98900000D01*
X101700000Y-99300000D02*
X105100000Y-99300000D01*
D22*
%TO.N,/FB*%
X95750000Y-85750000D02*
X93250000Y-85750000D01*
X102500000Y-79000000D02*
X95750000Y-85750000D01*
X102500000Y-78250000D02*
X102500000Y-78250000D01*
X102500000Y-78250000D02*
X102500000Y-79000000D01*
%TO.N,/Vo*%
X114000000Y-88000000D02*
X114000000Y-91750000D01*
X117250000Y-88000000D02*
X117750000Y-88500000D01*
X114000000Y-88000000D02*
X117250000Y-88000000D01*
D23*
X122250000Y-98750000D02*
X124000000Y-100500000D01*
X122250000Y-90000000D02*
X122250000Y-98750000D01*
X120750000Y-88500000D02*
X122250000Y-90000000D01*
X117750000Y-88500000D02*
X120750000Y-88500000D01*
%TO.N,/OCP_TRIGGER*%
X113300000Y-98250000D02*
X111600000Y-96550000D01*
X115750000Y-98250000D02*
X113300000Y-98250000D01*
%TO.N,/~SW_SIG*%
X102850000Y-100450000D02*
X101950000Y-100450000D01*
X101950000Y-100450000D02*
X100700000Y-99200000D01*
X100700000Y-99200000D02*
X100700000Y-98550000D01*
%TO.N,/~Q*%
X105460000Y-101000000D02*
X101620000Y-101000000D01*
X101620000Y-101000000D02*
X100660000Y-100040000D01*
%TO.N,/S*%
X106500000Y-96250000D02*
X106500000Y-100510020D01*
X106500000Y-100510020D02*
X107499990Y-101510010D01*
%TO.N,/Q*%
X107000000Y-107250000D02*
X107250000Y-107000000D01*
X107250000Y-107000000D02*
X107250000Y-104750000D01*
D21*
%TO.N,GNDA*%
X120100000Y-86100000D02*
X120100000Y-83800000D01*
D22*
%TO.N,/DFA-*%
X130980000Y-99020000D02*
X130250000Y-99750000D01*
X150904730Y-99020000D02*
X130980000Y-99020000D01*
X152250000Y-97674730D02*
X150904730Y-99020000D01*
X152250000Y-69250000D02*
X152250000Y-97674730D01*
X148855000Y-65855000D02*
X152250000Y-69250000D01*
X148500000Y-65855000D02*
X148855000Y-65855000D01*
%TO.N,/DFA+*%
X150825270Y-99750000D02*
X131750000Y-99750000D01*
X152750000Y-69000000D02*
X152750000Y-97825270D01*
X152750000Y-97825270D02*
X150825270Y-99750000D01*
X148895000Y-65145000D02*
X152750000Y-69000000D01*
X148500000Y-65145000D02*
X148895000Y-65145000D01*
%TD*%
D24*
%TO.N,GNDPWR*%
X153598001Y-107598000D02*
X146627000Y-107598000D01*
X146627000Y-100252000D01*
X150800627Y-100252000D01*
X150825270Y-100254427D01*
X150849913Y-100252000D01*
X150849923Y-100252000D01*
X150923679Y-100244736D01*
X151018306Y-100216031D01*
X151105515Y-100169417D01*
X151181954Y-100106684D01*
X151197671Y-100087533D01*
X153087538Y-98197667D01*
X153106684Y-98181954D01*
X153123559Y-98161393D01*
X153169416Y-98105516D01*
X153169938Y-98104540D01*
X153216031Y-98018306D01*
X153244736Y-97923679D01*
X153252000Y-97849923D01*
X153252000Y-97849914D01*
X153254427Y-97825271D01*
X153252000Y-97800628D01*
X153252000Y-69024642D01*
X153254427Y-68999999D01*
X153252000Y-68975356D01*
X153252000Y-68975347D01*
X153244736Y-68901591D01*
X153216031Y-68806964D01*
X153169417Y-68719755D01*
X153106684Y-68643316D01*
X153087538Y-68627603D01*
X149267402Y-64807468D01*
X149251684Y-64788316D01*
X149175245Y-64725583D01*
X149088036Y-64678969D01*
X148993409Y-64650264D01*
X148919653Y-64643000D01*
X148919643Y-64643000D01*
X148895000Y-64640573D01*
X148876386Y-64642406D01*
X148796996Y-64589360D01*
X148682889Y-64542095D01*
X148561754Y-64518000D01*
X148438246Y-64518000D01*
X148317111Y-64542095D01*
X148203004Y-64589360D01*
X148100311Y-64657977D01*
X148012977Y-64745311D01*
X147944360Y-64848004D01*
X147897095Y-64962111D01*
X147873000Y-65083246D01*
X147873000Y-65206754D01*
X147897095Y-65327889D01*
X147944360Y-65441996D01*
X147983117Y-65500000D01*
X147944360Y-65558004D01*
X147897095Y-65672111D01*
X147873000Y-65793246D01*
X147873000Y-65916754D01*
X147897095Y-66037889D01*
X147944360Y-66151996D01*
X148012977Y-66254689D01*
X148100311Y-66342023D01*
X148203004Y-66410640D01*
X148317111Y-66457905D01*
X148438246Y-66482000D01*
X148561754Y-66482000D01*
X148682889Y-66457905D01*
X148728909Y-66438843D01*
X151748000Y-69457935D01*
X151748000Y-78623000D01*
X123250000Y-78623000D01*
X123176451Y-78630244D01*
X123105728Y-78651697D01*
X123040550Y-78686536D01*
X122983421Y-78733421D01*
X122936536Y-78790550D01*
X122901697Y-78855728D01*
X122880244Y-78926451D01*
X122873000Y-79000000D01*
X122873000Y-98733777D01*
X122702000Y-98562777D01*
X122702000Y-90022204D01*
X122704187Y-89999999D01*
X122695460Y-89911392D01*
X122689444Y-89891562D01*
X122669614Y-89826190D01*
X122627643Y-89747667D01*
X122571159Y-89678841D01*
X122553912Y-89664687D01*
X122377000Y-89487775D01*
X122377000Y-82000000D01*
X122369756Y-81926451D01*
X122348303Y-81855728D01*
X122313464Y-81790550D01*
X122266579Y-81733421D01*
X122209450Y-81686536D01*
X122144272Y-81651697D01*
X122073549Y-81630244D01*
X122000000Y-81623000D01*
X102250000Y-81623000D01*
X102176451Y-81630244D01*
X102105728Y-81651697D01*
X102040550Y-81686536D01*
X101983421Y-81733421D01*
X101936536Y-81790550D01*
X101901697Y-81855728D01*
X101880244Y-81926451D01*
X101873000Y-82000000D01*
X101873000Y-83623000D01*
X98586934Y-83623000D01*
X102837538Y-79372397D01*
X102856684Y-79356684D01*
X102872397Y-79337538D01*
X102872400Y-79337535D01*
X102919417Y-79280246D01*
X102966031Y-79193037D01*
X102994736Y-79098410D01*
X102995607Y-79089568D01*
X103002000Y-79024653D01*
X103002000Y-79024646D01*
X103004427Y-79000000D01*
X103002000Y-78975355D01*
X103002000Y-78627274D01*
X103055640Y-78546996D01*
X103102905Y-78432889D01*
X103127000Y-78311754D01*
X103127000Y-78188246D01*
X103102905Y-78067111D01*
X103055640Y-77953004D01*
X102987023Y-77850311D01*
X102899689Y-77762977D01*
X102796996Y-77694360D01*
X102682889Y-77647095D01*
X102561754Y-77623000D01*
X102438246Y-77623000D01*
X102317111Y-77647095D01*
X102203004Y-77694360D01*
X102100311Y-77762977D01*
X102012977Y-77850311D01*
X101944360Y-77953004D01*
X101897095Y-78067111D01*
X101873000Y-78188246D01*
X101873000Y-78311754D01*
X101897095Y-78432889D01*
X101944360Y-78546996D01*
X101998001Y-78627275D01*
X101998001Y-78792064D01*
X95542066Y-85248000D01*
X94532519Y-85248000D01*
X94470282Y-85097746D01*
X94319586Y-84872213D01*
X94127787Y-84680414D01*
X93902254Y-84529718D01*
X93651656Y-84425917D01*
X93385623Y-84373000D01*
X93114377Y-84373000D01*
X92848344Y-84425917D01*
X92597746Y-84529718D01*
X92372213Y-84680414D01*
X92180414Y-84872213D01*
X92029718Y-85097746D01*
X91925917Y-85348344D01*
X91873000Y-85614377D01*
X91873000Y-85885623D01*
X91925917Y-86151656D01*
X92029718Y-86402254D01*
X92180414Y-86627787D01*
X92372213Y-86819586D01*
X92597746Y-86970282D01*
X92848344Y-87074083D01*
X93114377Y-87127000D01*
X93385623Y-87127000D01*
X93651656Y-87074083D01*
X93902254Y-86970282D01*
X94127787Y-86819586D01*
X94319586Y-86627787D01*
X94470282Y-86402254D01*
X94532519Y-86252000D01*
X95319664Y-86252000D01*
X74863081Y-107598000D01*
X58402000Y-107598000D01*
X58402000Y-96800000D01*
X62069967Y-96800000D01*
X62073000Y-96830794D01*
X62073000Y-96861754D01*
X62079040Y-96892120D01*
X62082073Y-96922913D01*
X62091055Y-96952522D01*
X62097095Y-96982889D01*
X62108942Y-97011491D01*
X62117925Y-97041103D01*
X62132513Y-97068395D01*
X62144360Y-97096996D01*
X62161560Y-97122737D01*
X62176147Y-97150028D01*
X62195778Y-97173948D01*
X62212977Y-97199689D01*
X62234866Y-97221578D01*
X62254499Y-97245501D01*
X62278422Y-97265134D01*
X62300311Y-97287023D01*
X62326052Y-97304222D01*
X62349972Y-97323853D01*
X62377263Y-97338440D01*
X62403004Y-97355640D01*
X62431605Y-97367487D01*
X62458897Y-97382075D01*
X62488509Y-97391058D01*
X62517111Y-97402905D01*
X62547478Y-97408945D01*
X62577087Y-97417927D01*
X62607880Y-97420960D01*
X62638246Y-97427000D01*
X79169206Y-97427000D01*
X79200000Y-97430033D01*
X79230794Y-97427000D01*
X79322913Y-97417927D01*
X79441103Y-97382075D01*
X79550028Y-97323853D01*
X79645501Y-97245501D01*
X79665138Y-97221573D01*
X93649686Y-83237025D01*
X93649689Y-83237023D01*
X93737023Y-83149689D01*
X93754225Y-83123945D01*
X93773853Y-83100028D01*
X93788441Y-83072736D01*
X93805640Y-83046996D01*
X93817486Y-83018399D01*
X93832075Y-82991104D01*
X93841058Y-82961489D01*
X93852905Y-82932889D01*
X93858945Y-82902523D01*
X93867927Y-82872913D01*
X93870960Y-82842120D01*
X93877000Y-82811754D01*
X93877000Y-82780794D01*
X93880033Y-82750000D01*
X93877000Y-82719206D01*
X93877000Y-82688246D01*
X93870960Y-82657880D01*
X93867927Y-82627087D01*
X93858945Y-82597478D01*
X93852905Y-82567111D01*
X93841058Y-82538509D01*
X93832075Y-82508897D01*
X93817487Y-82481605D01*
X93805640Y-82453004D01*
X93788440Y-82427263D01*
X93773853Y-82399972D01*
X93754224Y-82376055D01*
X93737023Y-82350311D01*
X93715126Y-82328414D01*
X93695500Y-82304500D01*
X93671586Y-82284874D01*
X93649689Y-82262977D01*
X93623945Y-82245776D01*
X93600028Y-82226147D01*
X93572737Y-82211560D01*
X93546996Y-82194360D01*
X93518395Y-82182513D01*
X93491103Y-82167925D01*
X93461491Y-82158942D01*
X93432889Y-82147095D01*
X93402522Y-82141055D01*
X93372913Y-82132073D01*
X93342120Y-82129040D01*
X93311754Y-82123000D01*
X93280794Y-82123000D01*
X93250000Y-82119967D01*
X93219206Y-82123000D01*
X93188246Y-82123000D01*
X93157880Y-82129040D01*
X93127087Y-82132073D01*
X93097477Y-82141055D01*
X93067111Y-82147095D01*
X93038511Y-82158942D01*
X93008896Y-82167925D01*
X92981601Y-82182514D01*
X92953004Y-82194360D01*
X92927264Y-82211559D01*
X92899972Y-82226147D01*
X92876055Y-82245775D01*
X92850311Y-82262977D01*
X92762977Y-82350311D01*
X92762975Y-82350314D01*
X78940289Y-96173000D01*
X62638246Y-96173000D01*
X62607880Y-96179040D01*
X62577087Y-96182073D01*
X62547478Y-96191055D01*
X62517111Y-96197095D01*
X62488509Y-96208942D01*
X62458897Y-96217925D01*
X62431605Y-96232513D01*
X62403004Y-96244360D01*
X62377263Y-96261560D01*
X62349972Y-96276147D01*
X62326052Y-96295778D01*
X62300311Y-96312977D01*
X62278422Y-96334866D01*
X62254499Y-96354499D01*
X62234869Y-96378419D01*
X62212977Y-96400311D01*
X62195778Y-96426052D01*
X62176147Y-96449972D01*
X62161560Y-96477263D01*
X62144360Y-96503004D01*
X62132513Y-96531605D01*
X62117925Y-96558897D01*
X62108942Y-96588509D01*
X62097095Y-96617111D01*
X62091055Y-96647478D01*
X62082073Y-96677087D01*
X62079040Y-96707880D01*
X62073000Y-96738246D01*
X62073000Y-96769206D01*
X62069967Y-96800000D01*
X58402000Y-96800000D01*
X58402000Y-80864377D01*
X70623000Y-80864377D01*
X70623000Y-81135623D01*
X70675917Y-81401656D01*
X70779718Y-81652254D01*
X70930414Y-81877787D01*
X71122213Y-82069586D01*
X71347746Y-82220282D01*
X71598344Y-82324083D01*
X71864377Y-82377000D01*
X72135623Y-82377000D01*
X72401656Y-82324083D01*
X72652254Y-82220282D01*
X72877787Y-82069586D01*
X73069586Y-81877787D01*
X73220282Y-81652254D01*
X73324083Y-81401656D01*
X73377000Y-81135623D01*
X73377000Y-80864377D01*
X73324083Y-80598344D01*
X73220282Y-80347746D01*
X73069586Y-80122213D01*
X72877787Y-79930414D01*
X72652254Y-79779718D01*
X72401656Y-79675917D01*
X72135623Y-79623000D01*
X71864377Y-79623000D01*
X71598344Y-79675917D01*
X71347746Y-79779718D01*
X71122213Y-79930414D01*
X70930414Y-80122213D01*
X70779718Y-80347746D01*
X70675917Y-80598344D01*
X70623000Y-80864377D01*
X58402000Y-80864377D01*
X58402000Y-75784830D01*
X67823000Y-75784830D01*
X67823000Y-76115170D01*
X67887446Y-76439163D01*
X68013862Y-76744357D01*
X68197389Y-77019025D01*
X68430975Y-77252611D01*
X68705643Y-77436138D01*
X69010837Y-77562554D01*
X69334830Y-77627000D01*
X69665170Y-77627000D01*
X69989163Y-77562554D01*
X70294357Y-77436138D01*
X70569025Y-77252611D01*
X70802611Y-77019025D01*
X70986138Y-76744357D01*
X71062644Y-76559654D01*
X110064098Y-76559654D01*
X110064098Y-76683162D01*
X110088193Y-76804297D01*
X110135458Y-76918404D01*
X110204075Y-77021097D01*
X110291409Y-77108431D01*
X110394102Y-77177048D01*
X110508209Y-77224313D01*
X110629344Y-77248408D01*
X110752852Y-77248408D01*
X110873987Y-77224313D01*
X110988094Y-77177048D01*
X111090787Y-77108431D01*
X111178121Y-77021097D01*
X111246738Y-76918404D01*
X111294003Y-76804297D01*
X111318098Y-76683162D01*
X111318098Y-76559654D01*
X111294003Y-76438519D01*
X111246738Y-76324412D01*
X111193098Y-76244134D01*
X111193098Y-70571617D01*
X111285154Y-70533486D01*
X111383753Y-70467604D01*
X111467604Y-70383753D01*
X111533486Y-70285154D01*
X111578866Y-70175597D01*
X111602000Y-70059292D01*
X111602000Y-69940708D01*
X111578866Y-69824403D01*
X111533486Y-69714846D01*
X111467604Y-69616247D01*
X111383753Y-69532396D01*
X111285154Y-69466514D01*
X111175597Y-69421134D01*
X111059292Y-69398000D01*
X110940708Y-69398000D01*
X110824403Y-69421134D01*
X110714846Y-69466514D01*
X110616247Y-69532396D01*
X110532396Y-69616247D01*
X110466514Y-69714846D01*
X110421134Y-69824403D01*
X110410078Y-69879988D01*
X110353566Y-69936500D01*
X110334414Y-69952218D01*
X110271681Y-70028657D01*
X110225067Y-70115867D01*
X110196362Y-70210494D01*
X110189098Y-70284250D01*
X110189098Y-70284259D01*
X110186671Y-70308902D01*
X110189098Y-70333545D01*
X110189099Y-76244132D01*
X110135458Y-76324412D01*
X110088193Y-76438519D01*
X110064098Y-76559654D01*
X71062644Y-76559654D01*
X71112554Y-76439163D01*
X71177000Y-76115170D01*
X71177000Y-75784830D01*
X71112554Y-75460837D01*
X70986138Y-75155643D01*
X70802611Y-74880975D01*
X70569025Y-74647389D01*
X70294357Y-74463862D01*
X69989163Y-74337446D01*
X69665170Y-74273000D01*
X69334830Y-74273000D01*
X69010837Y-74337446D01*
X68705643Y-74463862D01*
X68430975Y-74647389D01*
X68197389Y-74880975D01*
X68013862Y-75155643D01*
X67887446Y-75460837D01*
X67823000Y-75784830D01*
X58402000Y-75784830D01*
X58402000Y-69950000D01*
X70821176Y-69950000D01*
X70821176Y-72550000D01*
X70828455Y-72623905D01*
X70850012Y-72694970D01*
X70885019Y-72760463D01*
X70932131Y-72817869D01*
X70989537Y-72864981D01*
X71055030Y-72899988D01*
X71126095Y-72921545D01*
X71200000Y-72928824D01*
X73800000Y-72928824D01*
X73873905Y-72921545D01*
X73944970Y-72899988D01*
X74010463Y-72864981D01*
X74067869Y-72817869D01*
X74114981Y-72760463D01*
X74149988Y-72694970D01*
X74171545Y-72623905D01*
X74178824Y-72550000D01*
X74178824Y-70750000D01*
X90621176Y-70750000D01*
X90621176Y-72350000D01*
X90628455Y-72423905D01*
X90650012Y-72494970D01*
X90685019Y-72560463D01*
X90732131Y-72617869D01*
X90789537Y-72664981D01*
X90855030Y-72699988D01*
X90926095Y-72721545D01*
X91000000Y-72728824D01*
X92600000Y-72728824D01*
X92673905Y-72721545D01*
X92744970Y-72699988D01*
X92810463Y-72664981D01*
X92867869Y-72617869D01*
X92914981Y-72560463D01*
X92949988Y-72494970D01*
X92971545Y-72423905D01*
X92978824Y-72350000D01*
X92978824Y-70750000D01*
X92971545Y-70676095D01*
X92949988Y-70605030D01*
X92914981Y-70539537D01*
X92867869Y-70482131D01*
X92810463Y-70435019D01*
X92744970Y-70400012D01*
X92673905Y-70378455D01*
X92600000Y-70371176D01*
X91000000Y-70371176D01*
X90926095Y-70378455D01*
X90855030Y-70400012D01*
X90789537Y-70435019D01*
X90732131Y-70482131D01*
X90685019Y-70539537D01*
X90650012Y-70605030D01*
X90628455Y-70676095D01*
X90621176Y-70750000D01*
X74178824Y-70750000D01*
X74178824Y-69950000D01*
X74171545Y-69876095D01*
X74149988Y-69805030D01*
X74114981Y-69739537D01*
X74067869Y-69682131D01*
X74010463Y-69635019D01*
X73944970Y-69600012D01*
X73873905Y-69578455D01*
X73800000Y-69571176D01*
X71200000Y-69571176D01*
X71126095Y-69578455D01*
X71055030Y-69600012D01*
X70989537Y-69635019D01*
X70932131Y-69682131D01*
X70885019Y-69739537D01*
X70850012Y-69805030D01*
X70828455Y-69876095D01*
X70821176Y-69950000D01*
X58402000Y-69950000D01*
X58402000Y-62614377D01*
X88873000Y-62614377D01*
X88873000Y-62885623D01*
X88925917Y-63151656D01*
X89029718Y-63402254D01*
X89180414Y-63627787D01*
X89372213Y-63819586D01*
X89597746Y-63970282D01*
X89848344Y-64074083D01*
X90114377Y-64127000D01*
X90385623Y-64127000D01*
X90651656Y-64074083D01*
X90902254Y-63970282D01*
X91127787Y-63819586D01*
X91319586Y-63627787D01*
X91470282Y-63402254D01*
X91574083Y-63151656D01*
X91627000Y-62885623D01*
X91627000Y-62614377D01*
X91574083Y-62348344D01*
X91539303Y-62264377D01*
X94423000Y-62264377D01*
X94423000Y-62535623D01*
X94475917Y-62801656D01*
X94579718Y-63052254D01*
X94730414Y-63277787D01*
X94922213Y-63469586D01*
X95147746Y-63620282D01*
X95398344Y-63724083D01*
X95664377Y-63777000D01*
X95935623Y-63777000D01*
X96201656Y-63724083D01*
X96452254Y-63620282D01*
X96677787Y-63469586D01*
X96869586Y-63277787D01*
X97020282Y-63052254D01*
X97124083Y-62801656D01*
X97177000Y-62535623D01*
X97177000Y-62364377D01*
X138373000Y-62364377D01*
X138373000Y-62635623D01*
X138425917Y-62901656D01*
X138529718Y-63152254D01*
X138680414Y-63377787D01*
X138872213Y-63569586D01*
X139097746Y-63720282D01*
X139348344Y-63824083D01*
X139614377Y-63877000D01*
X139885623Y-63877000D01*
X140151656Y-63824083D01*
X140402254Y-63720282D01*
X140627787Y-63569586D01*
X140819586Y-63377787D01*
X140970282Y-63152254D01*
X141074083Y-62901656D01*
X141127000Y-62635623D01*
X141127000Y-62364377D01*
X141074083Y-62098344D01*
X140970282Y-61847746D01*
X140819586Y-61622213D01*
X140627787Y-61430414D01*
X140402254Y-61279718D01*
X140151656Y-61175917D01*
X139885623Y-61123000D01*
X139614377Y-61123000D01*
X139348344Y-61175917D01*
X139097746Y-61279718D01*
X138872213Y-61430414D01*
X138680414Y-61622213D01*
X138529718Y-61847746D01*
X138425917Y-62098344D01*
X138373000Y-62364377D01*
X97177000Y-62364377D01*
X97177000Y-62264377D01*
X97124083Y-61998344D01*
X97020282Y-61747746D01*
X96869586Y-61522213D01*
X96677787Y-61330414D01*
X96452254Y-61179718D01*
X96201656Y-61075917D01*
X95935623Y-61023000D01*
X95664377Y-61023000D01*
X95398344Y-61075917D01*
X95147746Y-61179718D01*
X94922213Y-61330414D01*
X94730414Y-61522213D01*
X94579718Y-61747746D01*
X94475917Y-61998344D01*
X94423000Y-62264377D01*
X91539303Y-62264377D01*
X91470282Y-62097746D01*
X91319586Y-61872213D01*
X91127787Y-61680414D01*
X90902254Y-61529718D01*
X90651656Y-61425917D01*
X90385623Y-61373000D01*
X90114377Y-61373000D01*
X89848344Y-61425917D01*
X89597746Y-61529718D01*
X89372213Y-61680414D01*
X89180414Y-61872213D01*
X89029718Y-62097746D01*
X88925917Y-62348344D01*
X88873000Y-62614377D01*
X58402000Y-62614377D01*
X58402000Y-59879151D01*
X130233000Y-59879151D01*
X130233000Y-60120849D01*
X130280153Y-60357903D01*
X130372647Y-60581202D01*
X130506927Y-60782167D01*
X130677833Y-60953073D01*
X130878798Y-61087353D01*
X131102097Y-61179847D01*
X131339151Y-61227000D01*
X131580849Y-61227000D01*
X131817903Y-61179847D01*
X132041202Y-61087353D01*
X132242167Y-60953073D01*
X132413073Y-60782167D01*
X132547353Y-60581202D01*
X132639847Y-60357903D01*
X132687000Y-60120849D01*
X132687000Y-59879151D01*
X132639847Y-59642097D01*
X132547353Y-59418798D01*
X132413073Y-59217833D01*
X132345240Y-59150000D01*
X132771176Y-59150000D01*
X132771176Y-60850000D01*
X132778455Y-60923905D01*
X132800012Y-60994970D01*
X132835019Y-61060463D01*
X132882131Y-61117869D01*
X132939537Y-61164981D01*
X133005030Y-61199988D01*
X133076095Y-61221545D01*
X133150000Y-61228824D01*
X134850000Y-61228824D01*
X134923905Y-61221545D01*
X134994970Y-61199988D01*
X135060463Y-61164981D01*
X135117869Y-61117869D01*
X135164981Y-61060463D01*
X135199988Y-60994970D01*
X135221545Y-60923905D01*
X135228824Y-60850000D01*
X135228824Y-59150000D01*
X135221545Y-59076095D01*
X135199988Y-59005030D01*
X135164981Y-58939537D01*
X135117869Y-58882131D01*
X135060463Y-58835019D01*
X134994970Y-58800012D01*
X134923905Y-58778455D01*
X134850000Y-58771176D01*
X133150000Y-58771176D01*
X133076095Y-58778455D01*
X133005030Y-58800012D01*
X132939537Y-58835019D01*
X132882131Y-58882131D01*
X132835019Y-58939537D01*
X132800012Y-59005030D01*
X132778455Y-59076095D01*
X132771176Y-59150000D01*
X132345240Y-59150000D01*
X132242167Y-59046927D01*
X132041202Y-58912647D01*
X131817903Y-58820153D01*
X131580849Y-58773000D01*
X131339151Y-58773000D01*
X131102097Y-58820153D01*
X130878798Y-58912647D01*
X130677833Y-59046927D01*
X130506927Y-59217833D01*
X130372647Y-59418798D01*
X130280153Y-59642097D01*
X130233000Y-59879151D01*
X58402000Y-59879151D01*
X58402000Y-57014377D01*
X96273000Y-57014377D01*
X96273000Y-57285623D01*
X96325917Y-57551656D01*
X96429718Y-57802254D01*
X96580414Y-58027787D01*
X96772213Y-58219586D01*
X96997746Y-58370282D01*
X97248344Y-58474083D01*
X97514377Y-58527000D01*
X97785623Y-58527000D01*
X98051656Y-58474083D01*
X98302254Y-58370282D01*
X98527787Y-58219586D01*
X98719586Y-58027787D01*
X98870282Y-57802254D01*
X98974083Y-57551656D01*
X99027000Y-57285623D01*
X99027000Y-57014377D01*
X98974083Y-56748344D01*
X98870282Y-56497746D01*
X98719586Y-56272213D01*
X98527787Y-56080414D01*
X98302254Y-55929718D01*
X98051656Y-55825917D01*
X97785623Y-55773000D01*
X97514377Y-55773000D01*
X97248344Y-55825917D01*
X96997746Y-55929718D01*
X96772213Y-56080414D01*
X96580414Y-56272213D01*
X96429718Y-56497746D01*
X96325917Y-56748344D01*
X96273000Y-57014377D01*
X58402000Y-57014377D01*
X58402000Y-52402000D01*
X153598000Y-52402000D01*
X153598001Y-107598000D01*
%TA.AperFunction,Conductor*%
D23*
G36*
X153598001Y-107598000D02*
G01*
X146627000Y-107598000D01*
X146627000Y-100252000D01*
X150800627Y-100252000D01*
X150825270Y-100254427D01*
X150849913Y-100252000D01*
X150849923Y-100252000D01*
X150923679Y-100244736D01*
X151018306Y-100216031D01*
X151105515Y-100169417D01*
X151181954Y-100106684D01*
X151197671Y-100087533D01*
X153087538Y-98197667D01*
X153106684Y-98181954D01*
X153123559Y-98161393D01*
X153169416Y-98105516D01*
X153169938Y-98104540D01*
X153216031Y-98018306D01*
X153244736Y-97923679D01*
X153252000Y-97849923D01*
X153252000Y-97849914D01*
X153254427Y-97825271D01*
X153252000Y-97800628D01*
X153252000Y-69024642D01*
X153254427Y-68999999D01*
X153252000Y-68975356D01*
X153252000Y-68975347D01*
X153244736Y-68901591D01*
X153216031Y-68806964D01*
X153169417Y-68719755D01*
X153106684Y-68643316D01*
X153087538Y-68627603D01*
X149267402Y-64807468D01*
X149251684Y-64788316D01*
X149175245Y-64725583D01*
X149088036Y-64678969D01*
X148993409Y-64650264D01*
X148919653Y-64643000D01*
X148919643Y-64643000D01*
X148895000Y-64640573D01*
X148876386Y-64642406D01*
X148796996Y-64589360D01*
X148682889Y-64542095D01*
X148561754Y-64518000D01*
X148438246Y-64518000D01*
X148317111Y-64542095D01*
X148203004Y-64589360D01*
X148100311Y-64657977D01*
X148012977Y-64745311D01*
X147944360Y-64848004D01*
X147897095Y-64962111D01*
X147873000Y-65083246D01*
X147873000Y-65206754D01*
X147897095Y-65327889D01*
X147944360Y-65441996D01*
X147983117Y-65500000D01*
X147944360Y-65558004D01*
X147897095Y-65672111D01*
X147873000Y-65793246D01*
X147873000Y-65916754D01*
X147897095Y-66037889D01*
X147944360Y-66151996D01*
X148012977Y-66254689D01*
X148100311Y-66342023D01*
X148203004Y-66410640D01*
X148317111Y-66457905D01*
X148438246Y-66482000D01*
X148561754Y-66482000D01*
X148682889Y-66457905D01*
X148728909Y-66438843D01*
X151748000Y-69457935D01*
X151748000Y-78623000D01*
X123250000Y-78623000D01*
X123176451Y-78630244D01*
X123105728Y-78651697D01*
X123040550Y-78686536D01*
X122983421Y-78733421D01*
X122936536Y-78790550D01*
X122901697Y-78855728D01*
X122880244Y-78926451D01*
X122873000Y-79000000D01*
X122873000Y-98733777D01*
X122702000Y-98562777D01*
X122702000Y-90022204D01*
X122704187Y-89999999D01*
X122695460Y-89911392D01*
X122689444Y-89891562D01*
X122669614Y-89826190D01*
X122627643Y-89747667D01*
X122571159Y-89678841D01*
X122553912Y-89664687D01*
X122377000Y-89487775D01*
X122377000Y-82000000D01*
X122369756Y-81926451D01*
X122348303Y-81855728D01*
X122313464Y-81790550D01*
X122266579Y-81733421D01*
X122209450Y-81686536D01*
X122144272Y-81651697D01*
X122073549Y-81630244D01*
X122000000Y-81623000D01*
X102250000Y-81623000D01*
X102176451Y-81630244D01*
X102105728Y-81651697D01*
X102040550Y-81686536D01*
X101983421Y-81733421D01*
X101936536Y-81790550D01*
X101901697Y-81855728D01*
X101880244Y-81926451D01*
X101873000Y-82000000D01*
X101873000Y-83623000D01*
X98586934Y-83623000D01*
X102837538Y-79372397D01*
X102856684Y-79356684D01*
X102872397Y-79337538D01*
X102872400Y-79337535D01*
X102919417Y-79280246D01*
X102966031Y-79193037D01*
X102994736Y-79098410D01*
X102995607Y-79089568D01*
X103002000Y-79024653D01*
X103002000Y-79024646D01*
X103004427Y-79000000D01*
X103002000Y-78975355D01*
X103002000Y-78627274D01*
X103055640Y-78546996D01*
X103102905Y-78432889D01*
X103127000Y-78311754D01*
X103127000Y-78188246D01*
X103102905Y-78067111D01*
X103055640Y-77953004D01*
X102987023Y-77850311D01*
X102899689Y-77762977D01*
X102796996Y-77694360D01*
X102682889Y-77647095D01*
X102561754Y-77623000D01*
X102438246Y-77623000D01*
X102317111Y-77647095D01*
X102203004Y-77694360D01*
X102100311Y-77762977D01*
X102012977Y-77850311D01*
X101944360Y-77953004D01*
X101897095Y-78067111D01*
X101873000Y-78188246D01*
X101873000Y-78311754D01*
X101897095Y-78432889D01*
X101944360Y-78546996D01*
X101998001Y-78627275D01*
X101998001Y-78792064D01*
X95542066Y-85248000D01*
X94532519Y-85248000D01*
X94470282Y-85097746D01*
X94319586Y-84872213D01*
X94127787Y-84680414D01*
X93902254Y-84529718D01*
X93651656Y-84425917D01*
X93385623Y-84373000D01*
X93114377Y-84373000D01*
X92848344Y-84425917D01*
X92597746Y-84529718D01*
X92372213Y-84680414D01*
X92180414Y-84872213D01*
X92029718Y-85097746D01*
X91925917Y-85348344D01*
X91873000Y-85614377D01*
X91873000Y-85885623D01*
X91925917Y-86151656D01*
X92029718Y-86402254D01*
X92180414Y-86627787D01*
X92372213Y-86819586D01*
X92597746Y-86970282D01*
X92848344Y-87074083D01*
X93114377Y-87127000D01*
X93385623Y-87127000D01*
X93651656Y-87074083D01*
X93902254Y-86970282D01*
X94127787Y-86819586D01*
X94319586Y-86627787D01*
X94470282Y-86402254D01*
X94532519Y-86252000D01*
X95319664Y-86252000D01*
X74863081Y-107598000D01*
X58402000Y-107598000D01*
X58402000Y-96800000D01*
X62069967Y-96800000D01*
X62073000Y-96830794D01*
X62073000Y-96861754D01*
X62079040Y-96892120D01*
X62082073Y-96922913D01*
X62091055Y-96952522D01*
X62097095Y-96982889D01*
X62108942Y-97011491D01*
X62117925Y-97041103D01*
X62132513Y-97068395D01*
X62144360Y-97096996D01*
X62161560Y-97122737D01*
X62176147Y-97150028D01*
X62195778Y-97173948D01*
X62212977Y-97199689D01*
X62234866Y-97221578D01*
X62254499Y-97245501D01*
X62278422Y-97265134D01*
X62300311Y-97287023D01*
X62326052Y-97304222D01*
X62349972Y-97323853D01*
X62377263Y-97338440D01*
X62403004Y-97355640D01*
X62431605Y-97367487D01*
X62458897Y-97382075D01*
X62488509Y-97391058D01*
X62517111Y-97402905D01*
X62547478Y-97408945D01*
X62577087Y-97417927D01*
X62607880Y-97420960D01*
X62638246Y-97427000D01*
X79169206Y-97427000D01*
X79200000Y-97430033D01*
X79230794Y-97427000D01*
X79322913Y-97417927D01*
X79441103Y-97382075D01*
X79550028Y-97323853D01*
X79645501Y-97245501D01*
X79665138Y-97221573D01*
X93649686Y-83237025D01*
X93649689Y-83237023D01*
X93737023Y-83149689D01*
X93754225Y-83123945D01*
X93773853Y-83100028D01*
X93788441Y-83072736D01*
X93805640Y-83046996D01*
X93817486Y-83018399D01*
X93832075Y-82991104D01*
X93841058Y-82961489D01*
X93852905Y-82932889D01*
X93858945Y-82902523D01*
X93867927Y-82872913D01*
X93870960Y-82842120D01*
X93877000Y-82811754D01*
X93877000Y-82780794D01*
X93880033Y-82750000D01*
X93877000Y-82719206D01*
X93877000Y-82688246D01*
X93870960Y-82657880D01*
X93867927Y-82627087D01*
X93858945Y-82597478D01*
X93852905Y-82567111D01*
X93841058Y-82538509D01*
X93832075Y-82508897D01*
X93817487Y-82481605D01*
X93805640Y-82453004D01*
X93788440Y-82427263D01*
X93773853Y-82399972D01*
X93754224Y-82376055D01*
X93737023Y-82350311D01*
X93715126Y-82328414D01*
X93695500Y-82304500D01*
X93671586Y-82284874D01*
X93649689Y-82262977D01*
X93623945Y-82245776D01*
X93600028Y-82226147D01*
X93572737Y-82211560D01*
X93546996Y-82194360D01*
X93518395Y-82182513D01*
X93491103Y-82167925D01*
X93461491Y-82158942D01*
X93432889Y-82147095D01*
X93402522Y-82141055D01*
X93372913Y-82132073D01*
X93342120Y-82129040D01*
X93311754Y-82123000D01*
X93280794Y-82123000D01*
X93250000Y-82119967D01*
X93219206Y-82123000D01*
X93188246Y-82123000D01*
X93157880Y-82129040D01*
X93127087Y-82132073D01*
X93097477Y-82141055D01*
X93067111Y-82147095D01*
X93038511Y-82158942D01*
X93008896Y-82167925D01*
X92981601Y-82182514D01*
X92953004Y-82194360D01*
X92927264Y-82211559D01*
X92899972Y-82226147D01*
X92876055Y-82245775D01*
X92850311Y-82262977D01*
X92762977Y-82350311D01*
X92762975Y-82350314D01*
X78940289Y-96173000D01*
X62638246Y-96173000D01*
X62607880Y-96179040D01*
X62577087Y-96182073D01*
X62547478Y-96191055D01*
X62517111Y-96197095D01*
X62488509Y-96208942D01*
X62458897Y-96217925D01*
X62431605Y-96232513D01*
X62403004Y-96244360D01*
X62377263Y-96261560D01*
X62349972Y-96276147D01*
X62326052Y-96295778D01*
X62300311Y-96312977D01*
X62278422Y-96334866D01*
X62254499Y-96354499D01*
X62234869Y-96378419D01*
X62212977Y-96400311D01*
X62195778Y-96426052D01*
X62176147Y-96449972D01*
X62161560Y-96477263D01*
X62144360Y-96503004D01*
X62132513Y-96531605D01*
X62117925Y-96558897D01*
X62108942Y-96588509D01*
X62097095Y-96617111D01*
X62091055Y-96647478D01*
X62082073Y-96677087D01*
X62079040Y-96707880D01*
X62073000Y-96738246D01*
X62073000Y-96769206D01*
X62069967Y-96800000D01*
X58402000Y-96800000D01*
X58402000Y-80864377D01*
X70623000Y-80864377D01*
X70623000Y-81135623D01*
X70675917Y-81401656D01*
X70779718Y-81652254D01*
X70930414Y-81877787D01*
X71122213Y-82069586D01*
X71347746Y-82220282D01*
X71598344Y-82324083D01*
X71864377Y-82377000D01*
X72135623Y-82377000D01*
X72401656Y-82324083D01*
X72652254Y-82220282D01*
X72877787Y-82069586D01*
X73069586Y-81877787D01*
X73220282Y-81652254D01*
X73324083Y-81401656D01*
X73377000Y-81135623D01*
X73377000Y-80864377D01*
X73324083Y-80598344D01*
X73220282Y-80347746D01*
X73069586Y-80122213D01*
X72877787Y-79930414D01*
X72652254Y-79779718D01*
X72401656Y-79675917D01*
X72135623Y-79623000D01*
X71864377Y-79623000D01*
X71598344Y-79675917D01*
X71347746Y-79779718D01*
X71122213Y-79930414D01*
X70930414Y-80122213D01*
X70779718Y-80347746D01*
X70675917Y-80598344D01*
X70623000Y-80864377D01*
X58402000Y-80864377D01*
X58402000Y-75784830D01*
X67823000Y-75784830D01*
X67823000Y-76115170D01*
X67887446Y-76439163D01*
X68013862Y-76744357D01*
X68197389Y-77019025D01*
X68430975Y-77252611D01*
X68705643Y-77436138D01*
X69010837Y-77562554D01*
X69334830Y-77627000D01*
X69665170Y-77627000D01*
X69989163Y-77562554D01*
X70294357Y-77436138D01*
X70569025Y-77252611D01*
X70802611Y-77019025D01*
X70986138Y-76744357D01*
X71062644Y-76559654D01*
X110064098Y-76559654D01*
X110064098Y-76683162D01*
X110088193Y-76804297D01*
X110135458Y-76918404D01*
X110204075Y-77021097D01*
X110291409Y-77108431D01*
X110394102Y-77177048D01*
X110508209Y-77224313D01*
X110629344Y-77248408D01*
X110752852Y-77248408D01*
X110873987Y-77224313D01*
X110988094Y-77177048D01*
X111090787Y-77108431D01*
X111178121Y-77021097D01*
X111246738Y-76918404D01*
X111294003Y-76804297D01*
X111318098Y-76683162D01*
X111318098Y-76559654D01*
X111294003Y-76438519D01*
X111246738Y-76324412D01*
X111193098Y-76244134D01*
X111193098Y-70571617D01*
X111285154Y-70533486D01*
X111383753Y-70467604D01*
X111467604Y-70383753D01*
X111533486Y-70285154D01*
X111578866Y-70175597D01*
X111602000Y-70059292D01*
X111602000Y-69940708D01*
X111578866Y-69824403D01*
X111533486Y-69714846D01*
X111467604Y-69616247D01*
X111383753Y-69532396D01*
X111285154Y-69466514D01*
X111175597Y-69421134D01*
X111059292Y-69398000D01*
X110940708Y-69398000D01*
X110824403Y-69421134D01*
X110714846Y-69466514D01*
X110616247Y-69532396D01*
X110532396Y-69616247D01*
X110466514Y-69714846D01*
X110421134Y-69824403D01*
X110410078Y-69879988D01*
X110353566Y-69936500D01*
X110334414Y-69952218D01*
X110271681Y-70028657D01*
X110225067Y-70115867D01*
X110196362Y-70210494D01*
X110189098Y-70284250D01*
X110189098Y-70284259D01*
X110186671Y-70308902D01*
X110189098Y-70333545D01*
X110189099Y-76244132D01*
X110135458Y-76324412D01*
X110088193Y-76438519D01*
X110064098Y-76559654D01*
X71062644Y-76559654D01*
X71112554Y-76439163D01*
X71177000Y-76115170D01*
X71177000Y-75784830D01*
X71112554Y-75460837D01*
X70986138Y-75155643D01*
X70802611Y-74880975D01*
X70569025Y-74647389D01*
X70294357Y-74463862D01*
X69989163Y-74337446D01*
X69665170Y-74273000D01*
X69334830Y-74273000D01*
X69010837Y-74337446D01*
X68705643Y-74463862D01*
X68430975Y-74647389D01*
X68197389Y-74880975D01*
X68013862Y-75155643D01*
X67887446Y-75460837D01*
X67823000Y-75784830D01*
X58402000Y-75784830D01*
X58402000Y-69950000D01*
X70821176Y-69950000D01*
X70821176Y-72550000D01*
X70828455Y-72623905D01*
X70850012Y-72694970D01*
X70885019Y-72760463D01*
X70932131Y-72817869D01*
X70989537Y-72864981D01*
X71055030Y-72899988D01*
X71126095Y-72921545D01*
X71200000Y-72928824D01*
X73800000Y-72928824D01*
X73873905Y-72921545D01*
X73944970Y-72899988D01*
X74010463Y-72864981D01*
X74067869Y-72817869D01*
X74114981Y-72760463D01*
X74149988Y-72694970D01*
X74171545Y-72623905D01*
X74178824Y-72550000D01*
X74178824Y-70750000D01*
X90621176Y-70750000D01*
X90621176Y-72350000D01*
X90628455Y-72423905D01*
X90650012Y-72494970D01*
X90685019Y-72560463D01*
X90732131Y-72617869D01*
X90789537Y-72664981D01*
X90855030Y-72699988D01*
X90926095Y-72721545D01*
X91000000Y-72728824D01*
X92600000Y-72728824D01*
X92673905Y-72721545D01*
X92744970Y-72699988D01*
X92810463Y-72664981D01*
X92867869Y-72617869D01*
X92914981Y-72560463D01*
X92949988Y-72494970D01*
X92971545Y-72423905D01*
X92978824Y-72350000D01*
X92978824Y-70750000D01*
X92971545Y-70676095D01*
X92949988Y-70605030D01*
X92914981Y-70539537D01*
X92867869Y-70482131D01*
X92810463Y-70435019D01*
X92744970Y-70400012D01*
X92673905Y-70378455D01*
X92600000Y-70371176D01*
X91000000Y-70371176D01*
X90926095Y-70378455D01*
X90855030Y-70400012D01*
X90789537Y-70435019D01*
X90732131Y-70482131D01*
X90685019Y-70539537D01*
X90650012Y-70605030D01*
X90628455Y-70676095D01*
X90621176Y-70750000D01*
X74178824Y-70750000D01*
X74178824Y-69950000D01*
X74171545Y-69876095D01*
X74149988Y-69805030D01*
X74114981Y-69739537D01*
X74067869Y-69682131D01*
X74010463Y-69635019D01*
X73944970Y-69600012D01*
X73873905Y-69578455D01*
X73800000Y-69571176D01*
X71200000Y-69571176D01*
X71126095Y-69578455D01*
X71055030Y-69600012D01*
X70989537Y-69635019D01*
X70932131Y-69682131D01*
X70885019Y-69739537D01*
X70850012Y-69805030D01*
X70828455Y-69876095D01*
X70821176Y-69950000D01*
X58402000Y-69950000D01*
X58402000Y-62614377D01*
X88873000Y-62614377D01*
X88873000Y-62885623D01*
X88925917Y-63151656D01*
X89029718Y-63402254D01*
X89180414Y-63627787D01*
X89372213Y-63819586D01*
X89597746Y-63970282D01*
X89848344Y-64074083D01*
X90114377Y-64127000D01*
X90385623Y-64127000D01*
X90651656Y-64074083D01*
X90902254Y-63970282D01*
X91127787Y-63819586D01*
X91319586Y-63627787D01*
X91470282Y-63402254D01*
X91574083Y-63151656D01*
X91627000Y-62885623D01*
X91627000Y-62614377D01*
X91574083Y-62348344D01*
X91539303Y-62264377D01*
X94423000Y-62264377D01*
X94423000Y-62535623D01*
X94475917Y-62801656D01*
X94579718Y-63052254D01*
X94730414Y-63277787D01*
X94922213Y-63469586D01*
X95147746Y-63620282D01*
X95398344Y-63724083D01*
X95664377Y-63777000D01*
X95935623Y-63777000D01*
X96201656Y-63724083D01*
X96452254Y-63620282D01*
X96677787Y-63469586D01*
X96869586Y-63277787D01*
X97020282Y-63052254D01*
X97124083Y-62801656D01*
X97177000Y-62535623D01*
X97177000Y-62364377D01*
X138373000Y-62364377D01*
X138373000Y-62635623D01*
X138425917Y-62901656D01*
X138529718Y-63152254D01*
X138680414Y-63377787D01*
X138872213Y-63569586D01*
X139097746Y-63720282D01*
X139348344Y-63824083D01*
X139614377Y-63877000D01*
X139885623Y-63877000D01*
X140151656Y-63824083D01*
X140402254Y-63720282D01*
X140627787Y-63569586D01*
X140819586Y-63377787D01*
X140970282Y-63152254D01*
X141074083Y-62901656D01*
X141127000Y-62635623D01*
X141127000Y-62364377D01*
X141074083Y-62098344D01*
X140970282Y-61847746D01*
X140819586Y-61622213D01*
X140627787Y-61430414D01*
X140402254Y-61279718D01*
X140151656Y-61175917D01*
X139885623Y-61123000D01*
X139614377Y-61123000D01*
X139348344Y-61175917D01*
X139097746Y-61279718D01*
X138872213Y-61430414D01*
X138680414Y-61622213D01*
X138529718Y-61847746D01*
X138425917Y-62098344D01*
X138373000Y-62364377D01*
X97177000Y-62364377D01*
X97177000Y-62264377D01*
X97124083Y-61998344D01*
X97020282Y-61747746D01*
X96869586Y-61522213D01*
X96677787Y-61330414D01*
X96452254Y-61179718D01*
X96201656Y-61075917D01*
X95935623Y-61023000D01*
X95664377Y-61023000D01*
X95398344Y-61075917D01*
X95147746Y-61179718D01*
X94922213Y-61330414D01*
X94730414Y-61522213D01*
X94579718Y-61747746D01*
X94475917Y-61998344D01*
X94423000Y-62264377D01*
X91539303Y-62264377D01*
X91470282Y-62097746D01*
X91319586Y-61872213D01*
X91127787Y-61680414D01*
X90902254Y-61529718D01*
X90651656Y-61425917D01*
X90385623Y-61373000D01*
X90114377Y-61373000D01*
X89848344Y-61425917D01*
X89597746Y-61529718D01*
X89372213Y-61680414D01*
X89180414Y-61872213D01*
X89029718Y-62097746D01*
X88925917Y-62348344D01*
X88873000Y-62614377D01*
X58402000Y-62614377D01*
X58402000Y-59879151D01*
X130233000Y-59879151D01*
X130233000Y-60120849D01*
X130280153Y-60357903D01*
X130372647Y-60581202D01*
X130506927Y-60782167D01*
X130677833Y-60953073D01*
X130878798Y-61087353D01*
X131102097Y-61179847D01*
X131339151Y-61227000D01*
X131580849Y-61227000D01*
X131817903Y-61179847D01*
X132041202Y-61087353D01*
X132242167Y-60953073D01*
X132413073Y-60782167D01*
X132547353Y-60581202D01*
X132639847Y-60357903D01*
X132687000Y-60120849D01*
X132687000Y-59879151D01*
X132639847Y-59642097D01*
X132547353Y-59418798D01*
X132413073Y-59217833D01*
X132345240Y-59150000D01*
X132771176Y-59150000D01*
X132771176Y-60850000D01*
X132778455Y-60923905D01*
X132800012Y-60994970D01*
X132835019Y-61060463D01*
X132882131Y-61117869D01*
X132939537Y-61164981D01*
X133005030Y-61199988D01*
X133076095Y-61221545D01*
X133150000Y-61228824D01*
X134850000Y-61228824D01*
X134923905Y-61221545D01*
X134994970Y-61199988D01*
X135060463Y-61164981D01*
X135117869Y-61117869D01*
X135164981Y-61060463D01*
X135199988Y-60994970D01*
X135221545Y-60923905D01*
X135228824Y-60850000D01*
X135228824Y-59150000D01*
X135221545Y-59076095D01*
X135199988Y-59005030D01*
X135164981Y-58939537D01*
X135117869Y-58882131D01*
X135060463Y-58835019D01*
X134994970Y-58800012D01*
X134923905Y-58778455D01*
X134850000Y-58771176D01*
X133150000Y-58771176D01*
X133076095Y-58778455D01*
X133005030Y-58800012D01*
X132939537Y-58835019D01*
X132882131Y-58882131D01*
X132835019Y-58939537D01*
X132800012Y-59005030D01*
X132778455Y-59076095D01*
X132771176Y-59150000D01*
X132345240Y-59150000D01*
X132242167Y-59046927D01*
X132041202Y-58912647D01*
X131817903Y-58820153D01*
X131580849Y-58773000D01*
X131339151Y-58773000D01*
X131102097Y-58820153D01*
X130878798Y-58912647D01*
X130677833Y-59046927D01*
X130506927Y-59217833D01*
X130372647Y-59418798D01*
X130280153Y-59642097D01*
X130233000Y-59879151D01*
X58402000Y-59879151D01*
X58402000Y-57014377D01*
X96273000Y-57014377D01*
X96273000Y-57285623D01*
X96325917Y-57551656D01*
X96429718Y-57802254D01*
X96580414Y-58027787D01*
X96772213Y-58219586D01*
X96997746Y-58370282D01*
X97248344Y-58474083D01*
X97514377Y-58527000D01*
X97785623Y-58527000D01*
X98051656Y-58474083D01*
X98302254Y-58370282D01*
X98527787Y-58219586D01*
X98719586Y-58027787D01*
X98870282Y-57802254D01*
X98974083Y-57551656D01*
X99027000Y-57285623D01*
X99027000Y-57014377D01*
X98974083Y-56748344D01*
X98870282Y-56497746D01*
X98719586Y-56272213D01*
X98527787Y-56080414D01*
X98302254Y-55929718D01*
X98051656Y-55825917D01*
X97785623Y-55773000D01*
X97514377Y-55773000D01*
X97248344Y-55825917D01*
X96997746Y-55929718D01*
X96772213Y-56080414D01*
X96580414Y-56272213D01*
X96429718Y-56497746D01*
X96325917Y-56748344D01*
X96273000Y-57014377D01*
X58402000Y-57014377D01*
X58402000Y-52402000D01*
X153598000Y-52402000D01*
X153598001Y-107598000D01*
G37*
%TD.AperFunction*%
%TD*%
D24*
%TO.N,/5V0_LOGIC*%
X121873000Y-88983776D02*
X121085323Y-88196100D01*
X121071159Y-88178841D01*
X121002333Y-88122357D01*
X120923810Y-88080386D01*
X120838607Y-88054540D01*
X120772205Y-88048000D01*
X120750000Y-88045813D01*
X120727795Y-88048000D01*
X118149357Y-88048000D01*
X118133753Y-88032396D01*
X118035154Y-87966514D01*
X117925597Y-87921134D01*
X117870013Y-87910078D01*
X117622401Y-87662467D01*
X117606684Y-87643316D01*
X117530245Y-87580583D01*
X117443036Y-87533969D01*
X117348409Y-87505264D01*
X117274653Y-87498000D01*
X117274643Y-87498000D01*
X117250000Y-87495573D01*
X117225357Y-87498000D01*
X114332276Y-87498000D01*
X114285154Y-87466514D01*
X114175597Y-87421134D01*
X114059292Y-87398000D01*
X113940708Y-87398000D01*
X113824403Y-87421134D01*
X113714846Y-87466514D01*
X113616247Y-87532396D01*
X113532396Y-87616247D01*
X113466514Y-87714846D01*
X113421134Y-87824403D01*
X113398000Y-87940708D01*
X113398000Y-88059292D01*
X113421134Y-88175597D01*
X113466514Y-88285154D01*
X113498000Y-88332276D01*
X113498001Y-91417723D01*
X113466514Y-91464846D01*
X113421134Y-91574403D01*
X113398000Y-91690708D01*
X113398000Y-91809292D01*
X113421134Y-91925597D01*
X113466514Y-92035154D01*
X113532396Y-92133753D01*
X113616247Y-92217604D01*
X113714846Y-92283486D01*
X113824403Y-92328866D01*
X113940708Y-92352000D01*
X114059292Y-92352000D01*
X114175597Y-92328866D01*
X114285154Y-92283486D01*
X114383753Y-92217604D01*
X114467604Y-92133753D01*
X114533486Y-92035154D01*
X114578866Y-91925597D01*
X114602000Y-91809292D01*
X114602000Y-91690708D01*
X114578866Y-91574403D01*
X114533486Y-91464846D01*
X114502000Y-91417724D01*
X114502000Y-88502000D01*
X117042065Y-88502000D01*
X117160078Y-88620013D01*
X117171134Y-88675597D01*
X117216514Y-88785154D01*
X117282396Y-88883753D01*
X117366247Y-88967604D01*
X117464846Y-89033486D01*
X117574403Y-89078866D01*
X117690708Y-89102000D01*
X117809292Y-89102000D01*
X117925597Y-89078866D01*
X118035154Y-89033486D01*
X118133753Y-88967604D01*
X118149357Y-88952000D01*
X120562777Y-88952000D01*
X121798000Y-90187225D01*
X121798001Y-98727785D01*
X121795813Y-98750000D01*
X121804540Y-98838607D01*
X121830386Y-98923809D01*
X121859801Y-98978841D01*
X121872358Y-99002333D01*
X121873000Y-99003115D01*
X121873000Y-107598000D01*
X107491493Y-107598000D01*
X107533486Y-107535154D01*
X107578866Y-107425597D01*
X107602000Y-107309292D01*
X107602000Y-107283579D01*
X107627643Y-107252333D01*
X107669614Y-107173810D01*
X107695460Y-107088607D01*
X107702000Y-107022205D01*
X107702000Y-107022204D01*
X107704187Y-107000001D01*
X107702000Y-106977796D01*
X107702000Y-105149357D01*
X107717604Y-105133753D01*
X107783486Y-105035154D01*
X107828866Y-104925597D01*
X107852000Y-104809292D01*
X107852000Y-104690708D01*
X107828866Y-104574403D01*
X107783486Y-104464846D01*
X107717604Y-104366247D01*
X107633753Y-104282396D01*
X107535154Y-104216514D01*
X107425597Y-104171134D01*
X107309292Y-104148000D01*
X107190708Y-104148000D01*
X107074403Y-104171134D01*
X106964846Y-104216514D01*
X106866247Y-104282396D01*
X106782396Y-104366247D01*
X106716514Y-104464846D01*
X106671134Y-104574403D01*
X106648000Y-104690708D01*
X106648000Y-104809292D01*
X106671134Y-104925597D01*
X106716514Y-105035154D01*
X106782396Y-105133753D01*
X106798001Y-105149358D01*
X106798000Y-106682070D01*
X106714846Y-106716514D01*
X106616247Y-106782396D01*
X106532396Y-106866247D01*
X106466514Y-106964846D01*
X106421134Y-107074403D01*
X106398000Y-107190708D01*
X106398000Y-107309292D01*
X106421134Y-107425597D01*
X106466514Y-107535154D01*
X106508507Y-107598000D01*
X75561154Y-107598000D01*
X78166717Y-104879151D01*
X83193000Y-104879151D01*
X83193000Y-105120849D01*
X83240153Y-105357903D01*
X83332647Y-105581202D01*
X83466927Y-105782167D01*
X83637833Y-105953073D01*
X83838798Y-106087353D01*
X84062097Y-106179847D01*
X84299151Y-106227000D01*
X84540849Y-106227000D01*
X84777903Y-106179847D01*
X85001202Y-106087353D01*
X85202167Y-105953073D01*
X85373073Y-105782167D01*
X85507353Y-105581202D01*
X85599847Y-105357903D01*
X85647000Y-105120849D01*
X85647000Y-104879151D01*
X85733000Y-104879151D01*
X85733000Y-105120849D01*
X85780153Y-105357903D01*
X85872647Y-105581202D01*
X86006927Y-105782167D01*
X86177833Y-105953073D01*
X86378798Y-106087353D01*
X86602097Y-106179847D01*
X86839151Y-106227000D01*
X87080849Y-106227000D01*
X87317903Y-106179847D01*
X87541202Y-106087353D01*
X87742167Y-105953073D01*
X87913073Y-105782167D01*
X88047353Y-105581202D01*
X88139847Y-105357903D01*
X88187000Y-105120849D01*
X88187000Y-104879151D01*
X88139847Y-104642097D01*
X88047353Y-104418798D01*
X87913073Y-104217833D01*
X87742167Y-104046927D01*
X87541202Y-103912647D01*
X87317903Y-103820153D01*
X87080849Y-103773000D01*
X86839151Y-103773000D01*
X86602097Y-103820153D01*
X86378798Y-103912647D01*
X86177833Y-104046927D01*
X86006927Y-104217833D01*
X85872647Y-104418798D01*
X85780153Y-104642097D01*
X85733000Y-104879151D01*
X85647000Y-104879151D01*
X85599847Y-104642097D01*
X85507353Y-104418798D01*
X85373073Y-104217833D01*
X85202167Y-104046927D01*
X85001202Y-103912647D01*
X84777903Y-103820153D01*
X84540849Y-103773000D01*
X84299151Y-103773000D01*
X84062097Y-103820153D01*
X83838798Y-103912647D01*
X83637833Y-104046927D01*
X83466927Y-104217833D01*
X83332647Y-104418798D01*
X83240153Y-104642097D01*
X83193000Y-104879151D01*
X78166717Y-104879151D01*
X82861058Y-99980708D01*
X100058000Y-99980708D01*
X100058000Y-100099292D01*
X100081134Y-100215597D01*
X100126514Y-100325154D01*
X100192396Y-100423753D01*
X100276247Y-100507604D01*
X100374846Y-100573486D01*
X100484403Y-100618866D01*
X100600708Y-100642000D01*
X100622777Y-100642000D01*
X101284681Y-101303905D01*
X101298841Y-101321159D01*
X101367667Y-101377643D01*
X101446190Y-101419614D01*
X101531392Y-101445460D01*
X101619999Y-101454187D01*
X101642204Y-101452000D01*
X105060643Y-101452000D01*
X105076247Y-101467604D01*
X105174846Y-101533486D01*
X105284403Y-101578866D01*
X105400708Y-101602000D01*
X105519292Y-101602000D01*
X105635597Y-101578866D01*
X105745154Y-101533486D01*
X105843753Y-101467604D01*
X105927604Y-101383753D01*
X105993486Y-101285154D01*
X106038866Y-101175597D01*
X106062000Y-101059292D01*
X106062000Y-100940708D01*
X106038866Y-100824403D01*
X105993486Y-100714846D01*
X105927604Y-100616247D01*
X105843753Y-100532396D01*
X105745154Y-100466514D01*
X105635597Y-100421134D01*
X105519292Y-100398000D01*
X105400708Y-100398000D01*
X105284403Y-100421134D01*
X105174846Y-100466514D01*
X105076247Y-100532396D01*
X105060643Y-100548000D01*
X103444301Y-100548000D01*
X103452000Y-100509292D01*
X103452000Y-100390708D01*
X103428866Y-100274403D01*
X103383486Y-100164846D01*
X103317604Y-100066247D01*
X103233753Y-99982396D01*
X103135154Y-99916514D01*
X103025597Y-99871134D01*
X102909292Y-99848000D01*
X102790708Y-99848000D01*
X102674403Y-99871134D01*
X102564846Y-99916514D01*
X102466247Y-99982396D01*
X102450643Y-99998000D01*
X102137224Y-99998000D01*
X101976355Y-99837131D01*
X101985154Y-99833486D01*
X102083753Y-99767604D01*
X102099357Y-99752000D01*
X105077795Y-99752000D01*
X105100000Y-99754187D01*
X105122205Y-99752000D01*
X105188607Y-99745460D01*
X105273810Y-99719614D01*
X105352333Y-99677643D01*
X105421159Y-99621159D01*
X105435323Y-99603900D01*
X105803911Y-99235314D01*
X105821159Y-99221159D01*
X105877643Y-99152333D01*
X105919614Y-99073810D01*
X105945460Y-98988607D01*
X105952000Y-98922205D01*
X105952000Y-98922204D01*
X105954187Y-98900001D01*
X105952000Y-98877796D01*
X105952000Y-96500114D01*
X105966514Y-96535154D01*
X106032396Y-96633753D01*
X106048000Y-96649357D01*
X106048001Y-100487805D01*
X106045813Y-100510020D01*
X106054540Y-100598627D01*
X106080386Y-100683829D01*
X106090277Y-100702333D01*
X106122358Y-100762353D01*
X106178842Y-100831179D01*
X106196096Y-100845339D01*
X106897990Y-101547234D01*
X106897990Y-101569302D01*
X106921124Y-101685607D01*
X106966504Y-101795164D01*
X107032386Y-101893763D01*
X107116237Y-101977614D01*
X107214836Y-102043496D01*
X107324393Y-102088876D01*
X107440698Y-102112010D01*
X107559282Y-102112010D01*
X107675587Y-102088876D01*
X107785144Y-102043496D01*
X107883743Y-101977614D01*
X107967594Y-101893763D01*
X108033476Y-101795164D01*
X108078856Y-101685607D01*
X108101990Y-101569302D01*
X108101990Y-101450718D01*
X108078856Y-101334413D01*
X108033476Y-101224856D01*
X107967594Y-101126257D01*
X107883743Y-101042406D01*
X107785144Y-100976524D01*
X107675587Y-100931144D01*
X107559282Y-100908010D01*
X107537214Y-100908010D01*
X106952000Y-100322797D01*
X106952000Y-96649357D01*
X106967604Y-96633753D01*
X107033486Y-96535154D01*
X107051896Y-96490708D01*
X110998000Y-96490708D01*
X110998000Y-96609292D01*
X111021134Y-96725597D01*
X111066514Y-96835154D01*
X111132396Y-96933753D01*
X111216247Y-97017604D01*
X111314846Y-97083486D01*
X111424403Y-97128866D01*
X111540708Y-97152000D01*
X111562777Y-97152000D01*
X112964681Y-98553905D01*
X112978841Y-98571159D01*
X113047667Y-98627643D01*
X113126190Y-98669614D01*
X113211392Y-98695460D01*
X113299999Y-98704187D01*
X113322204Y-98702000D01*
X115350643Y-98702000D01*
X115366247Y-98717604D01*
X115464846Y-98783486D01*
X115574403Y-98828866D01*
X115690708Y-98852000D01*
X115809292Y-98852000D01*
X115925597Y-98828866D01*
X116035154Y-98783486D01*
X116133753Y-98717604D01*
X116217604Y-98633753D01*
X116283486Y-98535154D01*
X116328866Y-98425597D01*
X116352000Y-98309292D01*
X116352000Y-98190708D01*
X116328866Y-98074403D01*
X116283486Y-97964846D01*
X116217604Y-97866247D01*
X116133753Y-97782396D01*
X116035154Y-97716514D01*
X115925597Y-97671134D01*
X115809292Y-97648000D01*
X115690708Y-97648000D01*
X115574403Y-97671134D01*
X115464846Y-97716514D01*
X115366247Y-97782396D01*
X115350643Y-97798000D01*
X113487224Y-97798000D01*
X112202000Y-96512777D01*
X112202000Y-96490708D01*
X112178866Y-96374403D01*
X112133486Y-96264846D01*
X112067604Y-96166247D01*
X111983753Y-96082396D01*
X111885154Y-96016514D01*
X111775597Y-95971134D01*
X111659292Y-95948000D01*
X111540708Y-95948000D01*
X111424403Y-95971134D01*
X111314846Y-96016514D01*
X111216247Y-96082396D01*
X111132396Y-96166247D01*
X111066514Y-96264846D01*
X111021134Y-96374403D01*
X110998000Y-96490708D01*
X107051896Y-96490708D01*
X107078866Y-96425597D01*
X107102000Y-96309292D01*
X107102000Y-96190708D01*
X107078866Y-96074403D01*
X107033486Y-95964846D01*
X106967604Y-95866247D01*
X106883753Y-95782396D01*
X106785154Y-95716514D01*
X106675597Y-95671134D01*
X106559292Y-95648000D01*
X106440708Y-95648000D01*
X106324403Y-95671134D01*
X106214846Y-95716514D01*
X106116247Y-95782396D01*
X106032396Y-95866247D01*
X105966514Y-95964846D01*
X105952000Y-95999886D01*
X105952000Y-94199359D01*
X105967604Y-94183755D01*
X106033486Y-94085156D01*
X106078866Y-93975599D01*
X106102000Y-93859294D01*
X106102000Y-93740710D01*
X106078866Y-93624405D01*
X106033486Y-93514848D01*
X105967604Y-93416249D01*
X105883753Y-93332398D01*
X105785154Y-93266516D01*
X105675597Y-93221136D01*
X105559292Y-93198002D01*
X105440708Y-93198002D01*
X105324403Y-93221136D01*
X105214846Y-93266516D01*
X105116247Y-93332398D01*
X105032396Y-93416249D01*
X104966514Y-93514848D01*
X104921134Y-93624405D01*
X104898000Y-93740710D01*
X104898000Y-93859294D01*
X104921134Y-93975599D01*
X104966514Y-94085156D01*
X105032396Y-94183755D01*
X105048001Y-94199360D01*
X105048000Y-98712776D01*
X104912776Y-98848000D01*
X102099357Y-98848000D01*
X102083753Y-98832396D01*
X101985154Y-98766514D01*
X101875597Y-98721134D01*
X101759292Y-98698000D01*
X101640708Y-98698000D01*
X101524403Y-98721134D01*
X101414846Y-98766514D01*
X101316247Y-98832396D01*
X101232396Y-98916247D01*
X101166514Y-99014846D01*
X101162869Y-99023646D01*
X101152000Y-99012777D01*
X101152000Y-98949357D01*
X101167604Y-98933753D01*
X101233486Y-98835154D01*
X101278866Y-98725597D01*
X101302000Y-98609292D01*
X101302000Y-98490708D01*
X101278866Y-98374403D01*
X101233486Y-98264846D01*
X101167604Y-98166247D01*
X101083753Y-98082396D01*
X100985154Y-98016514D01*
X100875597Y-97971134D01*
X100759292Y-97948000D01*
X100640708Y-97948000D01*
X100524403Y-97971134D01*
X100414846Y-98016514D01*
X100316247Y-98082396D01*
X100232396Y-98166247D01*
X100166514Y-98264846D01*
X100121134Y-98374403D01*
X100098000Y-98490708D01*
X100098000Y-98609292D01*
X100121134Y-98725597D01*
X100166514Y-98835154D01*
X100232396Y-98933753D01*
X100248000Y-98949357D01*
X100248000Y-99177794D01*
X100245813Y-99200000D01*
X100248000Y-99222204D01*
X100254540Y-99288606D01*
X100280386Y-99373809D01*
X100322357Y-99452332D01*
X100369664Y-99509977D01*
X100276247Y-99572396D01*
X100192396Y-99656247D01*
X100126514Y-99754846D01*
X100081134Y-99864403D01*
X100058000Y-99980708D01*
X82861058Y-99980708D01*
X85128792Y-97614377D01*
X87373000Y-97614377D01*
X87373000Y-97885623D01*
X87425917Y-98151656D01*
X87529718Y-98402254D01*
X87680414Y-98627787D01*
X87872213Y-98819586D01*
X88097746Y-98970282D01*
X88348344Y-99074083D01*
X88614377Y-99127000D01*
X88885623Y-99127000D01*
X89151656Y-99074083D01*
X89402254Y-98970282D01*
X89627787Y-98819586D01*
X89819586Y-98627787D01*
X89970282Y-98402254D01*
X90074083Y-98151656D01*
X90127000Y-97885623D01*
X90127000Y-97614377D01*
X90074083Y-97348344D01*
X89970282Y-97097746D01*
X89819586Y-96872213D01*
X89627787Y-96680414D01*
X89402254Y-96529718D01*
X89151656Y-96425917D01*
X88885623Y-96373000D01*
X88614377Y-96373000D01*
X88348344Y-96425917D01*
X88097746Y-96529718D01*
X87872213Y-96680414D01*
X87680414Y-96872213D01*
X87529718Y-97097746D01*
X87425917Y-97348344D01*
X87373000Y-97614377D01*
X85128792Y-97614377D01*
X96133893Y-86130793D01*
X119473000Y-86130793D01*
X119482073Y-86222912D01*
X119517925Y-86341102D01*
X119576147Y-86450027D01*
X119654499Y-86545501D01*
X119749972Y-86623853D01*
X119858897Y-86682075D01*
X119977087Y-86717927D01*
X120100000Y-86730033D01*
X120222912Y-86717927D01*
X120341102Y-86682075D01*
X120450027Y-86623853D01*
X120545501Y-86545501D01*
X120623853Y-86450028D01*
X120682075Y-86341103D01*
X120717927Y-86222913D01*
X120727000Y-86130794D01*
X120727000Y-83769206D01*
X120717927Y-83677087D01*
X120682075Y-83558897D01*
X120623853Y-83449972D01*
X120545501Y-83354499D01*
X120450028Y-83276147D01*
X120341103Y-83217925D01*
X120222913Y-83182073D01*
X120100000Y-83169967D01*
X119977088Y-83182073D01*
X119858898Y-83217925D01*
X119749973Y-83276147D01*
X119654500Y-83354499D01*
X119576148Y-83449972D01*
X119517926Y-83558897D01*
X119482074Y-83677087D01*
X119473001Y-83769206D01*
X119473000Y-86130793D01*
X96133893Y-86130793D01*
X97393194Y-84816740D01*
X98082934Y-84127000D01*
X102250000Y-84127000D01*
X102274776Y-84124560D01*
X102298601Y-84117333D01*
X102320557Y-84105597D01*
X102339803Y-84089803D01*
X102355597Y-84070557D01*
X102367333Y-84048601D01*
X102374560Y-84024776D01*
X102377000Y-84000000D01*
X102377000Y-82127000D01*
X121873000Y-82127000D01*
X121873000Y-88983776D01*
%TA.AperFunction,Conductor*%
D23*
G36*
X121873000Y-88983776D02*
G01*
X121085323Y-88196100D01*
X121071159Y-88178841D01*
X121002333Y-88122357D01*
X120923810Y-88080386D01*
X120838607Y-88054540D01*
X120772205Y-88048000D01*
X120750000Y-88045813D01*
X120727795Y-88048000D01*
X118149357Y-88048000D01*
X118133753Y-88032396D01*
X118035154Y-87966514D01*
X117925597Y-87921134D01*
X117870013Y-87910078D01*
X117622401Y-87662467D01*
X117606684Y-87643316D01*
X117530245Y-87580583D01*
X117443036Y-87533969D01*
X117348409Y-87505264D01*
X117274653Y-87498000D01*
X117274643Y-87498000D01*
X117250000Y-87495573D01*
X117225357Y-87498000D01*
X114332276Y-87498000D01*
X114285154Y-87466514D01*
X114175597Y-87421134D01*
X114059292Y-87398000D01*
X113940708Y-87398000D01*
X113824403Y-87421134D01*
X113714846Y-87466514D01*
X113616247Y-87532396D01*
X113532396Y-87616247D01*
X113466514Y-87714846D01*
X113421134Y-87824403D01*
X113398000Y-87940708D01*
X113398000Y-88059292D01*
X113421134Y-88175597D01*
X113466514Y-88285154D01*
X113498000Y-88332276D01*
X113498001Y-91417723D01*
X113466514Y-91464846D01*
X113421134Y-91574403D01*
X113398000Y-91690708D01*
X113398000Y-91809292D01*
X113421134Y-91925597D01*
X113466514Y-92035154D01*
X113532396Y-92133753D01*
X113616247Y-92217604D01*
X113714846Y-92283486D01*
X113824403Y-92328866D01*
X113940708Y-92352000D01*
X114059292Y-92352000D01*
X114175597Y-92328866D01*
X114285154Y-92283486D01*
X114383753Y-92217604D01*
X114467604Y-92133753D01*
X114533486Y-92035154D01*
X114578866Y-91925597D01*
X114602000Y-91809292D01*
X114602000Y-91690708D01*
X114578866Y-91574403D01*
X114533486Y-91464846D01*
X114502000Y-91417724D01*
X114502000Y-88502000D01*
X117042065Y-88502000D01*
X117160078Y-88620013D01*
X117171134Y-88675597D01*
X117216514Y-88785154D01*
X117282396Y-88883753D01*
X117366247Y-88967604D01*
X117464846Y-89033486D01*
X117574403Y-89078866D01*
X117690708Y-89102000D01*
X117809292Y-89102000D01*
X117925597Y-89078866D01*
X118035154Y-89033486D01*
X118133753Y-88967604D01*
X118149357Y-88952000D01*
X120562777Y-88952000D01*
X121798000Y-90187225D01*
X121798001Y-98727785D01*
X121795813Y-98750000D01*
X121804540Y-98838607D01*
X121830386Y-98923809D01*
X121859801Y-98978841D01*
X121872358Y-99002333D01*
X121873000Y-99003115D01*
X121873000Y-107598000D01*
X107491493Y-107598000D01*
X107533486Y-107535154D01*
X107578866Y-107425597D01*
X107602000Y-107309292D01*
X107602000Y-107283579D01*
X107627643Y-107252333D01*
X107669614Y-107173810D01*
X107695460Y-107088607D01*
X107702000Y-107022205D01*
X107702000Y-107022204D01*
X107704187Y-107000001D01*
X107702000Y-106977796D01*
X107702000Y-105149357D01*
X107717604Y-105133753D01*
X107783486Y-105035154D01*
X107828866Y-104925597D01*
X107852000Y-104809292D01*
X107852000Y-104690708D01*
X107828866Y-104574403D01*
X107783486Y-104464846D01*
X107717604Y-104366247D01*
X107633753Y-104282396D01*
X107535154Y-104216514D01*
X107425597Y-104171134D01*
X107309292Y-104148000D01*
X107190708Y-104148000D01*
X107074403Y-104171134D01*
X106964846Y-104216514D01*
X106866247Y-104282396D01*
X106782396Y-104366247D01*
X106716514Y-104464846D01*
X106671134Y-104574403D01*
X106648000Y-104690708D01*
X106648000Y-104809292D01*
X106671134Y-104925597D01*
X106716514Y-105035154D01*
X106782396Y-105133753D01*
X106798001Y-105149358D01*
X106798000Y-106682070D01*
X106714846Y-106716514D01*
X106616247Y-106782396D01*
X106532396Y-106866247D01*
X106466514Y-106964846D01*
X106421134Y-107074403D01*
X106398000Y-107190708D01*
X106398000Y-107309292D01*
X106421134Y-107425597D01*
X106466514Y-107535154D01*
X106508507Y-107598000D01*
X75561154Y-107598000D01*
X78166717Y-104879151D01*
X83193000Y-104879151D01*
X83193000Y-105120849D01*
X83240153Y-105357903D01*
X83332647Y-105581202D01*
X83466927Y-105782167D01*
X83637833Y-105953073D01*
X83838798Y-106087353D01*
X84062097Y-106179847D01*
X84299151Y-106227000D01*
X84540849Y-106227000D01*
X84777903Y-106179847D01*
X85001202Y-106087353D01*
X85202167Y-105953073D01*
X85373073Y-105782167D01*
X85507353Y-105581202D01*
X85599847Y-105357903D01*
X85647000Y-105120849D01*
X85647000Y-104879151D01*
X85733000Y-104879151D01*
X85733000Y-105120849D01*
X85780153Y-105357903D01*
X85872647Y-105581202D01*
X86006927Y-105782167D01*
X86177833Y-105953073D01*
X86378798Y-106087353D01*
X86602097Y-106179847D01*
X86839151Y-106227000D01*
X87080849Y-106227000D01*
X87317903Y-106179847D01*
X87541202Y-106087353D01*
X87742167Y-105953073D01*
X87913073Y-105782167D01*
X88047353Y-105581202D01*
X88139847Y-105357903D01*
X88187000Y-105120849D01*
X88187000Y-104879151D01*
X88139847Y-104642097D01*
X88047353Y-104418798D01*
X87913073Y-104217833D01*
X87742167Y-104046927D01*
X87541202Y-103912647D01*
X87317903Y-103820153D01*
X87080849Y-103773000D01*
X86839151Y-103773000D01*
X86602097Y-103820153D01*
X86378798Y-103912647D01*
X86177833Y-104046927D01*
X86006927Y-104217833D01*
X85872647Y-104418798D01*
X85780153Y-104642097D01*
X85733000Y-104879151D01*
X85647000Y-104879151D01*
X85599847Y-104642097D01*
X85507353Y-104418798D01*
X85373073Y-104217833D01*
X85202167Y-104046927D01*
X85001202Y-103912647D01*
X84777903Y-103820153D01*
X84540849Y-103773000D01*
X84299151Y-103773000D01*
X84062097Y-103820153D01*
X83838798Y-103912647D01*
X83637833Y-104046927D01*
X83466927Y-104217833D01*
X83332647Y-104418798D01*
X83240153Y-104642097D01*
X83193000Y-104879151D01*
X78166717Y-104879151D01*
X82861058Y-99980708D01*
X100058000Y-99980708D01*
X100058000Y-100099292D01*
X100081134Y-100215597D01*
X100126514Y-100325154D01*
X100192396Y-100423753D01*
X100276247Y-100507604D01*
X100374846Y-100573486D01*
X100484403Y-100618866D01*
X100600708Y-100642000D01*
X100622777Y-100642000D01*
X101284681Y-101303905D01*
X101298841Y-101321159D01*
X101367667Y-101377643D01*
X101446190Y-101419614D01*
X101531392Y-101445460D01*
X101619999Y-101454187D01*
X101642204Y-101452000D01*
X105060643Y-101452000D01*
X105076247Y-101467604D01*
X105174846Y-101533486D01*
X105284403Y-101578866D01*
X105400708Y-101602000D01*
X105519292Y-101602000D01*
X105635597Y-101578866D01*
X105745154Y-101533486D01*
X105843753Y-101467604D01*
X105927604Y-101383753D01*
X105993486Y-101285154D01*
X106038866Y-101175597D01*
X106062000Y-101059292D01*
X106062000Y-100940708D01*
X106038866Y-100824403D01*
X105993486Y-100714846D01*
X105927604Y-100616247D01*
X105843753Y-100532396D01*
X105745154Y-100466514D01*
X105635597Y-100421134D01*
X105519292Y-100398000D01*
X105400708Y-100398000D01*
X105284403Y-100421134D01*
X105174846Y-100466514D01*
X105076247Y-100532396D01*
X105060643Y-100548000D01*
X103444301Y-100548000D01*
X103452000Y-100509292D01*
X103452000Y-100390708D01*
X103428866Y-100274403D01*
X103383486Y-100164846D01*
X103317604Y-100066247D01*
X103233753Y-99982396D01*
X103135154Y-99916514D01*
X103025597Y-99871134D01*
X102909292Y-99848000D01*
X102790708Y-99848000D01*
X102674403Y-99871134D01*
X102564846Y-99916514D01*
X102466247Y-99982396D01*
X102450643Y-99998000D01*
X102137224Y-99998000D01*
X101976355Y-99837131D01*
X101985154Y-99833486D01*
X102083753Y-99767604D01*
X102099357Y-99752000D01*
X105077795Y-99752000D01*
X105100000Y-99754187D01*
X105122205Y-99752000D01*
X105188607Y-99745460D01*
X105273810Y-99719614D01*
X105352333Y-99677643D01*
X105421159Y-99621159D01*
X105435323Y-99603900D01*
X105803911Y-99235314D01*
X105821159Y-99221159D01*
X105877643Y-99152333D01*
X105919614Y-99073810D01*
X105945460Y-98988607D01*
X105952000Y-98922205D01*
X105952000Y-98922204D01*
X105954187Y-98900001D01*
X105952000Y-98877796D01*
X105952000Y-96500114D01*
X105966514Y-96535154D01*
X106032396Y-96633753D01*
X106048000Y-96649357D01*
X106048001Y-100487805D01*
X106045813Y-100510020D01*
X106054540Y-100598627D01*
X106080386Y-100683829D01*
X106090277Y-100702333D01*
X106122358Y-100762353D01*
X106178842Y-100831179D01*
X106196096Y-100845339D01*
X106897990Y-101547234D01*
X106897990Y-101569302D01*
X106921124Y-101685607D01*
X106966504Y-101795164D01*
X107032386Y-101893763D01*
X107116237Y-101977614D01*
X107214836Y-102043496D01*
X107324393Y-102088876D01*
X107440698Y-102112010D01*
X107559282Y-102112010D01*
X107675587Y-102088876D01*
X107785144Y-102043496D01*
X107883743Y-101977614D01*
X107967594Y-101893763D01*
X108033476Y-101795164D01*
X108078856Y-101685607D01*
X108101990Y-101569302D01*
X108101990Y-101450718D01*
X108078856Y-101334413D01*
X108033476Y-101224856D01*
X107967594Y-101126257D01*
X107883743Y-101042406D01*
X107785144Y-100976524D01*
X107675587Y-100931144D01*
X107559282Y-100908010D01*
X107537214Y-100908010D01*
X106952000Y-100322797D01*
X106952000Y-96649357D01*
X106967604Y-96633753D01*
X107033486Y-96535154D01*
X107051896Y-96490708D01*
X110998000Y-96490708D01*
X110998000Y-96609292D01*
X111021134Y-96725597D01*
X111066514Y-96835154D01*
X111132396Y-96933753D01*
X111216247Y-97017604D01*
X111314846Y-97083486D01*
X111424403Y-97128866D01*
X111540708Y-97152000D01*
X111562777Y-97152000D01*
X112964681Y-98553905D01*
X112978841Y-98571159D01*
X113047667Y-98627643D01*
X113126190Y-98669614D01*
X113211392Y-98695460D01*
X113299999Y-98704187D01*
X113322204Y-98702000D01*
X115350643Y-98702000D01*
X115366247Y-98717604D01*
X115464846Y-98783486D01*
X115574403Y-98828866D01*
X115690708Y-98852000D01*
X115809292Y-98852000D01*
X115925597Y-98828866D01*
X116035154Y-98783486D01*
X116133753Y-98717604D01*
X116217604Y-98633753D01*
X116283486Y-98535154D01*
X116328866Y-98425597D01*
X116352000Y-98309292D01*
X116352000Y-98190708D01*
X116328866Y-98074403D01*
X116283486Y-97964846D01*
X116217604Y-97866247D01*
X116133753Y-97782396D01*
X116035154Y-97716514D01*
X115925597Y-97671134D01*
X115809292Y-97648000D01*
X115690708Y-97648000D01*
X115574403Y-97671134D01*
X115464846Y-97716514D01*
X115366247Y-97782396D01*
X115350643Y-97798000D01*
X113487224Y-97798000D01*
X112202000Y-96512777D01*
X112202000Y-96490708D01*
X112178866Y-96374403D01*
X112133486Y-96264846D01*
X112067604Y-96166247D01*
X111983753Y-96082396D01*
X111885154Y-96016514D01*
X111775597Y-95971134D01*
X111659292Y-95948000D01*
X111540708Y-95948000D01*
X111424403Y-95971134D01*
X111314846Y-96016514D01*
X111216247Y-96082396D01*
X111132396Y-96166247D01*
X111066514Y-96264846D01*
X111021134Y-96374403D01*
X110998000Y-96490708D01*
X107051896Y-96490708D01*
X107078866Y-96425597D01*
X107102000Y-96309292D01*
X107102000Y-96190708D01*
X107078866Y-96074403D01*
X107033486Y-95964846D01*
X106967604Y-95866247D01*
X106883753Y-95782396D01*
X106785154Y-95716514D01*
X106675597Y-95671134D01*
X106559292Y-95648000D01*
X106440708Y-95648000D01*
X106324403Y-95671134D01*
X106214846Y-95716514D01*
X106116247Y-95782396D01*
X106032396Y-95866247D01*
X105966514Y-95964846D01*
X105952000Y-95999886D01*
X105952000Y-94199359D01*
X105967604Y-94183755D01*
X106033486Y-94085156D01*
X106078866Y-93975599D01*
X106102000Y-93859294D01*
X106102000Y-93740710D01*
X106078866Y-93624405D01*
X106033486Y-93514848D01*
X105967604Y-93416249D01*
X105883753Y-93332398D01*
X105785154Y-93266516D01*
X105675597Y-93221136D01*
X105559292Y-93198002D01*
X105440708Y-93198002D01*
X105324403Y-93221136D01*
X105214846Y-93266516D01*
X105116247Y-93332398D01*
X105032396Y-93416249D01*
X104966514Y-93514848D01*
X104921134Y-93624405D01*
X104898000Y-93740710D01*
X104898000Y-93859294D01*
X104921134Y-93975599D01*
X104966514Y-94085156D01*
X105032396Y-94183755D01*
X105048001Y-94199360D01*
X105048000Y-98712776D01*
X104912776Y-98848000D01*
X102099357Y-98848000D01*
X102083753Y-98832396D01*
X101985154Y-98766514D01*
X101875597Y-98721134D01*
X101759292Y-98698000D01*
X101640708Y-98698000D01*
X101524403Y-98721134D01*
X101414846Y-98766514D01*
X101316247Y-98832396D01*
X101232396Y-98916247D01*
X101166514Y-99014846D01*
X101162869Y-99023646D01*
X101152000Y-99012777D01*
X101152000Y-98949357D01*
X101167604Y-98933753D01*
X101233486Y-98835154D01*
X101278866Y-98725597D01*
X101302000Y-98609292D01*
X101302000Y-98490708D01*
X101278866Y-98374403D01*
X101233486Y-98264846D01*
X101167604Y-98166247D01*
X101083753Y-98082396D01*
X100985154Y-98016514D01*
X100875597Y-97971134D01*
X100759292Y-97948000D01*
X100640708Y-97948000D01*
X100524403Y-97971134D01*
X100414846Y-98016514D01*
X100316247Y-98082396D01*
X100232396Y-98166247D01*
X100166514Y-98264846D01*
X100121134Y-98374403D01*
X100098000Y-98490708D01*
X100098000Y-98609292D01*
X100121134Y-98725597D01*
X100166514Y-98835154D01*
X100232396Y-98933753D01*
X100248000Y-98949357D01*
X100248000Y-99177794D01*
X100245813Y-99200000D01*
X100248000Y-99222204D01*
X100254540Y-99288606D01*
X100280386Y-99373809D01*
X100322357Y-99452332D01*
X100369664Y-99509977D01*
X100276247Y-99572396D01*
X100192396Y-99656247D01*
X100126514Y-99754846D01*
X100081134Y-99864403D01*
X100058000Y-99980708D01*
X82861058Y-99980708D01*
X85128792Y-97614377D01*
X87373000Y-97614377D01*
X87373000Y-97885623D01*
X87425917Y-98151656D01*
X87529718Y-98402254D01*
X87680414Y-98627787D01*
X87872213Y-98819586D01*
X88097746Y-98970282D01*
X88348344Y-99074083D01*
X88614377Y-99127000D01*
X88885623Y-99127000D01*
X89151656Y-99074083D01*
X89402254Y-98970282D01*
X89627787Y-98819586D01*
X89819586Y-98627787D01*
X89970282Y-98402254D01*
X90074083Y-98151656D01*
X90127000Y-97885623D01*
X90127000Y-97614377D01*
X90074083Y-97348344D01*
X89970282Y-97097746D01*
X89819586Y-96872213D01*
X89627787Y-96680414D01*
X89402254Y-96529718D01*
X89151656Y-96425917D01*
X88885623Y-96373000D01*
X88614377Y-96373000D01*
X88348344Y-96425917D01*
X88097746Y-96529718D01*
X87872213Y-96680414D01*
X87680414Y-96872213D01*
X87529718Y-97097746D01*
X87425917Y-97348344D01*
X87373000Y-97614377D01*
X85128792Y-97614377D01*
X96133893Y-86130793D01*
X119473000Y-86130793D01*
X119482073Y-86222912D01*
X119517925Y-86341102D01*
X119576147Y-86450027D01*
X119654499Y-86545501D01*
X119749972Y-86623853D01*
X119858897Y-86682075D01*
X119977087Y-86717927D01*
X120100000Y-86730033D01*
X120222912Y-86717927D01*
X120341102Y-86682075D01*
X120450027Y-86623853D01*
X120545501Y-86545501D01*
X120623853Y-86450028D01*
X120682075Y-86341103D01*
X120717927Y-86222913D01*
X120727000Y-86130794D01*
X120727000Y-83769206D01*
X120717927Y-83677087D01*
X120682075Y-83558897D01*
X120623853Y-83449972D01*
X120545501Y-83354499D01*
X120450028Y-83276147D01*
X120341103Y-83217925D01*
X120222913Y-83182073D01*
X120100000Y-83169967D01*
X119977088Y-83182073D01*
X119858898Y-83217925D01*
X119749973Y-83276147D01*
X119654500Y-83354499D01*
X119576148Y-83449972D01*
X119517926Y-83558897D01*
X119482074Y-83677087D01*
X119473001Y-83769206D01*
X119473000Y-86130793D01*
X96133893Y-86130793D01*
X97393194Y-84816740D01*
X98082934Y-84127000D01*
X102250000Y-84127000D01*
X102274776Y-84124560D01*
X102298601Y-84117333D01*
X102320557Y-84105597D01*
X102339803Y-84089803D01*
X102355597Y-84070557D01*
X102367333Y-84048601D01*
X102374560Y-84024776D01*
X102377000Y-84000000D01*
X102377000Y-82127000D01*
X121873000Y-82127000D01*
X121873000Y-88983776D01*
G37*
%TD.AperFunction*%
%TD*%
D24*
%TO.N,/5V0_Out*%
X151748001Y-97466794D02*
X150696796Y-98518000D01*
X131004643Y-98518000D01*
X130980000Y-98515573D01*
X130955357Y-98518000D01*
X130955347Y-98518000D01*
X130881591Y-98525264D01*
X130786964Y-98553969D01*
X130699755Y-98600583D01*
X130623316Y-98663316D01*
X130607603Y-98682462D01*
X130161807Y-99128259D01*
X130067111Y-99147095D01*
X129953004Y-99194360D01*
X129850311Y-99262977D01*
X129762977Y-99350311D01*
X129694360Y-99453004D01*
X129647095Y-99567111D01*
X129623000Y-99688246D01*
X129623000Y-99811754D01*
X129647095Y-99932889D01*
X129694360Y-100046996D01*
X129762977Y-100149689D01*
X129850311Y-100237023D01*
X129953004Y-100305640D01*
X130067111Y-100352905D01*
X130188246Y-100377000D01*
X130311754Y-100377000D01*
X130432889Y-100352905D01*
X130546996Y-100305640D01*
X130649689Y-100237023D01*
X130737023Y-100149689D01*
X130805640Y-100046996D01*
X130852905Y-99932889D01*
X130871741Y-99838193D01*
X131150115Y-99559819D01*
X131147095Y-99567111D01*
X131123000Y-99688246D01*
X131123000Y-99811754D01*
X131147095Y-99932889D01*
X131194360Y-100046996D01*
X131262977Y-100149689D01*
X131350311Y-100237023D01*
X131453004Y-100305640D01*
X131567111Y-100352905D01*
X131688246Y-100377000D01*
X131811754Y-100377000D01*
X131932889Y-100352905D01*
X132046996Y-100305640D01*
X132127274Y-100252000D01*
X146123000Y-100252000D01*
X146123000Y-107598000D01*
X125085262Y-107598000D01*
X125127787Y-107569586D01*
X125319586Y-107377787D01*
X125470282Y-107152254D01*
X125574083Y-106901656D01*
X125627000Y-106635623D01*
X125627000Y-106364377D01*
X125574083Y-106098344D01*
X125470282Y-105847746D01*
X125319586Y-105622213D01*
X125127787Y-105430414D01*
X124902254Y-105279718D01*
X124651656Y-105175917D01*
X124385623Y-105123000D01*
X124114377Y-105123000D01*
X123848344Y-105175917D01*
X123597746Y-105279718D01*
X123377000Y-105427215D01*
X123377000Y-104322785D01*
X123597746Y-104470282D01*
X123848344Y-104574083D01*
X124114377Y-104627000D01*
X124385623Y-104627000D01*
X124651656Y-104574083D01*
X124902254Y-104470282D01*
X125127787Y-104319586D01*
X125319586Y-104127787D01*
X125470282Y-103902254D01*
X125574083Y-103651656D01*
X125627000Y-103385623D01*
X125627000Y-103114377D01*
X125574083Y-102848344D01*
X125470282Y-102597746D01*
X125319586Y-102372213D01*
X125127787Y-102180414D01*
X124902254Y-102029718D01*
X124651656Y-101925917D01*
X124385623Y-101873000D01*
X124114377Y-101873000D01*
X123848344Y-101925917D01*
X123597746Y-102029718D01*
X123377000Y-102177215D01*
X123377000Y-101072785D01*
X123597746Y-101220282D01*
X123848344Y-101324083D01*
X124114377Y-101377000D01*
X124385623Y-101377000D01*
X124651656Y-101324083D01*
X124902254Y-101220282D01*
X125127787Y-101069586D01*
X125319586Y-100877787D01*
X125470282Y-100652254D01*
X125574083Y-100401656D01*
X125627000Y-100135623D01*
X125627000Y-99864377D01*
X125574083Y-99598344D01*
X125470282Y-99347746D01*
X125319586Y-99122213D01*
X125127787Y-98930414D01*
X124902254Y-98779718D01*
X124651656Y-98675917D01*
X124385623Y-98623000D01*
X124114377Y-98623000D01*
X123848344Y-98675917D01*
X123597746Y-98779718D01*
X123377000Y-98927215D01*
X123377000Y-79127000D01*
X151748000Y-79127000D01*
X151748001Y-97466794D01*
%TA.AperFunction,Conductor*%
D23*
G36*
X151748001Y-97466794D02*
G01*
X150696796Y-98518000D01*
X131004643Y-98518000D01*
X130980000Y-98515573D01*
X130955357Y-98518000D01*
X130955347Y-98518000D01*
X130881591Y-98525264D01*
X130786964Y-98553969D01*
X130699755Y-98600583D01*
X130623316Y-98663316D01*
X130607603Y-98682462D01*
X130161807Y-99128259D01*
X130067111Y-99147095D01*
X129953004Y-99194360D01*
X129850311Y-99262977D01*
X129762977Y-99350311D01*
X129694360Y-99453004D01*
X129647095Y-99567111D01*
X129623000Y-99688246D01*
X129623000Y-99811754D01*
X129647095Y-99932889D01*
X129694360Y-100046996D01*
X129762977Y-100149689D01*
X129850311Y-100237023D01*
X129953004Y-100305640D01*
X130067111Y-100352905D01*
X130188246Y-100377000D01*
X130311754Y-100377000D01*
X130432889Y-100352905D01*
X130546996Y-100305640D01*
X130649689Y-100237023D01*
X130737023Y-100149689D01*
X130805640Y-100046996D01*
X130852905Y-99932889D01*
X130871741Y-99838193D01*
X131150115Y-99559819D01*
X131147095Y-99567111D01*
X131123000Y-99688246D01*
X131123000Y-99811754D01*
X131147095Y-99932889D01*
X131194360Y-100046996D01*
X131262977Y-100149689D01*
X131350311Y-100237023D01*
X131453004Y-100305640D01*
X131567111Y-100352905D01*
X131688246Y-100377000D01*
X131811754Y-100377000D01*
X131932889Y-100352905D01*
X132046996Y-100305640D01*
X132127274Y-100252000D01*
X146123000Y-100252000D01*
X146123000Y-107598000D01*
X125085262Y-107598000D01*
X125127787Y-107569586D01*
X125319586Y-107377787D01*
X125470282Y-107152254D01*
X125574083Y-106901656D01*
X125627000Y-106635623D01*
X125627000Y-106364377D01*
X125574083Y-106098344D01*
X125470282Y-105847746D01*
X125319586Y-105622213D01*
X125127787Y-105430414D01*
X124902254Y-105279718D01*
X124651656Y-105175917D01*
X124385623Y-105123000D01*
X124114377Y-105123000D01*
X123848344Y-105175917D01*
X123597746Y-105279718D01*
X123377000Y-105427215D01*
X123377000Y-104322785D01*
X123597746Y-104470282D01*
X123848344Y-104574083D01*
X124114377Y-104627000D01*
X124385623Y-104627000D01*
X124651656Y-104574083D01*
X124902254Y-104470282D01*
X125127787Y-104319586D01*
X125319586Y-104127787D01*
X125470282Y-103902254D01*
X125574083Y-103651656D01*
X125627000Y-103385623D01*
X125627000Y-103114377D01*
X125574083Y-102848344D01*
X125470282Y-102597746D01*
X125319586Y-102372213D01*
X125127787Y-102180414D01*
X124902254Y-102029718D01*
X124651656Y-101925917D01*
X124385623Y-101873000D01*
X124114377Y-101873000D01*
X123848344Y-101925917D01*
X123597746Y-102029718D01*
X123377000Y-102177215D01*
X123377000Y-101072785D01*
X123597746Y-101220282D01*
X123848344Y-101324083D01*
X124114377Y-101377000D01*
X124385623Y-101377000D01*
X124651656Y-101324083D01*
X124902254Y-101220282D01*
X125127787Y-101069586D01*
X125319586Y-100877787D01*
X125470282Y-100652254D01*
X125574083Y-100401656D01*
X125627000Y-100135623D01*
X125627000Y-99864377D01*
X125574083Y-99598344D01*
X125470282Y-99347746D01*
X125319586Y-99122213D01*
X125127787Y-98930414D01*
X124902254Y-98779718D01*
X124651656Y-98675917D01*
X124385623Y-98623000D01*
X124114377Y-98623000D01*
X123848344Y-98675917D01*
X123597746Y-98779718D01*
X123377000Y-98927215D01*
X123377000Y-79127000D01*
X151748000Y-79127000D01*
X151748001Y-97466794D01*
G37*
%TD.AperFunction*%
%TD*%
M02*
