M48
; DRILL file {KiCad (5.1.8)-1} date 04/05/21 19:24:10
; FORMAT={-:-/ absolute / metric / decimal}
; #@! TF.CreationDate,2021-04-05T19:24:10-04:00
; #@! TF.GenerationSoftware,Kicad,Pcbnew,(5.1.8)-1
FMAT,2
METRIC
T1C0.300
T2C0.800
T3C1.000
T4C1.397
T5C1.600
T6C3.100
%
G90
G05
T1
X59.5Y-92.25
X60.0Y-67.25
X60.5Y-62.5
X60.5Y-74.75
X60.5Y-79.5
X60.5Y-88.0
X60.75Y-72.0
X60.75Y-83.75
X62.7Y-96.8
X63.75Y-63.0
X64.5Y-67.25
X66.0Y-88.5
X66.5Y-75.0
X66.5Y-91.75
X67.25Y-66.75
X67.5Y-54.0
X67.75Y-62.25
X68.5Y-100.25
X68.75Y-104.5
X69.25Y-57.25
X69.5Y-86.25
X70.0Y-61.0
X70.75Y-92.25
X71.25Y-56.25
X72.0Y-89.25
X72.0Y-103.25
X73.25Y-99.5
X74.25Y-61.0
X76.0Y-91.5
X76.25Y-62.5
X78.5Y-56.5
X80.25Y-87.5
X83.5Y-64.0
X84.5Y-84.5
X85.0Y-55.5
X85.25Y-74.5
X85.5Y-88.0
X87.25Y-75.75
X88.75Y-78.25
X89.25Y-75.25
X90.25Y-65.5
X90.25Y-79.25
X90.5Y-56.5
X90.75Y-76.5
X91.75Y-79.75
X92.25Y-54.5
X92.75Y-102.75
X92.75Y-103.75
X92.75Y-104.75
X93.25Y-82.75
X93.75Y-102.75
X93.75Y-103.75
X93.75Y-104.75
X94.0Y-77.5
X94.25Y-79.25
X94.75Y-75.75
X95.0Y-104.75
X95.5Y-56.75
X96.0Y-76.0
X97.5Y-76.0
X98.5Y-76.0
X99.5Y-84.5
X99.75Y-76.0
X99.75Y-77.0
X100.5Y-85.25
X100.66Y-100.04
X100.7Y-98.55
X101.0Y-76.0
X101.25Y-86.25
X101.25Y-87.5
X101.7Y-99.3
X102.25Y-75.75
X102.5Y-78.25
X102.85Y-100.45
X103.5Y-75.75
X105.46Y-101.0
X105.5Y-53.75
X105.5Y-93.8
X106.5Y-96.25
X107.5Y-101.51
X110.5Y-74.5
X110.75Y-105.25
X111.0Y-53.5
X111.0Y-70.0
X111.4Y-93.4
X112.0Y-103.25
X112.0Y-104.25
X112.0Y-105.25
X112.25Y-97.5
X113.25Y-103.25
X113.25Y-104.25
X113.25Y-105.25
X113.4Y-88.6
X114.1Y-95.1
X114.25Y-64.75
X114.4Y-83.9
X115.2Y-92.5
X115.2Y-94.1
X115.3Y-82.6
X115.5Y-64.75
X116.6Y-87.3
X116.7Y-82.6
X117.5Y-68.75
X117.5Y-70.0
X117.5Y-71.25
X117.5Y-72.5
X117.5Y-73.75
X117.5Y-75.0
X117.5Y-76.25
X117.5Y-77.5
X117.5Y-78.75
X117.5Y-80.0
X118.0Y-54.25
X118.0Y-64.75
X118.75Y-68.75
X118.75Y-70.0
X118.75Y-71.25
X118.75Y-72.5
X118.75Y-73.75
X118.75Y-75.0
X118.75Y-76.25
X118.75Y-77.5
X118.75Y-78.75
X118.75Y-80.0
X119.1Y-102.3
X119.25Y-64.75
X120.0Y-95.2
X121.4Y-102.6
X122.25Y-54.0
X124.75Y-57.25
X124.75Y-62.25
X125.0Y-89.75
X125.0Y-91.0
X125.0Y-92.25
X126.0Y-57.25
X126.0Y-62.25
X126.25Y-54.25
X126.25Y-89.75
X126.25Y-91.0
X126.25Y-92.25
X127.25Y-57.25
X127.25Y-58.5
X127.25Y-59.75
X127.25Y-61.0
X127.25Y-62.25
X127.5Y-89.75
X127.5Y-91.0
X127.5Y-92.25
X128.25Y-69.75
X128.25Y-71.0
X128.75Y-89.75
X128.75Y-91.0
X128.75Y-92.25
X129.25Y-57.0
X129.5Y-69.75
X129.5Y-71.0
X130.0Y-89.75
X130.0Y-91.0
X130.0Y-92.25
X130.75Y-69.75
X130.75Y-71.0
X131.25Y-89.75
X131.25Y-91.0
X131.25Y-92.25
X131.75Y-55.0
X132.0Y-69.75
X132.0Y-71.0
X132.5Y-89.75
X132.5Y-91.0
X132.5Y-92.25
X133.25Y-69.75
X133.25Y-71.0
X133.25Y-72.25
X133.25Y-73.5
X133.25Y-74.75
X133.25Y-76.0
X133.25Y-77.25
X133.75Y-89.75
X133.75Y-91.0
X133.75Y-92.25
X134.0Y-56.5
X134.5Y-69.75
X134.5Y-71.0
X134.5Y-72.25
X134.5Y-73.5
X134.5Y-74.75
X134.5Y-76.0
X134.5Y-77.25
X135.0Y-89.75
X135.0Y-91.0
X135.0Y-92.25
X135.75Y-69.75
X135.75Y-71.0
X135.75Y-72.25
X135.75Y-73.5
X135.75Y-74.75
X135.75Y-76.0
X135.75Y-77.25
X136.0Y-55.5
X136.25Y-89.75
X136.25Y-91.0
X136.25Y-92.25
X137.0Y-69.75
X137.0Y-71.0
X137.0Y-72.25
X137.0Y-73.5
X137.0Y-74.75
X137.0Y-76.0
X137.0Y-77.25
X138.25Y-69.75
X138.25Y-71.0
X138.25Y-72.25
X138.25Y-73.5
X138.25Y-74.75
X138.25Y-76.0
X138.25Y-77.25
X139.75Y-57.5
X141.75Y-54.0
X143.25Y-63.0
X144.0Y-59.5
X145.0Y-56.25
X149.75Y-62.0
T2
X91.8Y-71.55
X91.8Y-74.05
T3
X125.2Y-101.5
X138.25Y-67.25
X135.1Y-65.4
X72.0Y-81.0
X120.1Y-104.4
X125.2Y-104.75
X130.6Y-62.86
X130.6Y-65.4
X95.8Y-62.4
X84.42Y-104.5
X86.96Y-104.5
X89.5Y-104.5
X135.0Y-60.75
X93.25Y-85.75
X88.75Y-97.75
X125.2Y-98.25
X90.25Y-62.75
T4
X148.0Y-71.38
X148.0Y-76.46
X148.0Y-81.54
X148.0Y-86.62
T5
X67.5Y-71.25
X70.5Y-75.95
X73.5Y-71.25
T6
X61.75Y-55.75
X61.75Y-104.25
X150.25Y-55.75
X150.25Y-104.25
T0
M30
