%TF.GenerationSoftware,KiCad,Pcbnew,(5.1.8)-1*%
%TF.CreationDate,2021-03-05T14:15:40-05:00*%
%TF.ProjectId,BuckLinReg_5V,4275636b-4c69-46e5-9265-675f35562e6b,rev?*%
%TF.SameCoordinates,Original*%
%TF.FileFunction,Legend,Top*%
%TF.FilePolarity,Positive*%
%FSLAX46Y46*%
G04 Gerber Fmt 4.6, Leading zero omitted, Abs format (unit mm)*
G04 Created by KiCad (PCBNEW (5.1.8)-1) date 2021-03-05 14:15:40*
%MOMM*%
%LPD*%
G01*
G04 APERTURE LIST*
%ADD10C,0.150000*%
%ADD11C,0.120000*%
G04 APERTURE END LIST*
D10*
X66666666Y-105952380D02*
X66857142Y-105952380D01*
X66952380Y-106000000D01*
X67047619Y-106095238D01*
X67095238Y-106285714D01*
X67095238Y-106619047D01*
X67047619Y-106809523D01*
X66952380Y-106904761D01*
X66857142Y-106952380D01*
X66666666Y-106952380D01*
X66571428Y-106904761D01*
X66476190Y-106809523D01*
X66428571Y-106619047D01*
X66428571Y-106285714D01*
X66476190Y-106095238D01*
X66571428Y-106000000D01*
X66666666Y-105952380D01*
X68095238Y-106857142D02*
X68047619Y-106904761D01*
X67904761Y-106952380D01*
X67809523Y-106952380D01*
X67666666Y-106904761D01*
X67571428Y-106809523D01*
X67523809Y-106714285D01*
X67476190Y-106523809D01*
X67476190Y-106380952D01*
X67523809Y-106190476D01*
X67571428Y-106095238D01*
X67666666Y-106000000D01*
X67809523Y-105952380D01*
X67904761Y-105952380D01*
X68047619Y-106000000D01*
X68095238Y-106047619D01*
X68523809Y-106952380D02*
X68523809Y-105952380D01*
X68904761Y-105952380D01*
X69000000Y-106000000D01*
X69047619Y-106047619D01*
X69095238Y-106142857D01*
X69095238Y-106285714D01*
X69047619Y-106380952D01*
X69000000Y-106428571D01*
X68904761Y-106476190D01*
X68523809Y-106476190D01*
X70142857Y-105952380D02*
X70714285Y-105952380D01*
X70428571Y-106952380D02*
X70428571Y-105952380D01*
X71619047Y-106952380D02*
X71285714Y-106476190D01*
X71047619Y-106952380D02*
X71047619Y-105952380D01*
X71428571Y-105952380D01*
X71523809Y-106000000D01*
X71571428Y-106047619D01*
X71619047Y-106142857D01*
X71619047Y-106285714D01*
X71571428Y-106380952D01*
X71523809Y-106428571D01*
X71428571Y-106476190D01*
X71047619Y-106476190D01*
X72047619Y-106952380D02*
X72047619Y-105952380D01*
X73047619Y-106000000D02*
X72952380Y-105952380D01*
X72809523Y-105952380D01*
X72666666Y-106000000D01*
X72571428Y-106095238D01*
X72523809Y-106190476D01*
X72476190Y-106380952D01*
X72476190Y-106523809D01*
X72523809Y-106714285D01*
X72571428Y-106809523D01*
X72666666Y-106904761D01*
X72809523Y-106952380D01*
X72904761Y-106952380D01*
X73047619Y-106904761D01*
X73095238Y-106857142D01*
X73095238Y-106523809D01*
X72904761Y-106523809D01*
X73571428Y-105952380D02*
X73476190Y-106142857D01*
X74000000Y-106952380D02*
X74000000Y-105952380D01*
X74238095Y-105952380D01*
X74380952Y-106000000D01*
X74476190Y-106095238D01*
X74523809Y-106190476D01*
X74571428Y-106380952D01*
X74571428Y-106523809D01*
X74523809Y-106714285D01*
X74476190Y-106809523D01*
X74380952Y-106904761D01*
X74238095Y-106952380D01*
X74000000Y-106952380D01*
X72747619Y-85907142D02*
X72700000Y-85954761D01*
X72557142Y-86002380D01*
X72461904Y-86002380D01*
X72319047Y-85954761D01*
X72223809Y-85859523D01*
X72176190Y-85764285D01*
X72128571Y-85573809D01*
X72128571Y-85430952D01*
X72176190Y-85240476D01*
X72223809Y-85145238D01*
X72319047Y-85050000D01*
X72461904Y-85002380D01*
X72557142Y-85002380D01*
X72700000Y-85050000D01*
X72747619Y-85097619D01*
X73176190Y-86002380D02*
X73176190Y-85002380D01*
X73176190Y-85478571D02*
X73747619Y-85478571D01*
X73747619Y-86002380D02*
X73747619Y-85002380D01*
X74223809Y-86002380D02*
X74223809Y-85002380D01*
X74795238Y-86002380D02*
X74366666Y-85430952D01*
X74795238Y-85002380D02*
X74223809Y-85573809D01*
X75985714Y-86002380D02*
X75985714Y-85002380D01*
X76366666Y-85002380D01*
X76461904Y-85050000D01*
X76509523Y-85097619D01*
X76557142Y-85192857D01*
X76557142Y-85335714D01*
X76509523Y-85430952D01*
X76461904Y-85478571D01*
X76366666Y-85526190D01*
X75985714Y-85526190D01*
X77176190Y-85002380D02*
X77366666Y-85002380D01*
X77461904Y-85050000D01*
X77557142Y-85145238D01*
X77604761Y-85335714D01*
X77604761Y-85669047D01*
X77557142Y-85859523D01*
X77461904Y-85954761D01*
X77366666Y-86002380D01*
X77176190Y-86002380D01*
X77080952Y-85954761D01*
X76985714Y-85859523D01*
X76938095Y-85669047D01*
X76938095Y-85335714D01*
X76985714Y-85145238D01*
X77080952Y-85050000D01*
X77176190Y-85002380D01*
X78509523Y-86002380D02*
X78033333Y-86002380D01*
X78033333Y-85002380D01*
X78795238Y-85716666D02*
X79271428Y-85716666D01*
X78700000Y-86002380D02*
X79033333Y-85002380D01*
X79366666Y-86002380D01*
X80271428Y-86002380D02*
X79938095Y-85526190D01*
X79700000Y-86002380D02*
X79700000Y-85002380D01*
X80080952Y-85002380D01*
X80176190Y-85050000D01*
X80223809Y-85097619D01*
X80271428Y-85192857D01*
X80271428Y-85335714D01*
X80223809Y-85430952D01*
X80176190Y-85478571D01*
X80080952Y-85526190D01*
X79700000Y-85526190D01*
X70416666Y-60452380D02*
X70416666Y-59452380D01*
X70797619Y-59452380D01*
X70892857Y-59500000D01*
X70940476Y-59547619D01*
X70988095Y-59642857D01*
X70988095Y-59785714D01*
X70940476Y-59880952D01*
X70892857Y-59928571D01*
X70797619Y-59976190D01*
X70416666Y-59976190D01*
X71321428Y-59452380D02*
X71559523Y-60452380D01*
X71750000Y-59738095D01*
X71940476Y-60452380D01*
X72178571Y-59452380D01*
X73130952Y-60452380D02*
X72797619Y-59976190D01*
X72559523Y-60452380D02*
X72559523Y-59452380D01*
X72940476Y-59452380D01*
X73035714Y-59500000D01*
X73083333Y-59547619D01*
X73130952Y-59642857D01*
X73130952Y-59785714D01*
X73083333Y-59880952D01*
X73035714Y-59928571D01*
X72940476Y-59976190D01*
X72559523Y-59976190D01*
X73559523Y-60452380D02*
X73559523Y-59452380D01*
X73797619Y-59452380D01*
X73940476Y-59500000D01*
X74035714Y-59595238D01*
X74083333Y-59690476D01*
X74130952Y-59880952D01*
X74130952Y-60023809D01*
X74083333Y-60214285D01*
X74035714Y-60309523D01*
X73940476Y-60404761D01*
X73797619Y-60452380D01*
X73559523Y-60452380D01*
X145416666Y-90702380D02*
X144940476Y-90702380D01*
X144892857Y-91178571D01*
X144940476Y-91130952D01*
X145035714Y-91083333D01*
X145273809Y-91083333D01*
X145369047Y-91130952D01*
X145416666Y-91178571D01*
X145464285Y-91273809D01*
X145464285Y-91511904D01*
X145416666Y-91607142D01*
X145369047Y-91654761D01*
X145273809Y-91702380D01*
X145035714Y-91702380D01*
X144940476Y-91654761D01*
X144892857Y-91607142D01*
X145750000Y-90702380D02*
X146083333Y-91702380D01*
X146416666Y-90702380D01*
X147464285Y-90797619D02*
X147511904Y-90750000D01*
X147607142Y-90702380D01*
X147845238Y-90702380D01*
X147940476Y-90750000D01*
X147988095Y-90797619D01*
X148035714Y-90892857D01*
X148035714Y-90988095D01*
X147988095Y-91130952D01*
X147416666Y-91702380D01*
X148035714Y-91702380D01*
X148416666Y-91416666D02*
X148892857Y-91416666D01*
X148321428Y-91702380D02*
X148654761Y-90702380D01*
X148988095Y-91702380D01*
X150083333Y-91702380D02*
X150083333Y-90702380D01*
X150416666Y-91416666D01*
X150750000Y-90702380D01*
X150750000Y-91702380D01*
X151178571Y-91416666D02*
X151654761Y-91416666D01*
X151083333Y-91702380D02*
X151416666Y-90702380D01*
X151750000Y-91702380D01*
X151988095Y-90702380D02*
X152654761Y-91702380D01*
X152654761Y-90702380D02*
X151988095Y-91702380D01*
X62647619Y-79827380D02*
X62647619Y-78827380D01*
X63028571Y-78827380D01*
X63123809Y-78875000D01*
X63171428Y-78922619D01*
X63219047Y-79017857D01*
X63219047Y-79160714D01*
X63171428Y-79255952D01*
X63123809Y-79303571D01*
X63028571Y-79351190D01*
X62647619Y-79351190D01*
X63838095Y-78827380D02*
X64028571Y-78827380D01*
X64123809Y-78875000D01*
X64219047Y-78970238D01*
X64266666Y-79160714D01*
X64266666Y-79494047D01*
X64219047Y-79684523D01*
X64123809Y-79779761D01*
X64028571Y-79827380D01*
X63838095Y-79827380D01*
X63742857Y-79779761D01*
X63647619Y-79684523D01*
X63600000Y-79494047D01*
X63600000Y-79160714D01*
X63647619Y-78970238D01*
X63742857Y-78875000D01*
X63838095Y-78827380D01*
X64600000Y-78827380D02*
X64838095Y-79827380D01*
X65028571Y-79113095D01*
X65219047Y-79827380D01*
X65457142Y-78827380D01*
X65838095Y-79303571D02*
X66171428Y-79303571D01*
X66314285Y-79827380D02*
X65838095Y-79827380D01*
X65838095Y-78827380D01*
X66314285Y-78827380D01*
X67314285Y-79827380D02*
X66980952Y-79351190D01*
X66742857Y-79827380D02*
X66742857Y-78827380D01*
X67123809Y-78827380D01*
X67219047Y-78875000D01*
X67266666Y-78922619D01*
X67314285Y-79017857D01*
X67314285Y-79160714D01*
X67266666Y-79255952D01*
X67219047Y-79303571D01*
X67123809Y-79351190D01*
X66742857Y-79351190D01*
X68504761Y-79827380D02*
X68504761Y-78827380D01*
X68980952Y-79827380D02*
X68980952Y-78827380D01*
X69552380Y-79827380D01*
X69552380Y-78827380D01*
X62100000Y-81096428D02*
X62861904Y-81096428D01*
X62480952Y-81477380D02*
X62480952Y-80715476D01*
X63861904Y-81477380D02*
X63290476Y-81477380D01*
X63576190Y-81477380D02*
X63576190Y-80477380D01*
X63480952Y-80620238D01*
X63385714Y-80715476D01*
X63290476Y-80763095D01*
X64195238Y-80477380D02*
X64814285Y-80477380D01*
X64480952Y-80858333D01*
X64623809Y-80858333D01*
X64719047Y-80905952D01*
X64766666Y-80953571D01*
X64814285Y-81048809D01*
X64814285Y-81286904D01*
X64766666Y-81382142D01*
X64719047Y-81429761D01*
X64623809Y-81477380D01*
X64338095Y-81477380D01*
X64242857Y-81429761D01*
X64195238Y-81382142D01*
X65861904Y-80477380D02*
X66195238Y-81477380D01*
X66528571Y-80477380D01*
X67623809Y-81477380D02*
X67623809Y-80477380D01*
X67957142Y-81191666D01*
X68290476Y-80477380D01*
X68290476Y-81477380D01*
X68719047Y-81191666D02*
X69195238Y-81191666D01*
X68623809Y-81477380D02*
X68957142Y-80477380D01*
X69290476Y-81477380D01*
X69528571Y-80477380D02*
X70195238Y-81477380D01*
X70195238Y-80477380D02*
X69528571Y-81477380D01*
X143321428Y-85535714D02*
X143321428Y-84773809D01*
X143702380Y-85154761D02*
X142940476Y-85154761D01*
X142702380Y-83821428D02*
X142702380Y-84297619D01*
X143178571Y-84345238D01*
X143130952Y-84297619D01*
X143083333Y-84202380D01*
X143083333Y-83964285D01*
X143130952Y-83869047D01*
X143178571Y-83821428D01*
X143273809Y-83773809D01*
X143511904Y-83773809D01*
X143607142Y-83821428D01*
X143654761Y-83869047D01*
X143702380Y-83964285D01*
X143702380Y-84202380D01*
X143654761Y-84297619D01*
X143607142Y-84345238D01*
X142702380Y-83488095D02*
X143702380Y-83154761D01*
X142702380Y-82821428D01*
X142750000Y-74261904D02*
X142702380Y-74357142D01*
X142702380Y-74500000D01*
X142750000Y-74642857D01*
X142845238Y-74738095D01*
X142940476Y-74785714D01*
X143130952Y-74833333D01*
X143273809Y-74833333D01*
X143464285Y-74785714D01*
X143559523Y-74738095D01*
X143654761Y-74642857D01*
X143702380Y-74500000D01*
X143702380Y-74404761D01*
X143654761Y-74261904D01*
X143607142Y-74214285D01*
X143273809Y-74214285D01*
X143273809Y-74404761D01*
X143702380Y-73785714D02*
X142702380Y-73785714D01*
X143702380Y-73214285D01*
X142702380Y-73214285D01*
X143702380Y-72738095D02*
X142702380Y-72738095D01*
X142702380Y-72500000D01*
X142750000Y-72357142D01*
X142845238Y-72261904D01*
X142940476Y-72214285D01*
X143130952Y-72166666D01*
X143273809Y-72166666D01*
X143464285Y-72214285D01*
X143559523Y-72261904D01*
X143654761Y-72357142D01*
X143702380Y-72500000D01*
X143702380Y-72738095D01*
X73571428Y-53228571D02*
X72857142Y-53228571D01*
X72785714Y-53942857D01*
X72857142Y-53871428D01*
X73000000Y-53800000D01*
X73357142Y-53800000D01*
X73500000Y-53871428D01*
X73571428Y-53942857D01*
X73642857Y-54085714D01*
X73642857Y-54442857D01*
X73571428Y-54585714D01*
X73500000Y-54657142D01*
X73357142Y-54728571D01*
X73000000Y-54728571D01*
X72857142Y-54657142D01*
X72785714Y-54585714D01*
X74071428Y-53228571D02*
X74571428Y-54728571D01*
X75071428Y-53228571D01*
X77571428Y-54585714D02*
X77500000Y-54657142D01*
X77285714Y-54728571D01*
X77142857Y-54728571D01*
X76928571Y-54657142D01*
X76785714Y-54514285D01*
X76714285Y-54371428D01*
X76642857Y-54085714D01*
X76642857Y-53871428D01*
X76714285Y-53585714D01*
X76785714Y-53442857D01*
X76928571Y-53300000D01*
X77142857Y-53228571D01*
X77285714Y-53228571D01*
X77500000Y-53300000D01*
X77571428Y-53371428D01*
X78428571Y-54728571D02*
X78285714Y-54657142D01*
X78214285Y-54585714D01*
X78142857Y-54442857D01*
X78142857Y-54014285D01*
X78214285Y-53871428D01*
X78285714Y-53800000D01*
X78428571Y-53728571D01*
X78642857Y-53728571D01*
X78785714Y-53800000D01*
X78857142Y-53871428D01*
X78928571Y-54014285D01*
X78928571Y-54442857D01*
X78857142Y-54585714D01*
X78785714Y-54657142D01*
X78642857Y-54728571D01*
X78428571Y-54728571D01*
X79571428Y-53728571D02*
X79571428Y-54728571D01*
X79571428Y-53871428D02*
X79642857Y-53800000D01*
X79785714Y-53728571D01*
X80000000Y-53728571D01*
X80142857Y-53800000D01*
X80214285Y-53942857D01*
X80214285Y-54728571D01*
X80785714Y-53728571D02*
X81142857Y-54728571D01*
X81500000Y-53728571D01*
X82642857Y-54657142D02*
X82500000Y-54728571D01*
X82214285Y-54728571D01*
X82071428Y-54657142D01*
X82000000Y-54514285D01*
X82000000Y-53942857D01*
X82071428Y-53800000D01*
X82214285Y-53728571D01*
X82500000Y-53728571D01*
X82642857Y-53800000D01*
X82714285Y-53942857D01*
X82714285Y-54085714D01*
X82000000Y-54228571D01*
X83357142Y-54728571D02*
X83357142Y-53728571D01*
X83357142Y-54014285D02*
X83428571Y-53871428D01*
X83500000Y-53800000D01*
X83642857Y-53728571D01*
X83785714Y-53728571D01*
X84071428Y-53728571D02*
X84642857Y-53728571D01*
X84285714Y-53228571D02*
X84285714Y-54514285D01*
X84357142Y-54657142D01*
X84500000Y-54728571D01*
X84642857Y-54728571D01*
X85714285Y-54657142D02*
X85571428Y-54728571D01*
X85285714Y-54728571D01*
X85142857Y-54657142D01*
X85071428Y-54514285D01*
X85071428Y-53942857D01*
X85142857Y-53800000D01*
X85285714Y-53728571D01*
X85571428Y-53728571D01*
X85714285Y-53800000D01*
X85785714Y-53942857D01*
X85785714Y-54085714D01*
X85071428Y-54228571D01*
X86428571Y-54728571D02*
X86428571Y-53728571D01*
X86428571Y-54014285D02*
X86500000Y-53871428D01*
X86571428Y-53800000D01*
X86714285Y-53728571D01*
X86857142Y-53728571D01*
X73714285Y-55628571D02*
X73714285Y-56700000D01*
X73642857Y-56914285D01*
X73500000Y-57057142D01*
X73285714Y-57128571D01*
X73142857Y-57128571D01*
X75071428Y-57128571D02*
X75071428Y-56342857D01*
X75000000Y-56200000D01*
X74857142Y-56128571D01*
X74571428Y-56128571D01*
X74428571Y-56200000D01*
X75071428Y-57057142D02*
X74928571Y-57128571D01*
X74571428Y-57128571D01*
X74428571Y-57057142D01*
X74357142Y-56914285D01*
X74357142Y-56771428D01*
X74428571Y-56628571D01*
X74571428Y-56557142D01*
X74928571Y-56557142D01*
X75071428Y-56485714D01*
X76428571Y-57057142D02*
X76285714Y-57128571D01*
X76000000Y-57128571D01*
X75857142Y-57057142D01*
X75785714Y-56985714D01*
X75714285Y-56842857D01*
X75714285Y-56414285D01*
X75785714Y-56271428D01*
X75857142Y-56200000D01*
X76000000Y-56128571D01*
X76285714Y-56128571D01*
X76428571Y-56200000D01*
X77071428Y-57128571D02*
X77071428Y-55628571D01*
X77214285Y-56557142D02*
X77642857Y-57128571D01*
X77642857Y-56128571D02*
X77071428Y-56700000D01*
X79357142Y-57057142D02*
X79571428Y-57128571D01*
X79928571Y-57128571D01*
X80071428Y-57057142D01*
X80142857Y-56985714D01*
X80214285Y-56842857D01*
X80214285Y-56700000D01*
X80142857Y-56557142D01*
X80071428Y-56485714D01*
X79928571Y-56414285D01*
X79642857Y-56342857D01*
X79500000Y-56271428D01*
X79428571Y-56200000D01*
X79357142Y-56057142D01*
X79357142Y-55914285D01*
X79428571Y-55771428D01*
X79500000Y-55700000D01*
X79642857Y-55628571D01*
X80000000Y-55628571D01*
X80214285Y-55700000D01*
X81500000Y-57128571D02*
X81500000Y-56342857D01*
X81428571Y-56200000D01*
X81285714Y-56128571D01*
X81000000Y-56128571D01*
X80857142Y-56200000D01*
X81500000Y-57057142D02*
X81357142Y-57128571D01*
X81000000Y-57128571D01*
X80857142Y-57057142D01*
X80785714Y-56914285D01*
X80785714Y-56771428D01*
X80857142Y-56628571D01*
X81000000Y-56557142D01*
X81357142Y-56557142D01*
X81500000Y-56485714D01*
X82214285Y-57128571D02*
X82214285Y-55628571D01*
X82214285Y-56200000D02*
X82357142Y-56128571D01*
X82642857Y-56128571D01*
X82785714Y-56200000D01*
X82857142Y-56271428D01*
X82928571Y-56414285D01*
X82928571Y-56842857D01*
X82857142Y-56985714D01*
X82785714Y-57057142D01*
X82642857Y-57128571D01*
X82357142Y-57128571D01*
X82214285Y-57057142D01*
X83571428Y-57128571D02*
X83571428Y-56128571D01*
X83571428Y-55628571D02*
X83500000Y-55700000D01*
X83571428Y-55771428D01*
X83642857Y-55700000D01*
X83571428Y-55628571D01*
X83571428Y-55771428D01*
X84285714Y-56128571D02*
X84285714Y-57128571D01*
X84285714Y-56271428D02*
X84357142Y-56200000D01*
X84500000Y-56128571D01*
X84714285Y-56128571D01*
X84857142Y-56200000D01*
X84928571Y-56342857D01*
X84928571Y-57128571D01*
X86214285Y-57057142D02*
X86071428Y-57128571D01*
X85785714Y-57128571D01*
X85642857Y-57057142D01*
X85571428Y-56914285D01*
X85571428Y-56342857D01*
X85642857Y-56200000D01*
X85785714Y-56128571D01*
X86071428Y-56128571D01*
X86214285Y-56200000D01*
X86285714Y-56342857D01*
X86285714Y-56485714D01*
X85571428Y-56628571D01*
X136380952Y-106202380D02*
X136380952Y-106916666D01*
X136333333Y-107059523D01*
X136238095Y-107154761D01*
X136095238Y-107202380D01*
X136000000Y-107202380D01*
X137333333Y-107202380D02*
X136857142Y-107202380D01*
X136857142Y-106202380D01*
X138238095Y-107107142D02*
X138190476Y-107154761D01*
X138047619Y-107202380D01*
X137952380Y-107202380D01*
X137809523Y-107154761D01*
X137714285Y-107059523D01*
X137666666Y-106964285D01*
X137619047Y-106773809D01*
X137619047Y-106630952D01*
X137666666Y-106440476D01*
X137714285Y-106345238D01*
X137809523Y-106250000D01*
X137952380Y-106202380D01*
X138047619Y-106202380D01*
X138190476Y-106250000D01*
X138238095Y-106297619D01*
X138952380Y-106202380D02*
X138952380Y-106916666D01*
X138904761Y-107059523D01*
X138809523Y-107154761D01*
X138666666Y-107202380D01*
X138571428Y-107202380D01*
X139904761Y-107202380D02*
X139428571Y-107202380D01*
X139428571Y-106202380D01*
X140809523Y-107107142D02*
X140761904Y-107154761D01*
X140619047Y-107202380D01*
X140523809Y-107202380D01*
X140380952Y-107154761D01*
X140285714Y-107059523D01*
X140238095Y-106964285D01*
X140190476Y-106773809D01*
X140190476Y-106630952D01*
X140238095Y-106440476D01*
X140285714Y-106345238D01*
X140380952Y-106250000D01*
X140523809Y-106202380D01*
X140619047Y-106202380D01*
X140761904Y-106250000D01*
X140809523Y-106297619D01*
X141523809Y-106202380D02*
X141523809Y-106916666D01*
X141476190Y-107059523D01*
X141380952Y-107154761D01*
X141238095Y-107202380D01*
X141142857Y-107202380D01*
X142476190Y-107202380D02*
X142000000Y-107202380D01*
X142000000Y-106202380D01*
X143380952Y-107107142D02*
X143333333Y-107154761D01*
X143190476Y-107202380D01*
X143095238Y-107202380D01*
X142952380Y-107154761D01*
X142857142Y-107059523D01*
X142809523Y-106964285D01*
X142761904Y-106773809D01*
X142761904Y-106630952D01*
X142809523Y-106440476D01*
X142857142Y-106345238D01*
X142952380Y-106250000D01*
X143095238Y-106202380D01*
X143190476Y-106202380D01*
X143333333Y-106250000D01*
X143380952Y-106297619D01*
X144095238Y-106202380D02*
X144095238Y-106916666D01*
X144047619Y-107059523D01*
X143952380Y-107154761D01*
X143809523Y-107202380D01*
X143714285Y-107202380D01*
X145047619Y-107202380D02*
X144571428Y-107202380D01*
X144571428Y-106202380D01*
X145952380Y-107107142D02*
X145904761Y-107154761D01*
X145761904Y-107202380D01*
X145666666Y-107202380D01*
X145523809Y-107154761D01*
X145428571Y-107059523D01*
X145380952Y-106964285D01*
X145333333Y-106773809D01*
X145333333Y-106630952D01*
X145380952Y-106440476D01*
X145428571Y-106345238D01*
X145523809Y-106250000D01*
X145666666Y-106202380D01*
X145761904Y-106202380D01*
X145904761Y-106250000D01*
X145952380Y-106297619D01*
D11*
%TO.C,L1*%
X103200000Y-69400000D02*
X103200000Y-58600000D01*
X103200000Y-58600000D02*
X113600000Y-58600000D01*
X113600000Y-58600000D02*
X113600000Y-69400000D01*
X103200000Y-69400000D02*
X113600000Y-69400000D01*
X106500000Y-70000000D02*
G75*
G03*
X106500000Y-70000000I-200000J0D01*
G01*
%TO.C,J1*%
X73540000Y-66410000D02*
X73540000Y-68150000D01*
X71800000Y-66410000D02*
X73540000Y-66410000D01*
X73300000Y-75850000D02*
X71300000Y-75850000D01*
X73300000Y-73050000D02*
X73300000Y-75850000D01*
X73300000Y-66650000D02*
X73300000Y-69450000D01*
X58700000Y-66650000D02*
X73300000Y-66650000D01*
X58700000Y-75850000D02*
X58700000Y-66650000D01*
X67700000Y-75850000D02*
X58700000Y-75850000D01*
%TO.C,C1*%
X93954000Y-69614759D02*
X93324000Y-69614759D01*
X93639000Y-69299759D02*
X93639000Y-69929759D01*
X92202000Y-76041000D02*
X91398000Y-76041000D01*
X92433000Y-76001000D02*
X91167000Y-76001000D01*
X92602000Y-75961000D02*
X90998000Y-75961000D01*
X92740000Y-75921000D02*
X90860000Y-75921000D01*
X92859000Y-75881000D02*
X90741000Y-75881000D01*
X92965000Y-75841000D02*
X90635000Y-75841000D01*
X93062000Y-75801000D02*
X90538000Y-75801000D01*
X93150000Y-75761000D02*
X90450000Y-75761000D01*
X93232000Y-75721000D02*
X90368000Y-75721000D01*
X93309000Y-75681000D02*
X90291000Y-75681000D01*
X93381000Y-75641000D02*
X90219000Y-75641000D01*
X93450000Y-75601000D02*
X90150000Y-75601000D01*
X93514000Y-75561000D02*
X90086000Y-75561000D01*
X93576000Y-75521000D02*
X90024000Y-75521000D01*
X93634000Y-75481000D02*
X89966000Y-75481000D01*
X93690000Y-75441000D02*
X89910000Y-75441000D01*
X93744000Y-75401000D02*
X89856000Y-75401000D01*
X93795000Y-75361000D02*
X89805000Y-75361000D01*
X93844000Y-75321000D02*
X89756000Y-75321000D01*
X93892000Y-75281000D02*
X89708000Y-75281000D01*
X93937000Y-75241000D02*
X89663000Y-75241000D01*
X93982000Y-75201000D02*
X89618000Y-75201000D01*
X94024000Y-75161000D02*
X89576000Y-75161000D01*
X94065000Y-75121000D02*
X89535000Y-75121000D01*
X90760000Y-75081000D02*
X89495000Y-75081000D01*
X94105000Y-75081000D02*
X92840000Y-75081000D01*
X90760000Y-75041000D02*
X89457000Y-75041000D01*
X94143000Y-75041000D02*
X92840000Y-75041000D01*
X90760000Y-75001000D02*
X89420000Y-75001000D01*
X94180000Y-75001000D02*
X92840000Y-75001000D01*
X90760000Y-74961000D02*
X89384000Y-74961000D01*
X94216000Y-74961000D02*
X92840000Y-74961000D01*
X90760000Y-74921000D02*
X89350000Y-74921000D01*
X94250000Y-74921000D02*
X92840000Y-74921000D01*
X90760000Y-74881000D02*
X89316000Y-74881000D01*
X94284000Y-74881000D02*
X92840000Y-74881000D01*
X90760000Y-74841000D02*
X89284000Y-74841000D01*
X94316000Y-74841000D02*
X92840000Y-74841000D01*
X90760000Y-74801000D02*
X89252000Y-74801000D01*
X94348000Y-74801000D02*
X92840000Y-74801000D01*
X90760000Y-74761000D02*
X89222000Y-74761000D01*
X94378000Y-74761000D02*
X92840000Y-74761000D01*
X90760000Y-74721000D02*
X89193000Y-74721000D01*
X94407000Y-74721000D02*
X92840000Y-74721000D01*
X90760000Y-74681000D02*
X89164000Y-74681000D01*
X94436000Y-74681000D02*
X92840000Y-74681000D01*
X90760000Y-74641000D02*
X89136000Y-74641000D01*
X94464000Y-74641000D02*
X92840000Y-74641000D01*
X90760000Y-74601000D02*
X89110000Y-74601000D01*
X94490000Y-74601000D02*
X92840000Y-74601000D01*
X90760000Y-74561000D02*
X89084000Y-74561000D01*
X94516000Y-74561000D02*
X92840000Y-74561000D01*
X90760000Y-74521000D02*
X89058000Y-74521000D01*
X94542000Y-74521000D02*
X92840000Y-74521000D01*
X90760000Y-74481000D02*
X89034000Y-74481000D01*
X94566000Y-74481000D02*
X92840000Y-74481000D01*
X90760000Y-74441000D02*
X89010000Y-74441000D01*
X94590000Y-74441000D02*
X92840000Y-74441000D01*
X90760000Y-74401000D02*
X88988000Y-74401000D01*
X94612000Y-74401000D02*
X92840000Y-74401000D01*
X90760000Y-74361000D02*
X88966000Y-74361000D01*
X94634000Y-74361000D02*
X92840000Y-74361000D01*
X90760000Y-74321000D02*
X88944000Y-74321000D01*
X94656000Y-74321000D02*
X92840000Y-74321000D01*
X90760000Y-74281000D02*
X88924000Y-74281000D01*
X94676000Y-74281000D02*
X92840000Y-74281000D01*
X90760000Y-74241000D02*
X88904000Y-74241000D01*
X94696000Y-74241000D02*
X92840000Y-74241000D01*
X90760000Y-74201000D02*
X88884000Y-74201000D01*
X94716000Y-74201000D02*
X92840000Y-74201000D01*
X90760000Y-74161000D02*
X88866000Y-74161000D01*
X94734000Y-74161000D02*
X92840000Y-74161000D01*
X90760000Y-74121000D02*
X88848000Y-74121000D01*
X94752000Y-74121000D02*
X92840000Y-74121000D01*
X90760000Y-74081000D02*
X88830000Y-74081000D01*
X94770000Y-74081000D02*
X92840000Y-74081000D01*
X90760000Y-74041000D02*
X88814000Y-74041000D01*
X94786000Y-74041000D02*
X92840000Y-74041000D01*
X90760000Y-74001000D02*
X88798000Y-74001000D01*
X94802000Y-74001000D02*
X92840000Y-74001000D01*
X90760000Y-73961000D02*
X88782000Y-73961000D01*
X94818000Y-73961000D02*
X92840000Y-73961000D01*
X90760000Y-73921000D02*
X88767000Y-73921000D01*
X94833000Y-73921000D02*
X92840000Y-73921000D01*
X90760000Y-73881000D02*
X88753000Y-73881000D01*
X94847000Y-73881000D02*
X92840000Y-73881000D01*
X90760000Y-73841000D02*
X88739000Y-73841000D01*
X94861000Y-73841000D02*
X92840000Y-73841000D01*
X90760000Y-73801000D02*
X88726000Y-73801000D01*
X94874000Y-73801000D02*
X92840000Y-73801000D01*
X90760000Y-73761000D02*
X88714000Y-73761000D01*
X94886000Y-73761000D02*
X92840000Y-73761000D01*
X90760000Y-73721000D02*
X88702000Y-73721000D01*
X94898000Y-73721000D02*
X92840000Y-73721000D01*
X90760000Y-73681000D02*
X88690000Y-73681000D01*
X94910000Y-73681000D02*
X92840000Y-73681000D01*
X90760000Y-73641000D02*
X88679000Y-73641000D01*
X94921000Y-73641000D02*
X92840000Y-73641000D01*
X90760000Y-73601000D02*
X88669000Y-73601000D01*
X94931000Y-73601000D02*
X92840000Y-73601000D01*
X90760000Y-73561000D02*
X88659000Y-73561000D01*
X94941000Y-73561000D02*
X92840000Y-73561000D01*
X90760000Y-73521000D02*
X88650000Y-73521000D01*
X94950000Y-73521000D02*
X92840000Y-73521000D01*
X90760000Y-73480000D02*
X88641000Y-73480000D01*
X94959000Y-73480000D02*
X92840000Y-73480000D01*
X90760000Y-73440000D02*
X88633000Y-73440000D01*
X94967000Y-73440000D02*
X92840000Y-73440000D01*
X90760000Y-73400000D02*
X88625000Y-73400000D01*
X94975000Y-73400000D02*
X92840000Y-73400000D01*
X90760000Y-73360000D02*
X88618000Y-73360000D01*
X94982000Y-73360000D02*
X92840000Y-73360000D01*
X90760000Y-73320000D02*
X88611000Y-73320000D01*
X94989000Y-73320000D02*
X92840000Y-73320000D01*
X90760000Y-73280000D02*
X88605000Y-73280000D01*
X94995000Y-73280000D02*
X92840000Y-73280000D01*
X90760000Y-73240000D02*
X88599000Y-73240000D01*
X95001000Y-73240000D02*
X92840000Y-73240000D01*
X90760000Y-73200000D02*
X88594000Y-73200000D01*
X95006000Y-73200000D02*
X92840000Y-73200000D01*
X90760000Y-73160000D02*
X88589000Y-73160000D01*
X95011000Y-73160000D02*
X92840000Y-73160000D01*
X90760000Y-73120000D02*
X88585000Y-73120000D01*
X95015000Y-73120000D02*
X92840000Y-73120000D01*
X90760000Y-73080000D02*
X88582000Y-73080000D01*
X95018000Y-73080000D02*
X92840000Y-73080000D01*
X90760000Y-73040000D02*
X88578000Y-73040000D01*
X95022000Y-73040000D02*
X92840000Y-73040000D01*
X95024000Y-73000000D02*
X88576000Y-73000000D01*
X95027000Y-72960000D02*
X88573000Y-72960000D01*
X95028000Y-72920000D02*
X88572000Y-72920000D01*
X95030000Y-72880000D02*
X88570000Y-72880000D01*
X95030000Y-72840000D02*
X88570000Y-72840000D01*
X95030000Y-72800000D02*
X88570000Y-72800000D01*
X95070000Y-72800000D02*
G75*
G03*
X95070000Y-72800000I-3270000J0D01*
G01*
%TO.C,C2*%
X101410000Y-72238748D02*
X101410000Y-73661252D01*
X99590000Y-72238748D02*
X99590000Y-73661252D01*
%TO.C,C3*%
X114590000Y-63788748D02*
X114590000Y-65211252D01*
X116410000Y-63788748D02*
X116410000Y-65211252D01*
%TO.C,C4*%
X113510000Y-101146267D02*
X113510000Y-100853733D01*
X112490000Y-101146267D02*
X112490000Y-100853733D01*
%TO.C,C5*%
X103735000Y-72488748D02*
X103735000Y-73011252D01*
X102265000Y-72488748D02*
X102265000Y-73011252D01*
%TO.C,C6*%
X105810000Y-72603733D02*
X105810000Y-72896267D01*
X104790000Y-72603733D02*
X104790000Y-72896267D01*
%TO.C,C7*%
X109910000Y-76903733D02*
X109910000Y-77196267D01*
X108890000Y-76903733D02*
X108890000Y-77196267D01*
%TO.C,C8*%
X120260000Y-63738748D02*
X120260000Y-65161252D01*
X117540000Y-63738748D02*
X117540000Y-65161252D01*
%TO.C,C9*%
X95890000Y-72288748D02*
X95890000Y-73711252D01*
X98610000Y-72288748D02*
X98610000Y-73711252D01*
%TO.C,C10*%
X123938748Y-61285000D02*
X124461252Y-61285000D01*
X123938748Y-59815000D02*
X124461252Y-59815000D01*
%TO.C,C11*%
X124153733Y-58960000D02*
X124446267Y-58960000D01*
X124153733Y-57940000D02*
X124446267Y-57940000D01*
%TO.C,C12*%
X95853733Y-104010000D02*
X96146267Y-104010000D01*
X95853733Y-102990000D02*
X96146267Y-102990000D01*
%TO.C,C13*%
X120490000Y-89146267D02*
X120490000Y-88853733D01*
X121510000Y-89146267D02*
X121510000Y-88853733D01*
%TO.C,C14*%
X95490000Y-89353733D02*
X95490000Y-89646267D01*
X96510000Y-89353733D02*
X96510000Y-89646267D01*
%TO.C,D1*%
X77040000Y-63135000D02*
X81100000Y-63135000D01*
X77040000Y-60865000D02*
X77040000Y-63135000D01*
X81100000Y-60865000D02*
X77040000Y-60865000D01*
%TO.C,D2*%
X77235000Y-82250000D02*
X77235000Y-78190000D01*
X77235000Y-78190000D02*
X74965000Y-78190000D01*
X74965000Y-78190000D02*
X74965000Y-82250000D01*
%TO.C,D3*%
X86430000Y-78890000D02*
X86430000Y-80350000D01*
X83270000Y-78890000D02*
X83270000Y-81050000D01*
X83270000Y-78890000D02*
X84200000Y-78890000D01*
X86430000Y-78890000D02*
X85500000Y-78890000D01*
%TO.C,D4*%
X116950000Y-94850000D02*
X114400000Y-94850000D01*
X116950000Y-93150000D02*
X114400000Y-93150000D01*
X116950000Y-94850000D02*
X116950000Y-93150000D01*
%TO.C,J3*%
X130130000Y-58670000D02*
X130130000Y-61330000D01*
X132730000Y-58670000D02*
X130130000Y-58670000D01*
X132730000Y-61330000D02*
X130130000Y-61330000D01*
X132730000Y-58670000D02*
X132730000Y-61330000D01*
X134000000Y-58670000D02*
X135330000Y-58670000D01*
X135330000Y-58670000D02*
X135330000Y-60000000D01*
%TO.C,Q1*%
X103740000Y-86420000D02*
X105200000Y-86420000D01*
X103740000Y-89580000D02*
X106900000Y-89580000D01*
X103740000Y-89580000D02*
X103740000Y-88650000D01*
X103740000Y-86420000D02*
X103740000Y-87350000D01*
%TO.C,R1*%
X84772936Y-62910000D02*
X86227064Y-62910000D01*
X84772936Y-61090000D02*
X86227064Y-61090000D01*
%TO.C,R2*%
X104677064Y-91090000D02*
X103222936Y-91090000D01*
X104677064Y-92910000D02*
X103222936Y-92910000D01*
%TO.C,R3*%
X98572936Y-83260000D02*
X100027064Y-83260000D01*
X98572936Y-81440000D02*
X100027064Y-81440000D01*
%TO.C,R4*%
X108972936Y-79540000D02*
X110427064Y-79540000D01*
X108972936Y-81360000D02*
X110427064Y-81360000D01*
%TO.C,R5*%
X79772936Y-80410000D02*
X81227064Y-80410000D01*
X79772936Y-78590000D02*
X81227064Y-78590000D01*
%TO.C,R6*%
X81227064Y-82910000D02*
X79772936Y-82910000D01*
X81227064Y-81090000D02*
X79772936Y-81090000D01*
%TO.C,R7*%
X99140000Y-61472936D02*
X99140000Y-64527064D01*
X101860000Y-61472936D02*
X101860000Y-64527064D01*
%TO.C,R8*%
X98572936Y-78340000D02*
X100027064Y-78340000D01*
X98572936Y-80160000D02*
X100027064Y-80160000D01*
%TO.C,R9*%
X102490000Y-80622936D02*
X102490000Y-82077064D01*
X104310000Y-80622936D02*
X104310000Y-82077064D01*
%TO.C,R10*%
X86727064Y-102410000D02*
X85272936Y-102410000D01*
X86727064Y-100590000D02*
X85272936Y-100590000D01*
%TO.C,R11*%
X130227064Y-68610000D02*
X128772936Y-68610000D01*
X130227064Y-66790000D02*
X128772936Y-66790000D01*
%TO.C,R12*%
X130227064Y-64340000D02*
X128772936Y-64340000D01*
X130227064Y-66160000D02*
X128772936Y-66160000D01*
%TO.C,R13*%
X108840000Y-88977064D02*
X108840000Y-87522936D01*
X110660000Y-88977064D02*
X110660000Y-87522936D01*
%TO.C,R14*%
X113410000Y-88977064D02*
X113410000Y-87522936D01*
X111590000Y-88977064D02*
X111590000Y-87522936D01*
%TO.C,R15*%
X123310000Y-65177064D02*
X123310000Y-63722936D01*
X121490000Y-65177064D02*
X121490000Y-63722936D01*
%TO.C,R16*%
X118227064Y-97410000D02*
X116772936Y-97410000D01*
X118227064Y-95590000D02*
X116772936Y-95590000D01*
%TO.C,R17*%
X106710000Y-80622936D02*
X106710000Y-82077064D01*
X104890000Y-80622936D02*
X104890000Y-82077064D01*
%TO.C,SW1*%
X90830000Y-103670000D02*
X90830000Y-105000000D01*
X89500000Y-103670000D02*
X90830000Y-103670000D01*
X88230000Y-103670000D02*
X88230000Y-106330000D01*
X88230000Y-106330000D02*
X83090000Y-106330000D01*
X88230000Y-103670000D02*
X83090000Y-103670000D01*
X83090000Y-103670000D02*
X83090000Y-106330000D01*
%TO.C,TP1*%
X91450000Y-62750000D02*
G75*
G03*
X91450000Y-62750000I-1200000J0D01*
G01*
%TO.C,TP3*%
X73200000Y-81000000D02*
G75*
G03*
X73200000Y-81000000I-1200000J0D01*
G01*
%TO.C,TP4*%
X94450000Y-85750000D02*
G75*
G03*
X94450000Y-85750000I-1200000J0D01*
G01*
%TO.C,TP6*%
X97000000Y-62400000D02*
G75*
G03*
X97000000Y-62400000I-1200000J0D01*
G01*
%TO.C,TP7*%
X140950000Y-62500000D02*
G75*
G03*
X140950000Y-62500000I-1200000J0D01*
G01*
%TO.C,U1*%
X97420000Y-89260000D02*
X98350000Y-89260000D01*
X100580000Y-89260000D02*
X99650000Y-89260000D01*
X100580000Y-89260000D02*
X100580000Y-86100000D01*
X97420000Y-89260000D02*
X97420000Y-87800000D01*
%TO.C,U2*%
X119560000Y-89000000D02*
X119560000Y-85550000D01*
X119560000Y-89000000D02*
X119560000Y-90950000D01*
X114440000Y-89000000D02*
X114440000Y-87050000D01*
X114440000Y-89000000D02*
X114440000Y-90950000D01*
%TO.C,U3*%
X96500000Y-93065000D02*
X94550000Y-93065000D01*
X96500000Y-93065000D02*
X98450000Y-93065000D01*
X96500000Y-101935000D02*
X94550000Y-101935000D01*
X96500000Y-101935000D02*
X99950000Y-101935000D01*
%TO.C,U4*%
X111435000Y-100500000D02*
X111435000Y-97050000D01*
X111435000Y-100500000D02*
X111435000Y-102450000D01*
X102565000Y-100500000D02*
X102565000Y-98550000D01*
X102565000Y-100500000D02*
X102565000Y-102450000D01*
%TO.C,U5*%
X110760000Y-96080000D02*
X109300000Y-96080000D01*
X110760000Y-92920000D02*
X107600000Y-92920000D01*
X110760000Y-92920000D02*
X110760000Y-93850000D01*
X110760000Y-96080000D02*
X110760000Y-95150000D01*
%TO.C,U6*%
X110010000Y-74050000D02*
X110010000Y-71600000D01*
X106790000Y-72250000D02*
X106790000Y-74050000D01*
%TO.C,U7*%
X125260000Y-77500000D02*
X125260000Y-76400000D01*
X123450000Y-77500000D02*
X125260000Y-77500000D01*
X123450000Y-79000000D02*
X123450000Y-77500000D01*
X132040000Y-77500000D02*
X132040000Y-72375000D01*
X133850000Y-77500000D02*
X132040000Y-77500000D01*
X133850000Y-79000000D02*
X133850000Y-77500000D01*
%TO.C,R18*%
X76910000Y-102727064D02*
X76910000Y-101272936D01*
X75090000Y-102727064D02*
X75090000Y-101272936D01*
%TO.C,D5*%
X75290000Y-107135000D02*
X79350000Y-107135000D01*
X75290000Y-104865000D02*
X75290000Y-107135000D01*
X79350000Y-104865000D02*
X75290000Y-104865000D01*
%TO.C,TP9*%
X119450000Y-104250000D02*
G75*
G03*
X119450000Y-104250000I-1200000J0D01*
G01*
%TO.C,TP12*%
X125450000Y-106500000D02*
G75*
G03*
X125450000Y-106500000I-1200000J0D01*
G01*
%TO.C,TP13*%
X125450000Y-100000000D02*
G75*
G03*
X125450000Y-100000000I-1200000J0D01*
G01*
%TO.C,TP15*%
X125450000Y-103250000D02*
G75*
G03*
X125450000Y-103250000I-1200000J0D01*
G01*
%TO.C,TP16*%
X139400000Y-68000000D02*
G75*
G03*
X139400000Y-68000000I-1200000J0D01*
G01*
%TO.C,TP17*%
X89950000Y-97750000D02*
G75*
G03*
X89950000Y-97750000I-1200000J0D01*
G01*
%TO.C,TP10*%
X98850000Y-57150000D02*
G75*
G03*
X98850000Y-57150000I-1200000J0D01*
G01*
%TO.C,J2*%
X144555000Y-67955000D02*
X144555000Y-89545000D01*
X153445000Y-67955000D02*
X144555000Y-67955000D01*
X153445000Y-89545000D02*
X153445000Y-67955000D01*
X144555000Y-89545000D02*
X153445000Y-89545000D01*
%TO.C,Q2*%
X80000000Y-71560000D02*
X83450000Y-71560000D01*
X80000000Y-71560000D02*
X78050000Y-71560000D01*
X80000000Y-66440000D02*
X81950000Y-66440000D01*
X80000000Y-66440000D02*
X78050000Y-66440000D01*
%TO.C,NT1*%
D10*
X114030380Y-75442857D02*
X113030380Y-75442857D01*
X114030380Y-74871428D01*
X113030380Y-74871428D01*
X113030380Y-74538095D02*
X113030380Y-73966666D01*
X114030380Y-74252380D02*
X113030380Y-74252380D01*
X114030380Y-73109523D02*
X114030380Y-73680952D01*
X114030380Y-73395238D02*
X113030380Y-73395238D01*
X113173238Y-73490476D01*
X113268476Y-73585714D01*
X113316095Y-73680952D01*
%TO.C,L1*%
X104583333Y-57952380D02*
X104107142Y-57952380D01*
X104107142Y-56952380D01*
X105440476Y-57952380D02*
X104869047Y-57952380D01*
X105154761Y-57952380D02*
X105154761Y-56952380D01*
X105059523Y-57095238D01*
X104964285Y-57190476D01*
X104869047Y-57238095D01*
%TO.C,J1*%
X63716666Y-76452380D02*
X63716666Y-77166666D01*
X63669047Y-77309523D01*
X63573809Y-77404761D01*
X63430952Y-77452380D01*
X63335714Y-77452380D01*
X64716666Y-77452380D02*
X64145238Y-77452380D01*
X64430952Y-77452380D02*
X64430952Y-76452380D01*
X64335714Y-76595238D01*
X64240476Y-76690476D01*
X64145238Y-76738095D01*
%TO.C,H1*%
X60738095Y-56452380D02*
X60738095Y-55452380D01*
X60738095Y-55928571D02*
X61309523Y-55928571D01*
X61309523Y-56452380D02*
X61309523Y-55452380D01*
X62309523Y-56452380D02*
X61738095Y-56452380D01*
X62023809Y-56452380D02*
X62023809Y-55452380D01*
X61928571Y-55595238D01*
X61833333Y-55690476D01*
X61738095Y-55738095D01*
%TO.C,H2*%
X60738095Y-105452380D02*
X60738095Y-104452380D01*
X60738095Y-104928571D02*
X61309523Y-104928571D01*
X61309523Y-105452380D02*
X61309523Y-104452380D01*
X61738095Y-104547619D02*
X61785714Y-104500000D01*
X61880952Y-104452380D01*
X62119047Y-104452380D01*
X62214285Y-104500000D01*
X62261904Y-104547619D01*
X62309523Y-104642857D01*
X62309523Y-104738095D01*
X62261904Y-104880952D01*
X61690476Y-105452380D01*
X62309523Y-105452380D01*
%TO.C,H3*%
X149738095Y-105452380D02*
X149738095Y-104452380D01*
X149738095Y-104928571D02*
X150309523Y-104928571D01*
X150309523Y-105452380D02*
X150309523Y-104452380D01*
X150690476Y-104452380D02*
X151309523Y-104452380D01*
X150976190Y-104833333D01*
X151119047Y-104833333D01*
X151214285Y-104880952D01*
X151261904Y-104928571D01*
X151309523Y-105023809D01*
X151309523Y-105261904D01*
X151261904Y-105357142D01*
X151214285Y-105404761D01*
X151119047Y-105452380D01*
X150833333Y-105452380D01*
X150738095Y-105404761D01*
X150690476Y-105357142D01*
%TO.C,H4*%
X149738095Y-56452380D02*
X149738095Y-55452380D01*
X149738095Y-55928571D02*
X150309523Y-55928571D01*
X150309523Y-56452380D02*
X150309523Y-55452380D01*
X151214285Y-55785714D02*
X151214285Y-56452380D01*
X150976190Y-55404761D02*
X150738095Y-56119047D01*
X151357142Y-56119047D01*
%TO.C,C1*%
X91633333Y-77407142D02*
X91585714Y-77454761D01*
X91442857Y-77502380D01*
X91347619Y-77502380D01*
X91204761Y-77454761D01*
X91109523Y-77359523D01*
X91061904Y-77264285D01*
X91014285Y-77073809D01*
X91014285Y-76930952D01*
X91061904Y-76740476D01*
X91109523Y-76645238D01*
X91204761Y-76550000D01*
X91347619Y-76502380D01*
X91442857Y-76502380D01*
X91585714Y-76550000D01*
X91633333Y-76597619D01*
X92585714Y-77502380D02*
X92014285Y-77502380D01*
X92300000Y-77502380D02*
X92300000Y-76502380D01*
X92204761Y-76645238D01*
X92109523Y-76740476D01*
X92014285Y-76788095D01*
%TO.C,C2*%
X100333333Y-76607142D02*
X100285714Y-76654761D01*
X100142857Y-76702380D01*
X100047619Y-76702380D01*
X99904761Y-76654761D01*
X99809523Y-76559523D01*
X99761904Y-76464285D01*
X99714285Y-76273809D01*
X99714285Y-76130952D01*
X99761904Y-75940476D01*
X99809523Y-75845238D01*
X99904761Y-75750000D01*
X100047619Y-75702380D01*
X100142857Y-75702380D01*
X100285714Y-75750000D01*
X100333333Y-75797619D01*
X100714285Y-75797619D02*
X100761904Y-75750000D01*
X100857142Y-75702380D01*
X101095238Y-75702380D01*
X101190476Y-75750000D01*
X101238095Y-75797619D01*
X101285714Y-75892857D01*
X101285714Y-75988095D01*
X101238095Y-76130952D01*
X100666666Y-76702380D01*
X101285714Y-76702380D01*
%TO.C,C3*%
X115333333Y-68157142D02*
X115285714Y-68204761D01*
X115142857Y-68252380D01*
X115047619Y-68252380D01*
X114904761Y-68204761D01*
X114809523Y-68109523D01*
X114761904Y-68014285D01*
X114714285Y-67823809D01*
X114714285Y-67680952D01*
X114761904Y-67490476D01*
X114809523Y-67395238D01*
X114904761Y-67300000D01*
X115047619Y-67252380D01*
X115142857Y-67252380D01*
X115285714Y-67300000D01*
X115333333Y-67347619D01*
X115666666Y-67252380D02*
X116285714Y-67252380D01*
X115952380Y-67633333D01*
X116095238Y-67633333D01*
X116190476Y-67680952D01*
X116238095Y-67728571D01*
X116285714Y-67823809D01*
X116285714Y-68061904D01*
X116238095Y-68157142D01*
X116190476Y-68204761D01*
X116095238Y-68252380D01*
X115809523Y-68252380D01*
X115714285Y-68204761D01*
X115666666Y-68157142D01*
%TO.C,C4*%
X114857142Y-101166666D02*
X114904761Y-101214285D01*
X114952380Y-101357142D01*
X114952380Y-101452380D01*
X114904761Y-101595238D01*
X114809523Y-101690476D01*
X114714285Y-101738095D01*
X114523809Y-101785714D01*
X114380952Y-101785714D01*
X114190476Y-101738095D01*
X114095238Y-101690476D01*
X114000000Y-101595238D01*
X113952380Y-101452380D01*
X113952380Y-101357142D01*
X114000000Y-101214285D01*
X114047619Y-101166666D01*
X114285714Y-100309523D02*
X114952380Y-100309523D01*
X113904761Y-100547619D02*
X114619047Y-100785714D01*
X114619047Y-100166666D01*
%TO.C,C5*%
X102833333Y-75857142D02*
X102785714Y-75904761D01*
X102642857Y-75952380D01*
X102547619Y-75952380D01*
X102404761Y-75904761D01*
X102309523Y-75809523D01*
X102261904Y-75714285D01*
X102214285Y-75523809D01*
X102214285Y-75380952D01*
X102261904Y-75190476D01*
X102309523Y-75095238D01*
X102404761Y-75000000D01*
X102547619Y-74952380D01*
X102642857Y-74952380D01*
X102785714Y-75000000D01*
X102833333Y-75047619D01*
X103738095Y-74952380D02*
X103261904Y-74952380D01*
X103214285Y-75428571D01*
X103261904Y-75380952D01*
X103357142Y-75333333D01*
X103595238Y-75333333D01*
X103690476Y-75380952D01*
X103738095Y-75428571D01*
X103785714Y-75523809D01*
X103785714Y-75761904D01*
X103738095Y-75857142D01*
X103690476Y-75904761D01*
X103595238Y-75952380D01*
X103357142Y-75952380D01*
X103261904Y-75904761D01*
X103214285Y-75857142D01*
%TO.C,C6*%
X105133333Y-75607142D02*
X105085714Y-75654761D01*
X104942857Y-75702380D01*
X104847619Y-75702380D01*
X104704761Y-75654761D01*
X104609523Y-75559523D01*
X104561904Y-75464285D01*
X104514285Y-75273809D01*
X104514285Y-75130952D01*
X104561904Y-74940476D01*
X104609523Y-74845238D01*
X104704761Y-74750000D01*
X104847619Y-74702380D01*
X104942857Y-74702380D01*
X105085714Y-74750000D01*
X105133333Y-74797619D01*
X105990476Y-74702380D02*
X105800000Y-74702380D01*
X105704761Y-74750000D01*
X105657142Y-74797619D01*
X105561904Y-74940476D01*
X105514285Y-75130952D01*
X105514285Y-75511904D01*
X105561904Y-75607142D01*
X105609523Y-75654761D01*
X105704761Y-75702380D01*
X105895238Y-75702380D01*
X105990476Y-75654761D01*
X106038095Y-75607142D01*
X106085714Y-75511904D01*
X106085714Y-75273809D01*
X106038095Y-75178571D01*
X105990476Y-75130952D01*
X105895238Y-75083333D01*
X105704761Y-75083333D01*
X105609523Y-75130952D01*
X105561904Y-75178571D01*
X105514285Y-75273809D01*
%TO.C,C7*%
X112107142Y-77666666D02*
X112154761Y-77714285D01*
X112202380Y-77857142D01*
X112202380Y-77952380D01*
X112154761Y-78095238D01*
X112059523Y-78190476D01*
X111964285Y-78238095D01*
X111773809Y-78285714D01*
X111630952Y-78285714D01*
X111440476Y-78238095D01*
X111345238Y-78190476D01*
X111250000Y-78095238D01*
X111202380Y-77952380D01*
X111202380Y-77857142D01*
X111250000Y-77714285D01*
X111297619Y-77666666D01*
X111202380Y-77333333D02*
X111202380Y-76666666D01*
X112202380Y-77095238D01*
%TO.C,C8*%
X118583333Y-61607142D02*
X118535714Y-61654761D01*
X118392857Y-61702380D01*
X118297619Y-61702380D01*
X118154761Y-61654761D01*
X118059523Y-61559523D01*
X118011904Y-61464285D01*
X117964285Y-61273809D01*
X117964285Y-61130952D01*
X118011904Y-60940476D01*
X118059523Y-60845238D01*
X118154761Y-60750000D01*
X118297619Y-60702380D01*
X118392857Y-60702380D01*
X118535714Y-60750000D01*
X118583333Y-60797619D01*
X119154761Y-61130952D02*
X119059523Y-61083333D01*
X119011904Y-61035714D01*
X118964285Y-60940476D01*
X118964285Y-60892857D01*
X119011904Y-60797619D01*
X119059523Y-60750000D01*
X119154761Y-60702380D01*
X119345238Y-60702380D01*
X119440476Y-60750000D01*
X119488095Y-60797619D01*
X119535714Y-60892857D01*
X119535714Y-60940476D01*
X119488095Y-61035714D01*
X119440476Y-61083333D01*
X119345238Y-61130952D01*
X119154761Y-61130952D01*
X119059523Y-61178571D01*
X119011904Y-61226190D01*
X118964285Y-61321428D01*
X118964285Y-61511904D01*
X119011904Y-61607142D01*
X119059523Y-61654761D01*
X119154761Y-61702380D01*
X119345238Y-61702380D01*
X119440476Y-61654761D01*
X119488095Y-61607142D01*
X119535714Y-61511904D01*
X119535714Y-61321428D01*
X119488095Y-61226190D01*
X119440476Y-61178571D01*
X119345238Y-61130952D01*
%TO.C,C9*%
X97083333Y-76607142D02*
X97035714Y-76654761D01*
X96892857Y-76702380D01*
X96797619Y-76702380D01*
X96654761Y-76654761D01*
X96559523Y-76559523D01*
X96511904Y-76464285D01*
X96464285Y-76273809D01*
X96464285Y-76130952D01*
X96511904Y-75940476D01*
X96559523Y-75845238D01*
X96654761Y-75750000D01*
X96797619Y-75702380D01*
X96892857Y-75702380D01*
X97035714Y-75750000D01*
X97083333Y-75797619D01*
X97559523Y-76702380D02*
X97750000Y-76702380D01*
X97845238Y-76654761D01*
X97892857Y-76607142D01*
X97988095Y-76464285D01*
X98035714Y-76273809D01*
X98035714Y-75892857D01*
X97988095Y-75797619D01*
X97940476Y-75750000D01*
X97845238Y-75702380D01*
X97654761Y-75702380D01*
X97559523Y-75750000D01*
X97511904Y-75797619D01*
X97464285Y-75892857D01*
X97464285Y-76130952D01*
X97511904Y-76226190D01*
X97559523Y-76273809D01*
X97654761Y-76321428D01*
X97845238Y-76321428D01*
X97940476Y-76273809D01*
X97988095Y-76226190D01*
X98035714Y-76130952D01*
%TO.C,C10*%
X127107142Y-60857142D02*
X127059523Y-60904761D01*
X126916666Y-60952380D01*
X126821428Y-60952380D01*
X126678571Y-60904761D01*
X126583333Y-60809523D01*
X126535714Y-60714285D01*
X126488095Y-60523809D01*
X126488095Y-60380952D01*
X126535714Y-60190476D01*
X126583333Y-60095238D01*
X126678571Y-60000000D01*
X126821428Y-59952380D01*
X126916666Y-59952380D01*
X127059523Y-60000000D01*
X127107142Y-60047619D01*
X128059523Y-60952380D02*
X127488095Y-60952380D01*
X127773809Y-60952380D02*
X127773809Y-59952380D01*
X127678571Y-60095238D01*
X127583333Y-60190476D01*
X127488095Y-60238095D01*
X128678571Y-59952380D02*
X128773809Y-59952380D01*
X128869047Y-60000000D01*
X128916666Y-60047619D01*
X128964285Y-60142857D01*
X129011904Y-60333333D01*
X129011904Y-60571428D01*
X128964285Y-60761904D01*
X128916666Y-60857142D01*
X128869047Y-60904761D01*
X128773809Y-60952380D01*
X128678571Y-60952380D01*
X128583333Y-60904761D01*
X128535714Y-60857142D01*
X128488095Y-60761904D01*
X128440476Y-60571428D01*
X128440476Y-60333333D01*
X128488095Y-60142857D01*
X128535714Y-60047619D01*
X128583333Y-60000000D01*
X128678571Y-59952380D01*
%TO.C,C11*%
X127107142Y-58857142D02*
X127059523Y-58904761D01*
X126916666Y-58952380D01*
X126821428Y-58952380D01*
X126678571Y-58904761D01*
X126583333Y-58809523D01*
X126535714Y-58714285D01*
X126488095Y-58523809D01*
X126488095Y-58380952D01*
X126535714Y-58190476D01*
X126583333Y-58095238D01*
X126678571Y-58000000D01*
X126821428Y-57952380D01*
X126916666Y-57952380D01*
X127059523Y-58000000D01*
X127107142Y-58047619D01*
X128059523Y-58952380D02*
X127488095Y-58952380D01*
X127773809Y-58952380D02*
X127773809Y-57952380D01*
X127678571Y-58095238D01*
X127583333Y-58190476D01*
X127488095Y-58238095D01*
X129011904Y-58952380D02*
X128440476Y-58952380D01*
X128726190Y-58952380D02*
X128726190Y-57952380D01*
X128630952Y-58095238D01*
X128535714Y-58190476D01*
X128440476Y-58238095D01*
%TO.C,C12*%
X96107142Y-105357142D02*
X96059523Y-105404761D01*
X95916666Y-105452380D01*
X95821428Y-105452380D01*
X95678571Y-105404761D01*
X95583333Y-105309523D01*
X95535714Y-105214285D01*
X95488095Y-105023809D01*
X95488095Y-104880952D01*
X95535714Y-104690476D01*
X95583333Y-104595238D01*
X95678571Y-104500000D01*
X95821428Y-104452380D01*
X95916666Y-104452380D01*
X96059523Y-104500000D01*
X96107142Y-104547619D01*
X97059523Y-105452380D02*
X96488095Y-105452380D01*
X96773809Y-105452380D02*
X96773809Y-104452380D01*
X96678571Y-104595238D01*
X96583333Y-104690476D01*
X96488095Y-104738095D01*
X97440476Y-104547619D02*
X97488095Y-104500000D01*
X97583333Y-104452380D01*
X97821428Y-104452380D01*
X97916666Y-104500000D01*
X97964285Y-104547619D01*
X98011904Y-104642857D01*
X98011904Y-104738095D01*
X97964285Y-104880952D01*
X97392857Y-105452380D01*
X98011904Y-105452380D01*
%TO.C,C13*%
X122607142Y-92892857D02*
X122654761Y-92940476D01*
X122702380Y-93083333D01*
X122702380Y-93178571D01*
X122654761Y-93321428D01*
X122559523Y-93416666D01*
X122464285Y-93464285D01*
X122273809Y-93511904D01*
X122130952Y-93511904D01*
X121940476Y-93464285D01*
X121845238Y-93416666D01*
X121750000Y-93321428D01*
X121702380Y-93178571D01*
X121702380Y-93083333D01*
X121750000Y-92940476D01*
X121797619Y-92892857D01*
X122702380Y-91940476D02*
X122702380Y-92511904D01*
X122702380Y-92226190D02*
X121702380Y-92226190D01*
X121845238Y-92321428D01*
X121940476Y-92416666D01*
X121988095Y-92511904D01*
X121702380Y-91607142D02*
X121702380Y-90988095D01*
X122083333Y-91321428D01*
X122083333Y-91178571D01*
X122130952Y-91083333D01*
X122178571Y-91035714D01*
X122273809Y-90988095D01*
X122511904Y-90988095D01*
X122607142Y-91035714D01*
X122654761Y-91083333D01*
X122702380Y-91178571D01*
X122702380Y-91464285D01*
X122654761Y-91559523D01*
X122607142Y-91607142D01*
%TO.C,C14*%
X94607142Y-90142857D02*
X94654761Y-90190476D01*
X94702380Y-90333333D01*
X94702380Y-90428571D01*
X94654761Y-90571428D01*
X94559523Y-90666666D01*
X94464285Y-90714285D01*
X94273809Y-90761904D01*
X94130952Y-90761904D01*
X93940476Y-90714285D01*
X93845238Y-90666666D01*
X93750000Y-90571428D01*
X93702380Y-90428571D01*
X93702380Y-90333333D01*
X93750000Y-90190476D01*
X93797619Y-90142857D01*
X94702380Y-89190476D02*
X94702380Y-89761904D01*
X94702380Y-89476190D02*
X93702380Y-89476190D01*
X93845238Y-89571428D01*
X93940476Y-89666666D01*
X93988095Y-89761904D01*
X94035714Y-88333333D02*
X94702380Y-88333333D01*
X93654761Y-88571428D02*
X94369047Y-88809523D01*
X94369047Y-88190476D01*
%TO.C,D1*%
X78761904Y-60632380D02*
X78761904Y-59632380D01*
X79000000Y-59632380D01*
X79142857Y-59680000D01*
X79238095Y-59775238D01*
X79285714Y-59870476D01*
X79333333Y-60060952D01*
X79333333Y-60203809D01*
X79285714Y-60394285D01*
X79238095Y-60489523D01*
X79142857Y-60584761D01*
X79000000Y-60632380D01*
X78761904Y-60632380D01*
X80285714Y-60632380D02*
X79714285Y-60632380D01*
X80000000Y-60632380D02*
X80000000Y-59632380D01*
X79904761Y-59775238D01*
X79809523Y-59870476D01*
X79714285Y-59918095D01*
%TO.C,D2*%
X75311904Y-84352380D02*
X75311904Y-83352380D01*
X75550000Y-83352380D01*
X75692857Y-83400000D01*
X75788095Y-83495238D01*
X75835714Y-83590476D01*
X75883333Y-83780952D01*
X75883333Y-83923809D01*
X75835714Y-84114285D01*
X75788095Y-84209523D01*
X75692857Y-84304761D01*
X75550000Y-84352380D01*
X75311904Y-84352380D01*
X76264285Y-83447619D02*
X76311904Y-83400000D01*
X76407142Y-83352380D01*
X76645238Y-83352380D01*
X76740476Y-83400000D01*
X76788095Y-83447619D01*
X76835714Y-83542857D01*
X76835714Y-83638095D01*
X76788095Y-83780952D01*
X76216666Y-84352380D01*
X76835714Y-84352380D01*
%TO.C,D3*%
X84111904Y-82602380D02*
X84111904Y-81602380D01*
X84350000Y-81602380D01*
X84492857Y-81650000D01*
X84588095Y-81745238D01*
X84635714Y-81840476D01*
X84683333Y-82030952D01*
X84683333Y-82173809D01*
X84635714Y-82364285D01*
X84588095Y-82459523D01*
X84492857Y-82554761D01*
X84350000Y-82602380D01*
X84111904Y-82602380D01*
X85016666Y-81602380D02*
X85635714Y-81602380D01*
X85302380Y-81983333D01*
X85445238Y-81983333D01*
X85540476Y-82030952D01*
X85588095Y-82078571D01*
X85635714Y-82173809D01*
X85635714Y-82411904D01*
X85588095Y-82507142D01*
X85540476Y-82554761D01*
X85445238Y-82602380D01*
X85159523Y-82602380D01*
X85064285Y-82554761D01*
X85016666Y-82507142D01*
%TO.C,D4*%
X113261904Y-96202380D02*
X113261904Y-95202380D01*
X113500000Y-95202380D01*
X113642857Y-95250000D01*
X113738095Y-95345238D01*
X113785714Y-95440476D01*
X113833333Y-95630952D01*
X113833333Y-95773809D01*
X113785714Y-95964285D01*
X113738095Y-96059523D01*
X113642857Y-96154761D01*
X113500000Y-96202380D01*
X113261904Y-96202380D01*
X114690476Y-95535714D02*
X114690476Y-96202380D01*
X114452380Y-95154761D02*
X114214285Y-95869047D01*
X114833333Y-95869047D01*
%TO.C,J3*%
X135782380Y-60333333D02*
X136496666Y-60333333D01*
X136639523Y-60380952D01*
X136734761Y-60476190D01*
X136782380Y-60619047D01*
X136782380Y-60714285D01*
X135782380Y-59952380D02*
X135782380Y-59333333D01*
X136163333Y-59666666D01*
X136163333Y-59523809D01*
X136210952Y-59428571D01*
X136258571Y-59380952D01*
X136353809Y-59333333D01*
X136591904Y-59333333D01*
X136687142Y-59380952D01*
X136734761Y-59428571D01*
X136782380Y-59523809D01*
X136782380Y-59809523D01*
X136734761Y-59904761D01*
X136687142Y-59952380D01*
%TO.C,Q1*%
X104404761Y-85797619D02*
X104309523Y-85750000D01*
X104214285Y-85654761D01*
X104071428Y-85511904D01*
X103976190Y-85464285D01*
X103880952Y-85464285D01*
X103928571Y-85702380D02*
X103833333Y-85654761D01*
X103738095Y-85559523D01*
X103690476Y-85369047D01*
X103690476Y-85035714D01*
X103738095Y-84845238D01*
X103833333Y-84750000D01*
X103928571Y-84702380D01*
X104119047Y-84702380D01*
X104214285Y-84750000D01*
X104309523Y-84845238D01*
X104357142Y-85035714D01*
X104357142Y-85369047D01*
X104309523Y-85559523D01*
X104214285Y-85654761D01*
X104119047Y-85702380D01*
X103928571Y-85702380D01*
X105309523Y-85702380D02*
X104738095Y-85702380D01*
X105023809Y-85702380D02*
X105023809Y-84702380D01*
X104928571Y-84845238D01*
X104833333Y-84940476D01*
X104738095Y-84988095D01*
%TO.C,R1*%
X85333333Y-60632380D02*
X85000000Y-60156190D01*
X84761904Y-60632380D02*
X84761904Y-59632380D01*
X85142857Y-59632380D01*
X85238095Y-59680000D01*
X85285714Y-59727619D01*
X85333333Y-59822857D01*
X85333333Y-59965714D01*
X85285714Y-60060952D01*
X85238095Y-60108571D01*
X85142857Y-60156190D01*
X84761904Y-60156190D01*
X86285714Y-60632380D02*
X85714285Y-60632380D01*
X86000000Y-60632380D02*
X86000000Y-59632380D01*
X85904761Y-59775238D01*
X85809523Y-59870476D01*
X85714285Y-59918095D01*
%TO.C,R2*%
X103783333Y-94272380D02*
X103450000Y-93796190D01*
X103211904Y-94272380D02*
X103211904Y-93272380D01*
X103592857Y-93272380D01*
X103688095Y-93320000D01*
X103735714Y-93367619D01*
X103783333Y-93462857D01*
X103783333Y-93605714D01*
X103735714Y-93700952D01*
X103688095Y-93748571D01*
X103592857Y-93796190D01*
X103211904Y-93796190D01*
X104164285Y-93367619D02*
X104211904Y-93320000D01*
X104307142Y-93272380D01*
X104545238Y-93272380D01*
X104640476Y-93320000D01*
X104688095Y-93367619D01*
X104735714Y-93462857D01*
X104735714Y-93558095D01*
X104688095Y-93700952D01*
X104116666Y-94272380D01*
X104735714Y-94272380D01*
%TO.C,R3*%
X95333333Y-82702380D02*
X95000000Y-82226190D01*
X94761904Y-82702380D02*
X94761904Y-81702380D01*
X95142857Y-81702380D01*
X95238095Y-81750000D01*
X95285714Y-81797619D01*
X95333333Y-81892857D01*
X95333333Y-82035714D01*
X95285714Y-82130952D01*
X95238095Y-82178571D01*
X95142857Y-82226190D01*
X94761904Y-82226190D01*
X95666666Y-81702380D02*
X96285714Y-81702380D01*
X95952380Y-82083333D01*
X96095238Y-82083333D01*
X96190476Y-82130952D01*
X96238095Y-82178571D01*
X96285714Y-82273809D01*
X96285714Y-82511904D01*
X96238095Y-82607142D01*
X96190476Y-82654761D01*
X96095238Y-82702380D01*
X95809523Y-82702380D01*
X95714285Y-82654761D01*
X95666666Y-82607142D01*
%TO.C,R4*%
X109583333Y-82702380D02*
X109250000Y-82226190D01*
X109011904Y-82702380D02*
X109011904Y-81702380D01*
X109392857Y-81702380D01*
X109488095Y-81750000D01*
X109535714Y-81797619D01*
X109583333Y-81892857D01*
X109583333Y-82035714D01*
X109535714Y-82130952D01*
X109488095Y-82178571D01*
X109392857Y-82226190D01*
X109011904Y-82226190D01*
X110440476Y-82035714D02*
X110440476Y-82702380D01*
X110202380Y-81654761D02*
X109964285Y-82369047D01*
X110583333Y-82369047D01*
%TO.C,R5*%
X80333333Y-78102380D02*
X80000000Y-77626190D01*
X79761904Y-78102380D02*
X79761904Y-77102380D01*
X80142857Y-77102380D01*
X80238095Y-77150000D01*
X80285714Y-77197619D01*
X80333333Y-77292857D01*
X80333333Y-77435714D01*
X80285714Y-77530952D01*
X80238095Y-77578571D01*
X80142857Y-77626190D01*
X79761904Y-77626190D01*
X81238095Y-77102380D02*
X80761904Y-77102380D01*
X80714285Y-77578571D01*
X80761904Y-77530952D01*
X80857142Y-77483333D01*
X81095238Y-77483333D01*
X81190476Y-77530952D01*
X81238095Y-77578571D01*
X81285714Y-77673809D01*
X81285714Y-77911904D01*
X81238095Y-78007142D01*
X81190476Y-78054761D01*
X81095238Y-78102380D01*
X80857142Y-78102380D01*
X80761904Y-78054761D01*
X80714285Y-78007142D01*
%TO.C,R6*%
X80333333Y-84352380D02*
X80000000Y-83876190D01*
X79761904Y-84352380D02*
X79761904Y-83352380D01*
X80142857Y-83352380D01*
X80238095Y-83400000D01*
X80285714Y-83447619D01*
X80333333Y-83542857D01*
X80333333Y-83685714D01*
X80285714Y-83780952D01*
X80238095Y-83828571D01*
X80142857Y-83876190D01*
X79761904Y-83876190D01*
X81190476Y-83352380D02*
X81000000Y-83352380D01*
X80904761Y-83400000D01*
X80857142Y-83447619D01*
X80761904Y-83590476D01*
X80714285Y-83780952D01*
X80714285Y-84161904D01*
X80761904Y-84257142D01*
X80809523Y-84304761D01*
X80904761Y-84352380D01*
X81095238Y-84352380D01*
X81190476Y-84304761D01*
X81238095Y-84257142D01*
X81285714Y-84161904D01*
X81285714Y-83923809D01*
X81238095Y-83828571D01*
X81190476Y-83780952D01*
X81095238Y-83733333D01*
X80904761Y-83733333D01*
X80809523Y-83780952D01*
X80761904Y-83828571D01*
X80714285Y-83923809D01*
%TO.C,R7*%
X103352380Y-63116666D02*
X102876190Y-63450000D01*
X103352380Y-63688095D02*
X102352380Y-63688095D01*
X102352380Y-63307142D01*
X102400000Y-63211904D01*
X102447619Y-63164285D01*
X102542857Y-63116666D01*
X102685714Y-63116666D01*
X102780952Y-63164285D01*
X102828571Y-63211904D01*
X102876190Y-63307142D01*
X102876190Y-63688095D01*
X102352380Y-62783333D02*
X102352380Y-62116666D01*
X103352380Y-62545238D01*
%TO.C,R8*%
X95333333Y-79702380D02*
X95000000Y-79226190D01*
X94761904Y-79702380D02*
X94761904Y-78702380D01*
X95142857Y-78702380D01*
X95238095Y-78750000D01*
X95285714Y-78797619D01*
X95333333Y-78892857D01*
X95333333Y-79035714D01*
X95285714Y-79130952D01*
X95238095Y-79178571D01*
X95142857Y-79226190D01*
X94761904Y-79226190D01*
X95904761Y-79130952D02*
X95809523Y-79083333D01*
X95761904Y-79035714D01*
X95714285Y-78940476D01*
X95714285Y-78892857D01*
X95761904Y-78797619D01*
X95809523Y-78750000D01*
X95904761Y-78702380D01*
X96095238Y-78702380D01*
X96190476Y-78750000D01*
X96238095Y-78797619D01*
X96285714Y-78892857D01*
X96285714Y-78940476D01*
X96238095Y-79035714D01*
X96190476Y-79083333D01*
X96095238Y-79130952D01*
X95904761Y-79130952D01*
X95809523Y-79178571D01*
X95761904Y-79226190D01*
X95714285Y-79321428D01*
X95714285Y-79511904D01*
X95761904Y-79607142D01*
X95809523Y-79654761D01*
X95904761Y-79702380D01*
X96095238Y-79702380D01*
X96190476Y-79654761D01*
X96238095Y-79607142D01*
X96285714Y-79511904D01*
X96285714Y-79321428D01*
X96238095Y-79226190D01*
X96190476Y-79178571D01*
X96095238Y-79130952D01*
%TO.C,R9*%
X103333333Y-78452380D02*
X103000000Y-77976190D01*
X102761904Y-78452380D02*
X102761904Y-77452380D01*
X103142857Y-77452380D01*
X103238095Y-77500000D01*
X103285714Y-77547619D01*
X103333333Y-77642857D01*
X103333333Y-77785714D01*
X103285714Y-77880952D01*
X103238095Y-77928571D01*
X103142857Y-77976190D01*
X102761904Y-77976190D01*
X103809523Y-78452380D02*
X104000000Y-78452380D01*
X104095238Y-78404761D01*
X104142857Y-78357142D01*
X104238095Y-78214285D01*
X104285714Y-78023809D01*
X104285714Y-77642857D01*
X104238095Y-77547619D01*
X104190476Y-77500000D01*
X104095238Y-77452380D01*
X103904761Y-77452380D01*
X103809523Y-77500000D01*
X103761904Y-77547619D01*
X103714285Y-77642857D01*
X103714285Y-77880952D01*
X103761904Y-77976190D01*
X103809523Y-78023809D01*
X103904761Y-78071428D01*
X104095238Y-78071428D01*
X104190476Y-78023809D01*
X104238095Y-77976190D01*
X104285714Y-77880952D01*
%TO.C,R10*%
X85357142Y-99952380D02*
X85023809Y-99476190D01*
X84785714Y-99952380D02*
X84785714Y-98952380D01*
X85166666Y-98952380D01*
X85261904Y-99000000D01*
X85309523Y-99047619D01*
X85357142Y-99142857D01*
X85357142Y-99285714D01*
X85309523Y-99380952D01*
X85261904Y-99428571D01*
X85166666Y-99476190D01*
X84785714Y-99476190D01*
X86309523Y-99952380D02*
X85738095Y-99952380D01*
X86023809Y-99952380D02*
X86023809Y-98952380D01*
X85928571Y-99095238D01*
X85833333Y-99190476D01*
X85738095Y-99238095D01*
X86928571Y-98952380D02*
X87023809Y-98952380D01*
X87119047Y-99000000D01*
X87166666Y-99047619D01*
X87214285Y-99142857D01*
X87261904Y-99333333D01*
X87261904Y-99571428D01*
X87214285Y-99761904D01*
X87166666Y-99857142D01*
X87119047Y-99904761D01*
X87023809Y-99952380D01*
X86928571Y-99952380D01*
X86833333Y-99904761D01*
X86785714Y-99857142D01*
X86738095Y-99761904D01*
X86690476Y-99571428D01*
X86690476Y-99333333D01*
X86738095Y-99142857D01*
X86785714Y-99047619D01*
X86833333Y-99000000D01*
X86928571Y-98952380D01*
%TO.C,R11*%
X132857142Y-68152380D02*
X132523809Y-67676190D01*
X132285714Y-68152380D02*
X132285714Y-67152380D01*
X132666666Y-67152380D01*
X132761904Y-67200000D01*
X132809523Y-67247619D01*
X132857142Y-67342857D01*
X132857142Y-67485714D01*
X132809523Y-67580952D01*
X132761904Y-67628571D01*
X132666666Y-67676190D01*
X132285714Y-67676190D01*
X133809523Y-68152380D02*
X133238095Y-68152380D01*
X133523809Y-68152380D02*
X133523809Y-67152380D01*
X133428571Y-67295238D01*
X133333333Y-67390476D01*
X133238095Y-67438095D01*
X134761904Y-68152380D02*
X134190476Y-68152380D01*
X134476190Y-68152380D02*
X134476190Y-67152380D01*
X134380952Y-67295238D01*
X134285714Y-67390476D01*
X134190476Y-67438095D01*
%TO.C,R12*%
X132957142Y-65702380D02*
X132623809Y-65226190D01*
X132385714Y-65702380D02*
X132385714Y-64702380D01*
X132766666Y-64702380D01*
X132861904Y-64750000D01*
X132909523Y-64797619D01*
X132957142Y-64892857D01*
X132957142Y-65035714D01*
X132909523Y-65130952D01*
X132861904Y-65178571D01*
X132766666Y-65226190D01*
X132385714Y-65226190D01*
X133909523Y-65702380D02*
X133338095Y-65702380D01*
X133623809Y-65702380D02*
X133623809Y-64702380D01*
X133528571Y-64845238D01*
X133433333Y-64940476D01*
X133338095Y-64988095D01*
X134290476Y-64797619D02*
X134338095Y-64750000D01*
X134433333Y-64702380D01*
X134671428Y-64702380D01*
X134766666Y-64750000D01*
X134814285Y-64797619D01*
X134861904Y-64892857D01*
X134861904Y-64988095D01*
X134814285Y-65130952D01*
X134242857Y-65702380D01*
X134861904Y-65702380D01*
%TO.C,R13*%
X108607142Y-85202380D02*
X108273809Y-84726190D01*
X108035714Y-85202380D02*
X108035714Y-84202380D01*
X108416666Y-84202380D01*
X108511904Y-84250000D01*
X108559523Y-84297619D01*
X108607142Y-84392857D01*
X108607142Y-84535714D01*
X108559523Y-84630952D01*
X108511904Y-84678571D01*
X108416666Y-84726190D01*
X108035714Y-84726190D01*
X109559523Y-85202380D02*
X108988095Y-85202380D01*
X109273809Y-85202380D02*
X109273809Y-84202380D01*
X109178571Y-84345238D01*
X109083333Y-84440476D01*
X108988095Y-84488095D01*
X109892857Y-84202380D02*
X110511904Y-84202380D01*
X110178571Y-84583333D01*
X110321428Y-84583333D01*
X110416666Y-84630952D01*
X110464285Y-84678571D01*
X110511904Y-84773809D01*
X110511904Y-85011904D01*
X110464285Y-85107142D01*
X110416666Y-85154761D01*
X110321428Y-85202380D01*
X110035714Y-85202380D01*
X109940476Y-85154761D01*
X109892857Y-85107142D01*
%TO.C,R14*%
X112107142Y-85202380D02*
X111773809Y-84726190D01*
X111535714Y-85202380D02*
X111535714Y-84202380D01*
X111916666Y-84202380D01*
X112011904Y-84250000D01*
X112059523Y-84297619D01*
X112107142Y-84392857D01*
X112107142Y-84535714D01*
X112059523Y-84630952D01*
X112011904Y-84678571D01*
X111916666Y-84726190D01*
X111535714Y-84726190D01*
X113059523Y-85202380D02*
X112488095Y-85202380D01*
X112773809Y-85202380D02*
X112773809Y-84202380D01*
X112678571Y-84345238D01*
X112583333Y-84440476D01*
X112488095Y-84488095D01*
X113916666Y-84535714D02*
X113916666Y-85202380D01*
X113678571Y-84154761D02*
X113440476Y-84869047D01*
X114059523Y-84869047D01*
%TO.C,R15*%
X124952380Y-65092857D02*
X124476190Y-65426190D01*
X124952380Y-65664285D02*
X123952380Y-65664285D01*
X123952380Y-65283333D01*
X124000000Y-65188095D01*
X124047619Y-65140476D01*
X124142857Y-65092857D01*
X124285714Y-65092857D01*
X124380952Y-65140476D01*
X124428571Y-65188095D01*
X124476190Y-65283333D01*
X124476190Y-65664285D01*
X124952380Y-64140476D02*
X124952380Y-64711904D01*
X124952380Y-64426190D02*
X123952380Y-64426190D01*
X124095238Y-64521428D01*
X124190476Y-64616666D01*
X124238095Y-64711904D01*
X123952380Y-63235714D02*
X123952380Y-63711904D01*
X124428571Y-63759523D01*
X124380952Y-63711904D01*
X124333333Y-63616666D01*
X124333333Y-63378571D01*
X124380952Y-63283333D01*
X124428571Y-63235714D01*
X124523809Y-63188095D01*
X124761904Y-63188095D01*
X124857142Y-63235714D01*
X124904761Y-63283333D01*
X124952380Y-63378571D01*
X124952380Y-63616666D01*
X124904761Y-63711904D01*
X124857142Y-63759523D01*
%TO.C,R16*%
X116857142Y-98772380D02*
X116523809Y-98296190D01*
X116285714Y-98772380D02*
X116285714Y-97772380D01*
X116666666Y-97772380D01*
X116761904Y-97820000D01*
X116809523Y-97867619D01*
X116857142Y-97962857D01*
X116857142Y-98105714D01*
X116809523Y-98200952D01*
X116761904Y-98248571D01*
X116666666Y-98296190D01*
X116285714Y-98296190D01*
X117809523Y-98772380D02*
X117238095Y-98772380D01*
X117523809Y-98772380D02*
X117523809Y-97772380D01*
X117428571Y-97915238D01*
X117333333Y-98010476D01*
X117238095Y-98058095D01*
X118666666Y-97772380D02*
X118476190Y-97772380D01*
X118380952Y-97820000D01*
X118333333Y-97867619D01*
X118238095Y-98010476D01*
X118190476Y-98200952D01*
X118190476Y-98581904D01*
X118238095Y-98677142D01*
X118285714Y-98724761D01*
X118380952Y-98772380D01*
X118571428Y-98772380D01*
X118666666Y-98724761D01*
X118714285Y-98677142D01*
X118761904Y-98581904D01*
X118761904Y-98343809D01*
X118714285Y-98248571D01*
X118666666Y-98200952D01*
X118571428Y-98153333D01*
X118380952Y-98153333D01*
X118285714Y-98200952D01*
X118238095Y-98248571D01*
X118190476Y-98343809D01*
%TO.C,R17*%
X105857142Y-78452380D02*
X105523809Y-77976190D01*
X105285714Y-78452380D02*
X105285714Y-77452380D01*
X105666666Y-77452380D01*
X105761904Y-77500000D01*
X105809523Y-77547619D01*
X105857142Y-77642857D01*
X105857142Y-77785714D01*
X105809523Y-77880952D01*
X105761904Y-77928571D01*
X105666666Y-77976190D01*
X105285714Y-77976190D01*
X106809523Y-78452380D02*
X106238095Y-78452380D01*
X106523809Y-78452380D02*
X106523809Y-77452380D01*
X106428571Y-77595238D01*
X106333333Y-77690476D01*
X106238095Y-77738095D01*
X107142857Y-77452380D02*
X107809523Y-77452380D01*
X107380952Y-78452380D01*
%TO.C,SW1*%
X82404761Y-106083333D02*
X82452380Y-105940476D01*
X82452380Y-105702380D01*
X82404761Y-105607142D01*
X82357142Y-105559523D01*
X82261904Y-105511904D01*
X82166666Y-105511904D01*
X82071428Y-105559523D01*
X82023809Y-105607142D01*
X81976190Y-105702380D01*
X81928571Y-105892857D01*
X81880952Y-105988095D01*
X81833333Y-106035714D01*
X81738095Y-106083333D01*
X81642857Y-106083333D01*
X81547619Y-106035714D01*
X81500000Y-105988095D01*
X81452380Y-105892857D01*
X81452380Y-105654761D01*
X81500000Y-105511904D01*
X81452380Y-105178571D02*
X82452380Y-104940476D01*
X81738095Y-104750000D01*
X82452380Y-104559523D01*
X81452380Y-104321428D01*
X82452380Y-103416666D02*
X82452380Y-103988095D01*
X82452380Y-103702380D02*
X81452380Y-103702380D01*
X81595238Y-103797619D01*
X81690476Y-103892857D01*
X81738095Y-103988095D01*
%TO.C,TP1*%
X88988095Y-60204380D02*
X89559523Y-60204380D01*
X89273809Y-61204380D02*
X89273809Y-60204380D01*
X89892857Y-61204380D02*
X89892857Y-60204380D01*
X90273809Y-60204380D01*
X90369047Y-60252000D01*
X90416666Y-60299619D01*
X90464285Y-60394857D01*
X90464285Y-60537714D01*
X90416666Y-60632952D01*
X90369047Y-60680571D01*
X90273809Y-60728190D01*
X89892857Y-60728190D01*
X91416666Y-61204380D02*
X90845238Y-61204380D01*
X91130952Y-61204380D02*
X91130952Y-60204380D01*
X91035714Y-60347238D01*
X90940476Y-60442476D01*
X90845238Y-60490095D01*
%TO.C,TP3*%
X68788095Y-82652380D02*
X69359523Y-82652380D01*
X69073809Y-83652380D02*
X69073809Y-82652380D01*
X69692857Y-83652380D02*
X69692857Y-82652380D01*
X70073809Y-82652380D01*
X70169047Y-82700000D01*
X70216666Y-82747619D01*
X70264285Y-82842857D01*
X70264285Y-82985714D01*
X70216666Y-83080952D01*
X70169047Y-83128571D01*
X70073809Y-83176190D01*
X69692857Y-83176190D01*
X70597619Y-82652380D02*
X71216666Y-82652380D01*
X70883333Y-83033333D01*
X71026190Y-83033333D01*
X71121428Y-83080952D01*
X71169047Y-83128571D01*
X71216666Y-83223809D01*
X71216666Y-83461904D01*
X71169047Y-83557142D01*
X71121428Y-83604761D01*
X71026190Y-83652380D01*
X70740476Y-83652380D01*
X70645238Y-83604761D01*
X70597619Y-83557142D01*
%TO.C,TP4*%
X91988095Y-83204380D02*
X92559523Y-83204380D01*
X92273809Y-84204380D02*
X92273809Y-83204380D01*
X92892857Y-84204380D02*
X92892857Y-83204380D01*
X93273809Y-83204380D01*
X93369047Y-83252000D01*
X93416666Y-83299619D01*
X93464285Y-83394857D01*
X93464285Y-83537714D01*
X93416666Y-83632952D01*
X93369047Y-83680571D01*
X93273809Y-83728190D01*
X92892857Y-83728190D01*
X94321428Y-83537714D02*
X94321428Y-84204380D01*
X94083333Y-83156761D02*
X93845238Y-83871047D01*
X94464285Y-83871047D01*
%TO.C,TP6*%
X94538095Y-59854380D02*
X95109523Y-59854380D01*
X94823809Y-60854380D02*
X94823809Y-59854380D01*
X95442857Y-60854380D02*
X95442857Y-59854380D01*
X95823809Y-59854380D01*
X95919047Y-59902000D01*
X95966666Y-59949619D01*
X96014285Y-60044857D01*
X96014285Y-60187714D01*
X95966666Y-60282952D01*
X95919047Y-60330571D01*
X95823809Y-60378190D01*
X95442857Y-60378190D01*
X96871428Y-59854380D02*
X96680952Y-59854380D01*
X96585714Y-59902000D01*
X96538095Y-59949619D01*
X96442857Y-60092476D01*
X96395238Y-60282952D01*
X96395238Y-60663904D01*
X96442857Y-60759142D01*
X96490476Y-60806761D01*
X96585714Y-60854380D01*
X96776190Y-60854380D01*
X96871428Y-60806761D01*
X96919047Y-60759142D01*
X96966666Y-60663904D01*
X96966666Y-60425809D01*
X96919047Y-60330571D01*
X96871428Y-60282952D01*
X96776190Y-60235333D01*
X96585714Y-60235333D01*
X96490476Y-60282952D01*
X96442857Y-60330571D01*
X96395238Y-60425809D01*
%TO.C,TP7*%
X138488095Y-59954380D02*
X139059523Y-59954380D01*
X138773809Y-60954380D02*
X138773809Y-59954380D01*
X139392857Y-60954380D02*
X139392857Y-59954380D01*
X139773809Y-59954380D01*
X139869047Y-60002000D01*
X139916666Y-60049619D01*
X139964285Y-60144857D01*
X139964285Y-60287714D01*
X139916666Y-60382952D01*
X139869047Y-60430571D01*
X139773809Y-60478190D01*
X139392857Y-60478190D01*
X140297619Y-59954380D02*
X140964285Y-59954380D01*
X140535714Y-60954380D01*
%TO.C,U1*%
X97238095Y-84202380D02*
X97238095Y-85011904D01*
X97285714Y-85107142D01*
X97333333Y-85154761D01*
X97428571Y-85202380D01*
X97619047Y-85202380D01*
X97714285Y-85154761D01*
X97761904Y-85107142D01*
X97809523Y-85011904D01*
X97809523Y-84202380D01*
X98809523Y-85202380D02*
X98238095Y-85202380D01*
X98523809Y-85202380D02*
X98523809Y-84202380D01*
X98428571Y-84345238D01*
X98333333Y-84440476D01*
X98238095Y-84488095D01*
%TO.C,U2*%
X116452380Y-85011904D02*
X117261904Y-85011904D01*
X117357142Y-84964285D01*
X117404761Y-84916666D01*
X117452380Y-84821428D01*
X117452380Y-84630952D01*
X117404761Y-84535714D01*
X117357142Y-84488095D01*
X117261904Y-84440476D01*
X116452380Y-84440476D01*
X116547619Y-84011904D02*
X116500000Y-83964285D01*
X116452380Y-83869047D01*
X116452380Y-83630952D01*
X116500000Y-83535714D01*
X116547619Y-83488095D01*
X116642857Y-83440476D01*
X116738095Y-83440476D01*
X116880952Y-83488095D01*
X117452380Y-84059523D01*
X117452380Y-83440476D01*
%TO.C,U3*%
X91988095Y-91702380D02*
X91988095Y-92511904D01*
X92035714Y-92607142D01*
X92083333Y-92654761D01*
X92178571Y-92702380D01*
X92369047Y-92702380D01*
X92464285Y-92654761D01*
X92511904Y-92607142D01*
X92559523Y-92511904D01*
X92559523Y-91702380D01*
X92940476Y-91702380D02*
X93559523Y-91702380D01*
X93226190Y-92083333D01*
X93369047Y-92083333D01*
X93464285Y-92130952D01*
X93511904Y-92178571D01*
X93559523Y-92273809D01*
X93559523Y-92511904D01*
X93511904Y-92607142D01*
X93464285Y-92654761D01*
X93369047Y-92702380D01*
X93083333Y-92702380D01*
X92988095Y-92654761D01*
X92940476Y-92607142D01*
%TO.C,U4*%
X105452380Y-106761904D02*
X106261904Y-106761904D01*
X106357142Y-106714285D01*
X106404761Y-106666666D01*
X106452380Y-106571428D01*
X106452380Y-106380952D01*
X106404761Y-106285714D01*
X106357142Y-106238095D01*
X106261904Y-106190476D01*
X105452380Y-106190476D01*
X105785714Y-105285714D02*
X106452380Y-105285714D01*
X105404761Y-105523809D02*
X106119047Y-105761904D01*
X106119047Y-105142857D01*
%TO.C,U5*%
X109238095Y-91452380D02*
X109238095Y-92261904D01*
X109285714Y-92357142D01*
X109333333Y-92404761D01*
X109428571Y-92452380D01*
X109619047Y-92452380D01*
X109714285Y-92404761D01*
X109761904Y-92357142D01*
X109809523Y-92261904D01*
X109809523Y-91452380D01*
X110761904Y-91452380D02*
X110285714Y-91452380D01*
X110238095Y-91928571D01*
X110285714Y-91880952D01*
X110380952Y-91833333D01*
X110619047Y-91833333D01*
X110714285Y-91880952D01*
X110761904Y-91928571D01*
X110809523Y-92023809D01*
X110809523Y-92261904D01*
X110761904Y-92357142D01*
X110714285Y-92404761D01*
X110619047Y-92452380D01*
X110380952Y-92452380D01*
X110285714Y-92404761D01*
X110238095Y-92357142D01*
%TO.C,U6*%
X110752380Y-73911904D02*
X111561904Y-73911904D01*
X111657142Y-73864285D01*
X111704761Y-73816666D01*
X111752380Y-73721428D01*
X111752380Y-73530952D01*
X111704761Y-73435714D01*
X111657142Y-73388095D01*
X111561904Y-73340476D01*
X110752380Y-73340476D01*
X110752380Y-72435714D02*
X110752380Y-72626190D01*
X110800000Y-72721428D01*
X110847619Y-72769047D01*
X110990476Y-72864285D01*
X111180952Y-72911904D01*
X111561904Y-72911904D01*
X111657142Y-72864285D01*
X111704761Y-72816666D01*
X111752380Y-72721428D01*
X111752380Y-72530952D01*
X111704761Y-72435714D01*
X111657142Y-72388095D01*
X111561904Y-72340476D01*
X111323809Y-72340476D01*
X111228571Y-72388095D01*
X111180952Y-72435714D01*
X111133333Y-72530952D01*
X111133333Y-72721428D01*
X111180952Y-72816666D01*
X111228571Y-72864285D01*
X111323809Y-72911904D01*
%TO.C,U7*%
X134752380Y-81211904D02*
X135561904Y-81211904D01*
X135657142Y-81164285D01*
X135704761Y-81116666D01*
X135752380Y-81021428D01*
X135752380Y-80830952D01*
X135704761Y-80735714D01*
X135657142Y-80688095D01*
X135561904Y-80640476D01*
X134752380Y-80640476D01*
X134752380Y-80259523D02*
X134752380Y-79592857D01*
X135752380Y-80021428D01*
%TO.C,R18*%
X74632380Y-102642857D02*
X74156190Y-102976190D01*
X74632380Y-103214285D02*
X73632380Y-103214285D01*
X73632380Y-102833333D01*
X73680000Y-102738095D01*
X73727619Y-102690476D01*
X73822857Y-102642857D01*
X73965714Y-102642857D01*
X74060952Y-102690476D01*
X74108571Y-102738095D01*
X74156190Y-102833333D01*
X74156190Y-103214285D01*
X74632380Y-101690476D02*
X74632380Y-102261904D01*
X74632380Y-101976190D02*
X73632380Y-101976190D01*
X73775238Y-102071428D01*
X73870476Y-102166666D01*
X73918095Y-102261904D01*
X74060952Y-101119047D02*
X74013333Y-101214285D01*
X73965714Y-101261904D01*
X73870476Y-101309523D01*
X73822857Y-101309523D01*
X73727619Y-101261904D01*
X73680000Y-101214285D01*
X73632380Y-101119047D01*
X73632380Y-100928571D01*
X73680000Y-100833333D01*
X73727619Y-100785714D01*
X73822857Y-100738095D01*
X73870476Y-100738095D01*
X73965714Y-100785714D01*
X74013333Y-100833333D01*
X74060952Y-100928571D01*
X74060952Y-101119047D01*
X74108571Y-101214285D01*
X74156190Y-101261904D01*
X74251428Y-101309523D01*
X74441904Y-101309523D01*
X74537142Y-101261904D01*
X74584761Y-101214285D01*
X74632380Y-101119047D01*
X74632380Y-100928571D01*
X74584761Y-100833333D01*
X74537142Y-100785714D01*
X74441904Y-100738095D01*
X74251428Y-100738095D01*
X74156190Y-100785714D01*
X74108571Y-100833333D01*
X74060952Y-100928571D01*
%TO.C,D5*%
X78261904Y-104452380D02*
X78261904Y-103452380D01*
X78500000Y-103452380D01*
X78642857Y-103500000D01*
X78738095Y-103595238D01*
X78785714Y-103690476D01*
X78833333Y-103880952D01*
X78833333Y-104023809D01*
X78785714Y-104214285D01*
X78738095Y-104309523D01*
X78642857Y-104404761D01*
X78500000Y-104452380D01*
X78261904Y-104452380D01*
X79738095Y-103452380D02*
X79261904Y-103452380D01*
X79214285Y-103928571D01*
X79261904Y-103880952D01*
X79357142Y-103833333D01*
X79595238Y-103833333D01*
X79690476Y-103880952D01*
X79738095Y-103928571D01*
X79785714Y-104023809D01*
X79785714Y-104261904D01*
X79738095Y-104357142D01*
X79690476Y-104404761D01*
X79595238Y-104452380D01*
X79357142Y-104452380D01*
X79261904Y-104404761D01*
X79214285Y-104357142D01*
%TO.C,TP9*%
X116988095Y-101704380D02*
X117559523Y-101704380D01*
X117273809Y-102704380D02*
X117273809Y-101704380D01*
X117892857Y-102704380D02*
X117892857Y-101704380D01*
X118273809Y-101704380D01*
X118369047Y-101752000D01*
X118416666Y-101799619D01*
X118464285Y-101894857D01*
X118464285Y-102037714D01*
X118416666Y-102132952D01*
X118369047Y-102180571D01*
X118273809Y-102228190D01*
X117892857Y-102228190D01*
X118940476Y-102704380D02*
X119130952Y-102704380D01*
X119226190Y-102656761D01*
X119273809Y-102609142D01*
X119369047Y-102466285D01*
X119416666Y-102275809D01*
X119416666Y-101894857D01*
X119369047Y-101799619D01*
X119321428Y-101752000D01*
X119226190Y-101704380D01*
X119035714Y-101704380D01*
X118940476Y-101752000D01*
X118892857Y-101799619D01*
X118845238Y-101894857D01*
X118845238Y-102132952D01*
X118892857Y-102228190D01*
X118940476Y-102275809D01*
X119035714Y-102323428D01*
X119226190Y-102323428D01*
X119321428Y-102275809D01*
X119369047Y-102228190D01*
X119416666Y-102132952D01*
%TO.C,TP12*%
X126011904Y-105952380D02*
X126583333Y-105952380D01*
X126297619Y-106952380D02*
X126297619Y-105952380D01*
X126916666Y-106952380D02*
X126916666Y-105952380D01*
X127297619Y-105952380D01*
X127392857Y-106000000D01*
X127440476Y-106047619D01*
X127488095Y-106142857D01*
X127488095Y-106285714D01*
X127440476Y-106380952D01*
X127392857Y-106428571D01*
X127297619Y-106476190D01*
X126916666Y-106476190D01*
X128440476Y-106952380D02*
X127869047Y-106952380D01*
X128154761Y-106952380D02*
X128154761Y-105952380D01*
X128059523Y-106095238D01*
X127964285Y-106190476D01*
X127869047Y-106238095D01*
X128821428Y-106047619D02*
X128869047Y-106000000D01*
X128964285Y-105952380D01*
X129202380Y-105952380D01*
X129297619Y-106000000D01*
X129345238Y-106047619D01*
X129392857Y-106142857D01*
X129392857Y-106238095D01*
X129345238Y-106380952D01*
X128773809Y-106952380D01*
X129392857Y-106952380D01*
%TO.C,TP13*%
X126011904Y-99452380D02*
X126583333Y-99452380D01*
X126297619Y-100452380D02*
X126297619Y-99452380D01*
X126916666Y-100452380D02*
X126916666Y-99452380D01*
X127297619Y-99452380D01*
X127392857Y-99500000D01*
X127440476Y-99547619D01*
X127488095Y-99642857D01*
X127488095Y-99785714D01*
X127440476Y-99880952D01*
X127392857Y-99928571D01*
X127297619Y-99976190D01*
X126916666Y-99976190D01*
X128440476Y-100452380D02*
X127869047Y-100452380D01*
X128154761Y-100452380D02*
X128154761Y-99452380D01*
X128059523Y-99595238D01*
X127964285Y-99690476D01*
X127869047Y-99738095D01*
X128773809Y-99452380D02*
X129392857Y-99452380D01*
X129059523Y-99833333D01*
X129202380Y-99833333D01*
X129297619Y-99880952D01*
X129345238Y-99928571D01*
X129392857Y-100023809D01*
X129392857Y-100261904D01*
X129345238Y-100357142D01*
X129297619Y-100404761D01*
X129202380Y-100452380D01*
X128916666Y-100452380D01*
X128821428Y-100404761D01*
X128773809Y-100357142D01*
%TO.C,TP15*%
X126011904Y-102702380D02*
X126583333Y-102702380D01*
X126297619Y-103702380D02*
X126297619Y-102702380D01*
X126916666Y-103702380D02*
X126916666Y-102702380D01*
X127297619Y-102702380D01*
X127392857Y-102750000D01*
X127440476Y-102797619D01*
X127488095Y-102892857D01*
X127488095Y-103035714D01*
X127440476Y-103130952D01*
X127392857Y-103178571D01*
X127297619Y-103226190D01*
X126916666Y-103226190D01*
X128440476Y-103702380D02*
X127869047Y-103702380D01*
X128154761Y-103702380D02*
X128154761Y-102702380D01*
X128059523Y-102845238D01*
X127964285Y-102940476D01*
X127869047Y-102988095D01*
X129345238Y-102702380D02*
X128869047Y-102702380D01*
X128821428Y-103178571D01*
X128869047Y-103130952D01*
X128964285Y-103083333D01*
X129202380Y-103083333D01*
X129297619Y-103130952D01*
X129345238Y-103178571D01*
X129392857Y-103273809D01*
X129392857Y-103511904D01*
X129345238Y-103607142D01*
X129297619Y-103654761D01*
X129202380Y-103702380D01*
X128964285Y-103702380D01*
X128869047Y-103654761D01*
X128821428Y-103607142D01*
%TO.C,TP16*%
X136461904Y-65454380D02*
X137033333Y-65454380D01*
X136747619Y-66454380D02*
X136747619Y-65454380D01*
X137366666Y-66454380D02*
X137366666Y-65454380D01*
X137747619Y-65454380D01*
X137842857Y-65502000D01*
X137890476Y-65549619D01*
X137938095Y-65644857D01*
X137938095Y-65787714D01*
X137890476Y-65882952D01*
X137842857Y-65930571D01*
X137747619Y-65978190D01*
X137366666Y-65978190D01*
X138890476Y-66454380D02*
X138319047Y-66454380D01*
X138604761Y-66454380D02*
X138604761Y-65454380D01*
X138509523Y-65597238D01*
X138414285Y-65692476D01*
X138319047Y-65740095D01*
X139747619Y-65454380D02*
X139557142Y-65454380D01*
X139461904Y-65502000D01*
X139414285Y-65549619D01*
X139319047Y-65692476D01*
X139271428Y-65882952D01*
X139271428Y-66263904D01*
X139319047Y-66359142D01*
X139366666Y-66406761D01*
X139461904Y-66454380D01*
X139652380Y-66454380D01*
X139747619Y-66406761D01*
X139795238Y-66359142D01*
X139842857Y-66263904D01*
X139842857Y-66025809D01*
X139795238Y-65930571D01*
X139747619Y-65882952D01*
X139652380Y-65835333D01*
X139461904Y-65835333D01*
X139366666Y-65882952D01*
X139319047Y-65930571D01*
X139271428Y-66025809D01*
%TO.C,TP17*%
X87011904Y-95204380D02*
X87583333Y-95204380D01*
X87297619Y-96204380D02*
X87297619Y-95204380D01*
X87916666Y-96204380D02*
X87916666Y-95204380D01*
X88297619Y-95204380D01*
X88392857Y-95252000D01*
X88440476Y-95299619D01*
X88488095Y-95394857D01*
X88488095Y-95537714D01*
X88440476Y-95632952D01*
X88392857Y-95680571D01*
X88297619Y-95728190D01*
X87916666Y-95728190D01*
X89440476Y-96204380D02*
X88869047Y-96204380D01*
X89154761Y-96204380D02*
X89154761Y-95204380D01*
X89059523Y-95347238D01*
X88964285Y-95442476D01*
X88869047Y-95490095D01*
X89773809Y-95204380D02*
X90440476Y-95204380D01*
X90011904Y-96204380D01*
%TO.C,TP10*%
X95911904Y-54604380D02*
X96483333Y-54604380D01*
X96197619Y-55604380D02*
X96197619Y-54604380D01*
X96816666Y-55604380D02*
X96816666Y-54604380D01*
X97197619Y-54604380D01*
X97292857Y-54652000D01*
X97340476Y-54699619D01*
X97388095Y-54794857D01*
X97388095Y-54937714D01*
X97340476Y-55032952D01*
X97292857Y-55080571D01*
X97197619Y-55128190D01*
X96816666Y-55128190D01*
X98340476Y-55604380D02*
X97769047Y-55604380D01*
X98054761Y-55604380D02*
X98054761Y-54604380D01*
X97959523Y-54747238D01*
X97864285Y-54842476D01*
X97769047Y-54890095D01*
X98959523Y-54604380D02*
X99054761Y-54604380D01*
X99150000Y-54652000D01*
X99197619Y-54699619D01*
X99245238Y-54794857D01*
X99292857Y-54985333D01*
X99292857Y-55223428D01*
X99245238Y-55413904D01*
X99197619Y-55509142D01*
X99150000Y-55556761D01*
X99054761Y-55604380D01*
X98959523Y-55604380D01*
X98864285Y-55556761D01*
X98816666Y-55509142D01*
X98769047Y-55413904D01*
X98721428Y-55223428D01*
X98721428Y-54985333D01*
X98769047Y-54794857D01*
X98816666Y-54699619D01*
X98864285Y-54652000D01*
X98959523Y-54604380D01*
%TO.C,J2*%
X142737380Y-79083333D02*
X143451666Y-79083333D01*
X143594523Y-79130952D01*
X143689761Y-79226190D01*
X143737380Y-79369047D01*
X143737380Y-79464285D01*
X142832619Y-78654761D02*
X142785000Y-78607142D01*
X142737380Y-78511904D01*
X142737380Y-78273809D01*
X142785000Y-78178571D01*
X142832619Y-78130952D01*
X142927857Y-78083333D01*
X143023095Y-78083333D01*
X143165952Y-78130952D01*
X143737380Y-78702380D01*
X143737380Y-78083333D01*
%TO.C,Q2*%
X79904761Y-72947619D02*
X79809523Y-72900000D01*
X79714285Y-72804761D01*
X79571428Y-72661904D01*
X79476190Y-72614285D01*
X79380952Y-72614285D01*
X79428571Y-72852380D02*
X79333333Y-72804761D01*
X79238095Y-72709523D01*
X79190476Y-72519047D01*
X79190476Y-72185714D01*
X79238095Y-71995238D01*
X79333333Y-71900000D01*
X79428571Y-71852380D01*
X79619047Y-71852380D01*
X79714285Y-71900000D01*
X79809523Y-71995238D01*
X79857142Y-72185714D01*
X79857142Y-72519047D01*
X79809523Y-72709523D01*
X79714285Y-72804761D01*
X79619047Y-72852380D01*
X79428571Y-72852380D01*
X80238095Y-71947619D02*
X80285714Y-71900000D01*
X80380952Y-71852380D01*
X80619047Y-71852380D01*
X80714285Y-71900000D01*
X80761904Y-71947619D01*
X80809523Y-72042857D01*
X80809523Y-72138095D01*
X80761904Y-72280952D01*
X80190476Y-72852380D01*
X80809523Y-72852380D01*
%TD*%
M02*
